<svg width="21" height="21" viewBox="0 0 21 21" fill="none" xmlns="http://www.w3.org/2000/svg">
    <g clip-path="url(#clip0_1_2130)">
        <path fill-rule="evenodd" clip-rule="evenodd" d="M1.38098 0.464355C1.79519 0.464355 2.13098 0.800142 2.13098 1.21436V19.0358H19.9524C20.3666 19.0358 20.7024 19.3716 20.7024 19.7858C20.7024 20.2 20.3666 20.5358 19.9524 20.5358H1.38098C0.966768 20.5358 0.630981 20.2 0.630981 19.7858V1.21436C0.630981 0.800142 0.966768 0.464355 1.38098 0.464355Z" fill="#999999"/>
        <path fill-rule="evenodd" clip-rule="evenodd" d="M14.8172 4.04794C15.017 4.01132 15.2231 4.05729 15.3883 4.17535L20.3883 7.74678C20.7254 7.98753 20.8035 8.45595 20.5627 8.793C20.3219 9.13006 19.8535 9.20813 19.5165 8.96738L15.1468 5.84617L9.86215 13.7731C9.73751 13.9601 9.53562 14.0813 9.31202 14.1034C9.08842 14.1256 8.86667 14.0463 8.70779 13.8874L5.13636 10.316C4.84346 10.0231 4.84346 9.54821 5.13636 9.25532C5.42925 8.96242 5.90412 8.96242 6.19702 9.25532L9.12155 12.1798L14.3284 4.36962C14.441 4.20063 14.6174 4.08455 14.8172 4.04794Z" fill="#999999"/>
    </g>
    <defs>
        <clipPath id="clip0_1_2130">
            <rect width="20" height="20" fill="white" transform="translate(0.666687 0.5)"/>
        </clipPath>
    </defs>
</svg>
