<svg width="23" height="22" viewBox="0 0 23 22" fill="none" xmlns="http://www.w3.org/2000/svg">
    <path d="M3.57699 4.62411C5.4411 2.31064 8.29771 1 11.5 1C17.1164 1 21.5 5.38356 21.5 11C21.5 11.9083 21.3809 12.7889 21.1575 13.6268M19.423 17.3759C17.5589 19.6894 14.7023 21 11.5 21C5.88356 21 1.5 16.6164 1.5 11C1.5 10.1221 1.61123 9.27021 1.82038 8.45763" stroke="#EEEEEE" stroke-width="1.5" stroke-miterlimit="10" stroke-linecap="round" stroke-linejoin="round"/>
    <path d="M11.4998 16.0845C14.308 16.0845 16.5845 13.808 16.5845 10.9998C16.5845 8.19156 14.308 5.91504 11.4998 5.91504C8.69156 5.91504 6.41504 8.19156 6.41504 10.9998C6.41504 13.808 8.69156 16.0845 11.4998 16.0845Z" stroke="#EEEEEE" stroke-width="1.5" stroke-miterlimit="10" stroke-linecap="round" stroke-linejoin="round"/>
    <path d="M3.02539 2.52539V5.06776H5.56776M17.4322 17.0169H19.9745V19.4745" stroke="#EEEEEE" stroke-width="1.5" stroke-miterlimit="10" stroke-linecap="round" stroke-linejoin="round"/>
</svg>
