<svg width="16" height="20" viewBox="0 0 16 20" fill="none" xmlns="http://www.w3.org/2000/svg">
    <path d="M1.49977 19H14.4998M7.99977 19V5M7.99977 5C8.5302 5 9.03891 4.78929 9.41398 4.41421C9.78906 4.03914 9.99977 3.53043 9.99977 3C9.99977 2.46957 9.78906 1.96086 9.41398 1.58579C9.03891 1.21071 8.5302 1 7.99977 1C7.46934 1 6.96063 1.21071 6.58556 1.58579C6.21048 1.96086 5.99977 2.46957 5.99977 3C5.99977 3.53043 6.21048 4.03914 6.58556 4.41421C6.96063 4.78929 7.46934 5 7.99977 5ZM9.99977 3.2C13.0728 3.861 12.4668 6 14.9998 6M0.999769 6C4.35877 6 3.19177 3.885 6.01177 3.207M2.99977 7.556V5.75M2.99977 7.556L1.04977 11.949C0.982326 12.1268 0.982776 12.3232 1.05104 12.5007C1.11929 12.6781 1.25057 12.8242 1.41977 12.911C1.53174 12.9688 1.65578 12.9993 1.78177 13H4.21777C4.34391 12.9996 4.4681 12.9689 4.57997 12.9106C4.69184 12.8523 4.78812 12.7681 4.86077 12.665C4.93233 12.5617 4.97788 12.4427 4.99355 12.318C5.00922 12.1934 4.99454 12.0668 4.95077 11.949L2.99977 7.556ZM12.9998 7.556V5.313M12.9998 7.556L11.0498 11.949C10.9823 12.1268 10.9828 12.3232 11.051 12.5007C11.1193 12.6781 11.2506 12.8242 11.4198 12.911C11.5317 12.9688 11.6558 12.9993 11.7818 13H14.2178C14.3439 12.9996 14.4681 12.9689 14.58 12.9106C14.6918 12.8523 14.7881 12.7681 14.8608 12.665C14.9323 12.5617 14.9779 12.4427 14.9936 12.318C15.0092 12.1934 14.9945 12.0668 14.9508 11.949L12.9998 7.556Z" stroke="#EEEEEE" stroke-width="1.3" stroke-linecap="round" stroke-linejoin="round"/>
</svg>
