<svg width="28" height="29" viewBox="0 0 28 29" fill="none" xmlns="http://www.w3.org/2000/svg">
    <path d="M25.1138 20.9939V20.0319C26.1764 20.0319 27.0378 19.1704 27.0378 18.1078V15.7027H25.1138V14.7407H27.5188C27.6464 14.7407 27.7687 14.7914 27.859 14.8816C27.9492 14.9718 27.9998 15.0942 27.9998 15.2217V18.1078C27.9983 19.701 26.7071 20.9923 25.1138 20.9939Z" fill="#F15A24"/>
    <path d="M0.582275 8.00635H9.24049V24.8418H0.582275V8.00635Z" fill="#E6E6E6"/>
    <path d="M9.24048 8.00635H12.1265V24.8418H9.24048V8.00635Z" fill="#29ABE2"/>
    <path d="M9.24048 8.00673L10.6835 4.63965L12.1265 8.00673H9.24048Z" fill="#0071BC"/>
    <path d="M10.6835 4.63965H2.02531L0.582275 8.00673H9.24049L10.6835 4.63965Z" fill="#CCCCCC"/>
    <path d="M2.02539 2.23438H10.6836V4.63943H2.02539V2.23438Z" fill="#29ABE2"/>
    <path d="M4.9113 14.2596C5.70826 14.2596 6.35433 13.6135 6.35433 12.8166C6.35433 12.0196 5.70826 11.3735 4.9113 11.3735C4.11433 11.3735 3.46826 12.0196 3.46826 12.8166C3.46826 13.6135 4.11433 14.2596 4.9113 14.2596Z" fill="#29ABE2"/>
    <path d="M2.9873 15.7026H6.8354V16.6647H2.9873V15.7026ZM2.9873 17.6267H6.8354V18.5887H2.9873V17.6267Z" fill="#0071BC"/>
    <path d="M3.63621 22.5903L0.437961 24.8756C0.256253 25.0049 0.120808 25.189 0.0515408 25.401C-0.0177267 25.6129 -0.0171622 25.8415 0.0531512 26.0531C0.122342 26.2608 0.255151 26.4414 0.432745 26.5694C0.610339 26.6973 0.823706 26.7661 1.04259 26.766H5.10378L3.63621 22.5903Z" fill="#C69C6D"/>
    <path d="M7.25958 20.7896L4.1027 21.6914C3.57996 21.841 3.25943 22.3665 3.36579 22.8998L4.14166 26.7661H8.9008L7.25958 20.7896Z" fill="#A67C52"/>
    <path d="M15.9747 26.7659H7.45549L6.70415 21.2141C6.62683 20.6436 7.02661 20.1185 7.59709 20.0412C7.64358 20.0349 7.69044 20.0317 7.73736 20.0317H15.9747V26.7659Z" fill="#8C6239"/>
    <path d="M20.7767 25.323H18.3798C15.7199 25.3201 13.5644 23.1646 13.5615 20.5047V15.2217C13.5615 15.0942 13.6122 14.9718 13.7024 14.8816C13.7926 14.7914 13.915 14.7407 14.0425 14.7407H25.114C25.2416 14.7407 25.3639 14.7914 25.4541 14.8816C25.5443 14.9718 25.595 15.0942 25.595 15.2217V20.5047C25.5921 23.1645 23.4366 25.32 20.7767 25.323Z" fill="#F7931E"/>
    <path d="M19.3334 23.3991H18.8524C16.9939 23.3967 15.4878 21.8906 15.4854 20.032V19.551H16.4474V20.032C16.4489 21.3596 17.5248 22.4355 18.8524 22.4371H19.3334V23.3991ZM15.4854 17.627H16.4474V18.589H15.4854V17.627Z" fill="#FBB03B"/>
    <path d="M24.6328 26.7658H15.0126L14.0505 24.8418H25.5948L24.6328 26.7658Z" fill="#F7931E"/>
    <path d="M11.6455 24.3608H27.9999V25.3229H11.6455V24.3608Z" fill="#F15A24"/>
</svg>
