<svg width="40" height="40" viewBox="0 0 40 40" fill="none" xmlns="http://www.w3.org/2000/svg">
    <path d="M21.6313 14.802C23.9571 15.185 26.0118 16.3721 27.4999 18.0685C29.04 19.8245 29.9735 22.1242 29.9735 24.6412C29.9735 27.3953 28.857 29.8886 27.0524 31.6934C25.2477 33.4983 22.754 34.6148 20.0001 34.6148C17.2462 34.6148 14.7525 33.4983 12.9476 31.6934C11.1428 29.8886 10.0265 27.3953 10.0265 24.6412C10.0265 22.1244 10.9601 19.8245 12.5001 18.0688C13.9883 16.3721 16.0432 15.185 18.3687 14.8023V11.2959H17.2414C16.9291 11.2973 16.6234 11.2057 16.3634 11.0326C16.1043 10.8582 15.9031 10.6105 15.7855 10.3212C15.6644 10.0344 15.6314 9.71795 15.6909 9.41232C15.7527 9.10586 15.9044 8.82476 16.1267 8.60492L18.8852 5.84593C19.0316 5.6995 19.2054 5.58343 19.3967 5.50437C19.5881 5.42531 19.7931 5.38483 20.0001 5.38526C20.4038 5.38526 20.8075 5.53889 21.1148 5.84593L23.8736 8.60492C24.0958 8.82478 24.2474 9.10588 24.3091 9.41232C24.3686 9.71795 24.3357 10.0344 24.2145 10.3212C24.0969 10.6105 23.8957 10.8582 23.6366 11.0326C23.3767 11.2057 23.0711 11.2973 22.7589 11.2959H21.6313V14.802Z" fill="#FFA426"/>
    <path d="M7.91257 25.7997C7.76147 25.9514 7.5819 26.0718 7.38417 26.1539C7.18643 26.236 6.97442 26.2783 6.76031 26.2783C6.54619 26.2783 6.33418 26.236 6.13644 26.1539C5.93871 26.0718 5.75914 25.9514 5.60804 25.7997C5.45628 25.6486 5.33586 25.469 5.25368 25.2713C5.17149 25.0736 5.12917 24.8616 5.12913 24.6474V17.5241H4.00155C3.68921 17.5255 3.38353 17.4338 3.12356 17.2607C2.86454 17.0863 2.66336 16.8387 2.5457 16.5495C2.42453 16.2626 2.39161 15.9462 2.45112 15.6406C2.51278 15.3341 2.66442 15.0529 2.88665 14.8329L5.64564 12.074C5.79195 11.9276 5.96573 11.8115 6.15702 11.7324C6.34831 11.6534 6.55333 11.6129 6.76031 11.6133C7.164 11.6133 7.5677 11.7669 7.87497 12.0742L10.6337 14.8329C10.856 15.0529 11.0076 15.3341 11.0693 15.6406C11.1288 15.9462 11.0958 16.2626 10.9747 16.5495C10.857 16.8387 10.6558 17.0863 10.3968 17.2607C10.1369 17.4338 9.83117 17.5255 9.51883 17.5241H8.39124V24.6474C8.39124 24.8615 8.34895 25.0735 8.26681 25.2713C8.18467 25.469 8.06429 25.6486 7.91257 25.7997ZM34.3924 25.7997C34.2413 25.9514 34.0617 26.0717 33.864 26.1538C33.6662 26.2359 33.4542 26.2782 33.2401 26.2782C33.026 26.2782 32.814 26.2359 32.6163 26.1538C32.4185 26.0717 32.239 25.9514 32.0879 25.7997C31.9361 25.6486 31.8157 25.469 31.7335 25.2713C31.6513 25.0736 31.609 24.8616 31.6089 24.6474V17.5241H30.4814C30.169 17.5255 29.8633 17.4338 29.6034 17.2607C29.3444 17.0863 29.1432 16.8387 29.0255 16.5495C28.9044 16.2626 28.8714 15.9462 28.9309 15.6406C28.9926 15.3341 29.1442 15.0529 29.3665 14.8329L32.1255 12.074C32.2718 11.9276 32.4455 11.8115 32.6368 11.7324C32.8281 11.6534 33.0331 11.6129 33.2401 11.6133C33.6438 11.6133 34.0475 11.7669 34.3548 12.0742L37.1135 14.8329C37.3358 15.0529 37.4874 15.3341 37.5491 15.6406C37.6086 15.9462 37.5756 16.2626 37.4545 16.5495C37.3368 16.8387 37.1356 17.0863 36.8766 17.2607C36.6167 17.4338 36.3111 17.5255 35.9989 17.5241H34.8713V24.6474C34.8713 24.8616 34.8289 25.0736 34.7467 25.2713C34.6646 25.469 34.5441 25.6486 34.3924 25.7997Z" fill="#FFA426"/>
    <path d="M17.01 26.6754C17.0828 26.6083 17.1266 26.5156 17.1323 26.4167C17.1379 26.3179 17.1048 26.2208 17.04 26.1459C16.9753 26.071 16.8839 26.0242 16.7853 26.0155C16.6867 26.0068 16.5886 26.0368 16.5117 26.0992C16.3379 26.2494 16.1387 26.3673 15.9235 26.4475C15.7086 26.5269 15.4813 26.5673 15.2522 26.5668C14.9993 26.5671 14.7488 26.5175 14.5152 26.4207C14.2815 26.324 14.0693 26.182 13.8907 26.003C13.7117 25.8244 13.5697 25.6122 13.4729 25.3786C13.3762 25.145 13.3266 24.8946 13.3269 24.6417C13.3265 24.3888 13.3761 24.1383 13.4729 23.9047C13.5697 23.671 13.7116 23.4588 13.8907 23.2802C14.0693 23.1012 14.2815 22.9592 14.5152 22.8624C14.7488 22.7657 14.9993 22.716 15.2522 22.7164C15.4914 22.7164 15.7177 22.7584 15.9242 22.8352C16.1405 22.9159 16.3392 23.0348 16.5115 23.1838C16.549 23.2184 16.5931 23.2452 16.6412 23.2625C16.6893 23.2798 16.7403 23.2872 16.7913 23.2844C16.8423 23.2815 16.8923 23.2684 16.9381 23.2459C16.984 23.2234 17.0248 23.1919 17.0582 23.1532C17.0917 23.1146 17.117 23.0697 17.1327 23.021C17.1484 22.9724 17.1542 22.9212 17.1497 22.8703C17.1452 22.8194 17.1305 22.7699 17.1065 22.7248C17.0825 22.6797 17.0497 22.6399 17.01 22.6078C16.7677 22.3981 16.4899 22.2335 16.1897 22.1217C15.8898 22.0097 15.5723 21.9523 15.2522 21.9521C14.5094 21.9521 13.8372 22.2532 13.3504 22.7399C13.1003 22.9894 12.9019 23.2858 12.7667 23.6122C12.6315 23.9386 12.5622 24.2884 12.5626 24.6417C12.5626 25.3843 12.8637 26.0567 13.3504 26.5432C13.7142 26.9081 14.1755 27.1605 14.679 27.27C15.1825 27.3796 15.7069 27.3417 16.1894 27.161C16.4905 27.0489 16.7685 26.8842 17.01 26.6754ZM24.997 22.3639C24.9945 22.2642 24.9532 22.1694 24.8818 22.0997C24.8104 22.0301 24.7146 21.9911 24.6149 21.9911C24.5151 21.9911 24.4193 22.0301 24.3479 22.0997C24.2765 22.1694 24.2352 22.2642 24.2327 22.3639V26.9488C24.2327 27.1599 24.4039 27.331 24.6147 27.331H27.0554C27.1551 27.3286 27.2499 27.2872 27.3196 27.2158C27.3892 27.1444 27.4282 27.0486 27.4282 26.9489C27.4282 26.8491 27.3892 26.7533 27.3196 26.6819C27.2499 26.6105 27.1551 26.5692 27.0554 26.5668H24.997V22.3639ZM22.0807 26.9488C22.0831 27.0485 22.1245 27.1433 22.1958 27.213C22.2672 27.2826 22.363 27.3216 22.4628 27.3216C22.5625 27.3216 22.6583 27.2826 22.7297 27.213C22.8011 27.1433 22.8425 27.0485 22.8449 26.9488V24.139C22.8449 23.8558 22.7889 23.5754 22.6802 23.3139C22.5715 23.0524 22.4122 22.8149 22.2115 22.6151C21.8207 22.2244 21.2813 21.9819 20.6878 21.9819C20.0942 21.9819 19.5549 22.2244 19.1641 22.6151C18.9634 22.8149 18.8042 23.0523 18.6955 23.3138C18.5868 23.5753 18.5308 23.8556 18.5307 24.1388V26.9488C18.5331 27.0485 18.5744 27.1433 18.6458 27.213C18.7172 27.2826 18.813 27.3216 18.9128 27.3216C19.0125 27.3216 19.1083 27.2826 19.1797 27.213C19.2511 27.1433 19.2925 27.0485 19.2949 26.9488V24.139C19.2949 23.7561 19.4518 23.4082 19.7044 23.1556C19.957 22.903 20.3051 22.7462 20.6878 22.7462C21.0705 22.7462 21.4186 22.903 21.6712 23.1556C21.8008 23.2845 21.9037 23.4377 21.9739 23.6064C22.0442 23.7751 22.0805 23.956 22.0807 24.1388V26.9488Z" fill="#FBFBF8"/>
    <path d="M18.9128 25.1616C18.813 25.1641 18.7182 25.2054 18.6486 25.2768C18.5789 25.3482 18.5399 25.444 18.5399 25.5438C18.5399 25.6435 18.5789 25.7393 18.6486 25.8107C18.7182 25.8821 18.813 25.9234 18.9128 25.9259H22.4625C22.5623 25.9234 22.6571 25.8821 22.7267 25.8107C22.7964 25.7393 22.8354 25.6435 22.8354 25.5438C22.8354 25.444 22.7964 25.3482 22.7267 25.2768C22.6571 25.2054 22.5623 25.1641 22.4625 25.1616H18.9128Z" fill="#FBFBF8"/>
</svg>
