<svg width="32" height="32" viewBox="0 0 32 32" fill="none" xmlns="http://www.w3.org/2000/svg">
<g clip-path="url(#clip0_2_3157)">
<path fill-rule="evenodd" clip-rule="evenodd" d="M15.1652 31.994C13.0652 31.994 10.4465 31.2753 8.12148 28.5128C6.75898 26.894 5.80898 24.9003 5.37148 22.7503C4.88398 20.3628 4.63398 16.7941 6.20273 13.3816C6.25898 13.2566 6.38398 13.1691 6.52148 13.1629C6.65904 13.1566 6.79029 13.2254 6.86529 13.3441C6.87779 13.3629 7.95904 15.1129 9.17154 15.6316C9.39029 15.4379 9.82779 14.9629 10.1715 14.0754C10.6091 12.9254 10.959 10.8441 10.134 7.44415C10.1029 7.3129 10.1465 7.1754 10.2465 7.08165C10.3466 6.9879 10.4903 6.95665 10.6153 7.00033C10.6903 7.02533 12.059 7.48158 13.2465 8.95658C13.1966 8.38158 13.1591 7.70658 13.1653 7.00658C13.1778 4.38783 13.734 2.72533 14.8278 2.05658C14.959 1.97533 15.1215 1.98158 15.2465 2.07533C15.3715 2.16283 15.4278 2.31908 15.3903 2.46908C15.384 2.50033 14.6903 5.43158 16.7715 6.92533C16.959 7.03158 18.2215 7.75658 19.5528 9.25658C20.7778 10.6441 22.2778 12.9628 22.6715 16.2941C23.109 15.9441 23.7715 15.1941 24.1653 13.6753C24.2028 13.5191 24.3403 13.4066 24.4965 13.3941C24.659 13.3816 24.809 13.4754 24.8715 13.6191C24.8965 13.6816 25.5277 15.1503 25.934 17.2753C29.1594 26.2114 25.2378 33.1853 16.434 31.9065C16.0402 31.9627 15.6152 31.994 15.1652 31.994Z" fill="#FFA426"/>
<path fill-rule="evenodd" clip-rule="evenodd" d="M15.1653 31.994C13.2969 31.994 11.0178 31.4249 8.90037 29.3538C8.8938 29.3247 8.88824 29.3041 8.88405 29.294C8.8653 29.2502 8.4778 28.244 8.7778 26.7815C9.04655 25.4627 9.9528 23.494 12.7404 21.594C13.8279 20.8565 14.5529 19.7002 14.7216 18.4315C14.8029 17.8252 14.7591 17.2065 14.5904 16.6065C14.5466 16.444 14.6154 16.269 14.7591 16.1815C14.9029 16.094 15.0904 16.119 15.2091 16.2315C18.808 19.6971 20.6593 23.6055 21.2627 28.4229C21.4742 31.5753 18.1164 33.0711 16.4341 31.9065C16.0403 31.9626 15.6153 31.994 15.1653 31.994Z" fill="#FDDA45"/>
<path fill-rule="evenodd" clip-rule="evenodd" d="M14.5774 32H1.42256C0.637349 32 0 31.4322 0 30.7326V26.2674C0 25.5678 0.637349 25 1.42256 25H14.5774C15.3627 25 16 25.5678 16 26.2674V30.7326C16 31.4322 15.3627 32 14.5774 32Z" fill="#7B5014"/>
<path fill-rule="evenodd" clip-rule="evenodd" d="M3.30056 30.8144C3.13592 30.8144 3.00122 30.6797 3.00122 30.5151V26.2993C3.00122 26.1347 3.13592 26 3.30056 26C3.4652 26 3.5999 26.1347 3.5999 26.2993V30.5151C3.5999 30.6797 3.4652 30.8144 3.30056 30.8144Z" fill="white"/>
<path fill-rule="evenodd" clip-rule="evenodd" d="M5.38123 30.6104C5.31138 30.6104 5.24153 30.5855 5.18665 30.5406L3.10628 28.7745C3.03145 28.7096 2.99153 28.6148 3.00151 28.5151C3.01149 28.4153 3.07136 28.3305 3.15617 28.2806L5.23659 27.1481C5.38123 27.0682 5.56587 27.1232 5.64071 27.2678C5.72053 27.4125 5.6656 27.5971 5.52097 27.6719L3.82465 28.5949L5.57081 30.0766C5.69554 30.1814 5.7105 30.371 5.60573 30.5007C5.55085 30.5755 5.46604 30.6104 5.38123 30.6104ZM8.19504 30.6104H7.52651C6.75321 30.6104 6.12459 29.9818 6.12459 29.2085C6.12459 28.4352 6.75321 27.8066 7.52651 27.8066H8.19504C8.35967 27.8066 8.49438 27.9413 8.49438 28.106C8.49438 28.2706 8.35967 28.4053 8.19504 28.4053H7.52651C7.08248 28.4053 6.72327 28.7645 6.72327 29.2085C6.72327 29.6525 7.08248 30.0118 7.52651 30.0118H8.19504C8.35967 30.0118 8.49438 30.1465 8.49438 30.3111C8.49438 30.4757 8.35967 30.6104 8.19504 30.6104ZM10.3403 30.7501C9.53204 30.7501 8.8685 30.0916 8.8685 29.2784C8.8685 28.4702 9.52706 27.8066 10.3403 27.8066C11.1485 27.8066 11.812 28.4651 11.812 29.2783C11.807 30.0915 11.1485 30.7501 10.3403 30.7501ZM10.3403 28.4103C9.86132 28.4103 9.46719 28.7994 9.46719 29.2834C9.46719 29.7673 9.85633 30.1565 10.3403 30.1565C10.8192 30.1565 11.2133 29.7673 11.2133 29.2834C11.2133 28.7995 10.8192 28.4103 10.3403 28.4103V28.4103Z" fill="white"/>
<path fill-rule="evenodd" clip-rule="evenodd" d="M11.5076 30.8145C11.343 30.8145 11.2083 30.6798 11.2083 30.5151V28.275C11.2083 28.1104 11.343 27.9757 11.5076 27.9757C11.6722 27.9757 11.8069 28.1104 11.8069 28.275V30.5151C11.8069 30.6798 11.6772 30.8145 11.5076 30.8145ZM13.1091 30.7146C12.9444 30.7146 12.8097 30.5799 12.8097 30.4153V26.2993C12.8097 26.1347 12.9444 26 13.1091 26C13.2737 26 13.4084 26.1347 13.4084 26.2993V30.4153C13.4084 30.5799 13.2787 30.7146 13.1091 30.7146Z" fill="white"/>
<path d="M15.1268 25H14C14.9124 25 15.6521 25.5729 15.6521 26.4854V30.5C15.6521 31.4124 14.9124 32 14 32H15.1268C16.0392 32 16.7788 32 16.7788 30.5V26.348C16.7788 25.348 16.7788 25 15.1268 25Z" fill="#382100"/>
</g>
<defs>
<clipPath id="clip0_2_3157">
<rect width="32" height="32" fill="white"/>
</clipPath>
</defs>
</svg>
