<svg width="20" height="20" viewBox="0 0 20 20" fill="none" xmlns="http://www.w3.org/2000/svg">
    <g clip-path="url(#clip0_104_3578)">
        <rect width="20" height="20" fill="#E8ECF5"/>
        <path d="M8.5 12.25C8.15 12.25 7.85417 12.1292 7.6125 11.8875C7.37083 11.6458 7.25 11.35 7.25 11C7.25 10.65 7.37083 10.3542 7.6125 10.1125C7.85417 9.87083 8.15 9.75 8.5 9.75C8.85 9.75 9.14583 9.87083 9.3875 10.1125C9.62917 10.3542 9.75 10.65 9.75 11C9.75 11.35 9.62917 11.6458 9.3875 11.8875C9.14583 12.1292 8.85 12.25 8.5 12.25ZM6.5 15C6.225 15 5.98958 14.9021 5.79375 14.7063C5.59792 14.5104 5.5 14.275 5.5 14V7C5.5 6.725 5.59792 6.48958 5.79375 6.29375C5.98958 6.09792 6.225 6 6.5 6H7V5H8V6H12V5H13V6H13.5C13.775 6 14.0104 6.09792 14.2063 6.29375C14.4021 6.48958 14.5 6.725 14.5 7V14C14.5 14.275 14.4021 14.5104 14.2063 14.7063C14.0104 14.9021 13.775 15 13.5 15H6.5ZM6.5 14H13.5V9H6.5V14Z" fill="#111C06"/>
    </g>
    <defs>
        <clipPath id="clip0_104_3578">
            <rect width="20" height="20" rx="10" fill="white"/>
        </clipPath>
    </defs>
</svg>
