<svg width="60" height="25" viewBox="0 0 60 25" fill="none" xmlns="http://www.w3.org/2000/svg">
    <g clip-path="url(#clip0_1_5640)">
        <path d="M5.14446 12.5C5.14446 11.1267 5.45112 9.9 6.06446 8.82C6.69112 7.72667 7.53779 6.88 8.60446 6.28C9.68446 5.66667 10.8911 5.36 12.2245 5.36C13.7845 5.36 15.1511 5.76 16.3245 6.56C17.4978 7.36 18.3178 8.46667 18.7845 9.88H15.5645C15.2445 9.21333 14.7911 8.71333 14.2045 8.38C13.6311 8.04667 12.9645 7.88 12.2045 7.88C11.3911 7.88 10.6645 8.07333 10.0245 8.46C9.39779 8.83333 8.90446 9.36667 8.54446 10.06C8.19779 10.7533 8.02446 11.5667 8.02446 12.5C8.02446 13.42 8.19779 14.2333 8.54446 14.94C8.90446 15.6333 9.39779 16.1733 10.0245 16.56C10.6645 16.9333 11.3911 17.12 12.2045 17.12C12.9645 17.12 13.6311 16.9533 14.2045 16.62C14.7911 16.2733 15.2445 15.7667 15.5645 15.1H18.7845C18.3178 16.5267 17.4978 17.64 16.3245 18.44C15.1645 19.2267 13.7978 19.62 12.2245 19.62C10.8911 19.62 9.68446 19.32 8.60446 18.72C7.53779 18.1067 6.69112 17.26 6.06446 16.18C5.45112 15.1 5.14446 13.8733 5.14446 12.5ZM20.456 13.92C20.456 12.8 20.676 11.8067 21.116 10.94C21.5694 10.0733 22.176 9.40667 22.936 8.94C23.7094 8.47333 24.5694 8.24 25.516 8.24C26.3427 8.24 27.0627 8.40667 27.676 8.74C28.3027 9.07333 28.8027 9.49333 29.176 10V8.42H31.996V19.5H29.176V17.88C28.816 18.4 28.316 18.8333 27.676 19.18C27.0494 19.5133 26.3227 19.68 25.496 19.68C24.5627 19.68 23.7094 19.44 22.936 18.96C22.176 18.48 21.5694 17.8067 21.116 16.94C20.676 16.06 20.456 15.0533 20.456 13.92ZM29.176 13.96C29.176 13.28 29.0427 12.7 28.776 12.22C28.5094 11.7267 28.1494 11.3533 27.696 11.1C27.2427 10.8333 26.756 10.7 26.236 10.7C25.716 10.7 25.236 10.8267 24.796 11.08C24.356 11.3333 23.996 11.7067 23.716 12.2C23.4494 12.68 23.316 13.2533 23.316 13.92C23.316 14.5867 23.4494 15.1733 23.716 15.68C23.996 16.1733 24.356 16.5533 24.796 16.82C25.2494 17.0867 25.7294 17.22 26.236 17.22C26.756 17.22 27.2427 17.0933 27.696 16.84C28.1494 16.5733 28.5094 16.2 28.776 15.72C29.0427 15.2267 29.176 14.64 29.176 13.96ZM37.5307 4.7V19.5H34.7307V4.7H37.5307ZM47.9227 17.14H54.2027V19.5H44.6827V17.34L50.9227 7.9H44.6827V5.54H54.2027V7.7L47.9227 17.14Z" fill="#111C06"/>
    </g>
    <defs>
        <clipPath id="clip0_1_5640">
            <rect width="59.8889" height="25" fill="white"/>
        </clipPath>
    </defs>
</svg>
