<svg width="32" height="32" viewBox="0 0 32 32" fill="none" xmlns="http://www.w3.org/2000/svg">
    <g clip-path="url(#clip0_2_3201)">
        <path d="M22.875 19.75C22.875 20.6375 22.45 26.555 22.125 31.75H1.125C0.926088 31.75 0.735322 31.671 0.59467 31.5303C0.454018 31.3897 0.375 31.1989 0.375 31C0.375 30.25 1.625 29.955 1.625 29.25C1.625 25.355 -1.4575 23.115 2.125 7.25H21.125C21.125 7.25 22.875 15 22.875 19.75Z" fill="#D1A788"/>
        <path d="M19.125 16.5002C19.1261 18.4468 18.3703 20.3175 17.0174 21.7171C15.6645 23.1166 13.8205 23.9353 11.875 24.0002H11.375C9.90328 23.9511 8.47858 23.4699 7.27853 22.6165C6.07849 21.7632 5.1562 20.5754 4.62669 19.2014C4.09717 17.8273 3.98385 16.3278 4.30086 14.8898C4.61787 13.4518 5.35117 12.1389 6.40934 11.1149C7.46751 10.0908 8.80371 9.40097 10.2513 9.13127C11.699 8.86157 13.194 9.02398 14.5499 9.59825C15.9058 10.1725 17.0627 11.1332 17.8763 12.3606C18.6899 13.588 19.1242 15.0277 19.125 16.5002Z" fill="#F3F4F5"/>
        <path d="M12.875 13C12.8716 13.329 12.8072 13.6545 12.685 13.96L12.6275 14C12.407 14.1659 12.2152 14.3669 12.06 14.595C11.7914 14.9879 11.6404 15.4493 11.625 15.925C11.6127 15.5377 11.5105 15.1586 11.3265 14.8176C11.1426 14.4766 10.8819 14.183 10.565 13.96C10.4434 13.6543 10.379 13.3289 10.375 13C10.375 12.0675 11 11.0575 11.625 10.5C11.625 10.5 12.875 11.62 12.875 13Z" fill="#FBCC88"/>
        <path d="M12.8751 13C12.8707 13.3281 12.8063 13.6526 12.6851 13.9575C12.37 14.1809 12.1107 14.474 11.9273 14.8139C11.7439 15.1539 11.6413 15.5315 11.6276 15.9175C11.6106 15.4448 11.4607 14.9864 11.1951 14.595C11.5401 13.875 12.1382 13.3073 12.8751 13Z" fill="#F6B756"/>
        <path d="M15.125 13.4999C15.125 13.888 15.0346 14.2708 14.8611 14.6179C14.6875 14.9651 14.4355 15.267 14.125 15.4999C14.1 15.4999 14.1625 15.4624 11.625 17.9999V15.9999C11.625 15.6118 11.7154 15.229 11.8889 14.8819C12.0625 14.5347 12.3145 14.2328 12.625 13.9999C13.4275 13.3999 14.115 13.4999 15.125 13.4999Z" fill="#FBCC88"/>
        <path d="M11.625 15.925C11.6127 15.5377 11.5105 15.1586 11.3265 14.8176C11.1426 14.4766 10.8819 14.183 10.565 13.96C10.4434 13.6543 10.379 13.3289 10.375 13C10.8628 13.1983 11.2928 13.5164 11.625 13.925C11.7976 14.1292 11.9437 14.3543 12.06 14.595C11.7914 14.9879 11.6404 15.4493 11.625 15.925Z" fill="#F6B756"/>
        <path d="M11.6226 15.9277V18.0002L9.12256 15.5002C8.81307 15.2664 8.56179 14.9642 8.38832 14.6173C8.21486 14.2704 8.12391 13.8881 8.12256 13.5002C9.13756 13.5002 9.82506 13.4052 10.6226 14.0002C10.9217 14.2256 11.1667 14.5149 11.3397 14.8471C11.5127 15.1793 11.6094 15.5459 11.6226 15.9202C11.6226 15.9202 11.6276 15.9227 11.6226 15.9277Z" fill="#FBCC88"/>
        <path d="M14.7901 14.75C14.6218 15.0427 14.3955 15.2979 14.1251 15.5C14.1001 15.5 14.1476 15.4775 11.6251 18L10.9451 17.32C11.1008 16.5923 11.5015 15.9401 12.0803 15.4723C12.6591 15.0045 13.3809 14.7496 14.1251 14.75H14.7901Z" fill="#F6B756"/>
        <path d="M12.305 17.32L11.625 18C9.05496 15.43 9.14996 15.5 9.12496 15.5C8.85456 15.2979 8.62827 15.0427 8.45996 14.75H9.12496C9.86914 14.7496 10.5909 15.0045 11.1697 15.4723C11.7485 15.9401 12.1493 16.5923 12.305 17.32Z" fill="#F6B756"/>
        <path d="M15.125 15.5002C15.125 15.8883 15.0346 16.2711 14.8611 16.6182C14.6875 16.9654 14.4355 17.2673 14.125 17.5002C14.1 17.5002 14.1625 17.4627 11.625 20.0002V18.0002C11.625 17.3372 11.8884 16.7013 12.3572 16.2324C12.8261 15.7636 13.462 15.5002 14.125 15.5002H15.125ZM11.625 18.0002V20.0002C9.055 17.4302 9.15 17.5002 9.125 17.5002C8.81451 17.2673 8.5625 16.9654 8.38893 16.6182C8.21536 16.2711 8.125 15.8883 8.125 15.5002C9.15 15.5002 9.835 15.4052 10.625 16.0002C10.735 16.0002 11.625 16.8277 11.625 18.0002Z" fill="#FBCC88"/>
        <path d="M14.7901 16.75C14.6218 17.0427 14.3955 17.2979 14.1251 17.5C14.1001 17.5 14.1476 17.4775 11.6251 20L10.9451 19.32C11.1008 18.5923 11.5015 17.9401 12.0803 17.4723C12.6591 17.0045 13.3809 16.7496 14.1251 16.75H14.7901Z" fill="#F6B756"/>
        <path d="M12.305 19.32L11.625 20C9.05496 17.43 9.14996 17.5 9.12496 17.5C8.85456 17.2979 8.62827 17.0427 8.45996 16.75H9.12496C9.86914 16.7496 10.5909 17.0045 11.1697 17.4723C11.7485 17.9401 12.1493 18.5923 12.305 19.32Z" fill="#F6B756"/>
        <path d="M15.125 17.5C15.125 17.8881 15.0346 18.2709 14.8611 18.618C14.6875 18.9652 14.4355 19.2671 14.125 19.5C14.1 19.5 14.1625 19.4625 11.625 22V20C11.625 19.337 11.8884 18.7011 12.3572 18.2322C12.8261 17.7634 13.462 17.5 14.125 17.5H15.125Z" fill="#FBCC88"/>
        <path d="M22.5975 24.5L22.145 31.43C20.4751 31.1939 18.9465 30.3628 17.8405 29.0895C16.7344 27.8163 16.1253 26.1866 16.125 24.5H22.5975Z" fill="#CBA07A"/>
        <path d="M22.1251 31.75H1.1251C0.980873 31.7488 0.840065 31.7059 0.719549 31.6267C0.599033 31.5475 0.503922 31.4352 0.445613 31.3032C0.387304 31.1713 0.36827 31.0254 0.390793 30.8829C0.413316 30.7404 0.47644 30.6075 0.5726 30.5C0.642214 30.5778 0.727316 30.6403 0.822456 30.6833C0.917596 30.7264 1.02068 30.7491 1.1251 30.75H22.1251V31.75Z" fill="#CBA07A"/>
        <path d="M24.6249 30.7499H23.1249C21.2684 30.7499 19.4879 30.0124 18.1752 28.6996C16.8624 27.3869 16.1249 25.6064 16.1249 23.7499C16.1249 23.7249 15.7249 23.7499 31.6249 23.7499C31.6249 25.6064 30.8874 27.3869 29.5747 28.6996C28.2619 30.0124 26.4815 30.7499 24.6249 30.7499Z" fill="#FBCC88"/>
        <path d="M31.3825 25.5801C30.9805 27.0645 30.1008 28.3751 28.8794 29.3096C27.658 30.2441 26.1629 30.7503 24.625 30.7501H23.125C21.5884 30.7486 20.095 30.2416 18.8751 29.3073C17.6553 28.373 16.7767 27.0632 16.375 25.5801C16.8915 26.8828 17.7872 28.0005 18.946 28.7886C20.1049 29.5766 21.4736 29.9986 22.875 30.0001H24.875C26.2777 30.0001 27.648 29.5788 28.8084 28.7907C29.9687 28.0026 30.8655 26.884 31.3825 25.5801Z" fill="#F6B756"/>
        <path d="M27.125 30.2876V31.7501H20.625V30.2876" fill="#FBCC88"/>
        <path d="M30.875 23.75H16.875C16.875 23.75 20 20.25 23.875 20.25C27.75 20.25 30.875 23.75 30.875 23.75ZM20.625 5.25H2.625C2.625 5.25 6.655 0.25 11.625 0.25C16.595 0.25 20.625 5.25 20.625 5.25Z" fill="#DDEEFF"/>
        <path d="M30.875 23.75H16.875C17.12 23.4866 17.3787 23.2362 17.65 23H30.1C30.3713 23.2362 30.63 23.4866 30.875 23.75ZM20.625 5.25H2.625C2.625 5.25 2.875 4.95 3.3025 4.5H19.9475C20.385 4.95 20.625 5.25 20.625 5.25Z" fill="#D4E1F2"/>
        <path d="M6.625 3.25C6.625 3.3163 6.59866 3.37989 6.55178 3.42678C6.50489 3.47366 6.4413 3.5 6.375 3.5C6.3087 3.5 6.24511 3.47366 6.19822 3.42678C6.15134 3.37989 6.125 3.3163 6.125 3.25C6.125 3.1837 6.15134 3.12011 6.19822 3.07322C6.24511 3.02634 6.3087 3 6.375 3C6.4413 3 6.50489 3.02634 6.55178 3.07322C6.59866 3.12011 6.625 3.1837 6.625 3.25ZM7.125 4.25C7.125 4.3163 7.09866 4.37989 7.05178 4.42678C7.00489 4.47366 6.9413 4.5 6.875 4.5C6.8087 4.5 6.74511 4.47366 6.69822 4.42678C6.65134 4.37989 6.625 4.3163 6.625 4.25C6.625 4.1837 6.65134 4.12011 6.69822 4.07322C6.74511 4.02634 6.8087 4 6.875 4C6.9413 4 7.00489 4.02634 7.05178 4.07322C7.09866 4.12011 7.125 4.1837 7.125 4.25ZM5.625 4C5.625 4.0663 5.59866 4.12989 5.55178 4.17678C5.50489 4.22366 5.4413 4.25 5.375 4.25C5.3087 4.25 5.24511 4.22366 5.19822 4.17678C5.15134 4.12989 5.125 4.0663 5.125 4C5.125 3.9337 5.15134 3.87011 5.19822 3.82322C5.24511 3.77634 5.3087 3.75 5.375 3.75C5.4413 3.75 5.50489 3.77634 5.55178 3.82322C5.59866 3.87011 5.625 3.9337 5.625 4ZM8.375 2.5C8.375 2.5663 8.34866 2.62989 8.30178 2.67678C8.25489 2.72366 8.1913 2.75 8.125 2.75C8.0587 2.75 7.99511 2.72366 7.94822 2.67678C7.90134 2.62989 7.875 2.5663 7.875 2.5C7.875 2.4337 7.90134 2.37011 7.94822 2.32322C7.99511 2.27634 8.0587 2.25 8.125 2.25C8.1913 2.25 8.25489 2.27634 8.30178 2.32322C8.34866 2.37011 8.375 2.4337 8.375 2.5ZM7.875 3.5C7.875 3.5663 7.84866 3.62989 7.80178 3.67678C7.75489 3.72366 7.6913 3.75 7.625 3.75C7.5587 3.75 7.49511 3.72366 7.44822 3.67678C7.40134 3.62989 7.375 3.5663 7.375 3.5C7.375 3.4337 7.40134 3.37011 7.44822 3.32322C7.49511 3.27634 7.5587 3.25 7.625 3.25C7.6913 3.25 7.75489 3.27634 7.80178 3.32322C7.84866 3.37011 7.875 3.4337 7.875 3.5ZM8.875 4C8.875 4.0663 8.84866 4.12989 8.80178 4.17678C8.75489 4.22366 8.6913 4.25 8.625 4.25C8.5587 4.25 8.49511 4.22366 8.44822 4.17678C8.40134 4.12989 8.375 4.0663 8.375 4C8.375 3.9337 8.40134 3.87011 8.44822 3.82322C8.49511 3.77634 8.5587 3.75 8.625 3.75C8.6913 3.75 8.75489 3.77634 8.80178 3.82322C8.84866 3.87011 8.875 3.9337 8.875 4Z" fill="#C7CDD8"/>
        <path d="M21.375 7.25H1.875C1.60978 7.25 1.35543 7.14464 1.16789 6.95711C0.980357 6.76957 0.875 6.51522 0.875 6.25C0.875 5.98478 0.980357 5.73043 1.16789 5.54289C1.35543 5.35536 1.60978 5.25 1.875 5.25H21.375C21.6402 5.25 21.8946 5.35536 22.0821 5.54289C22.2696 5.73043 22.375 5.98478 22.375 6.25C22.375 6.51522 22.2696 6.76957 22.0821 6.95711C21.8946 7.14464 21.6402 7.25 21.375 7.25Z" fill="#D1A788"/>
        <path d="M21.3749 7.25H1.87493C1.71135 7.24967 1.55035 7.20922 1.40605 7.13219C1.26174 7.05516 1.13854 6.9439 1.04723 6.80818C0.955926 6.67245 0.89931 6.5164 0.882345 6.35371C0.865381 6.19101 0.888587 6.02664 0.949929 5.875C1.0245 6.05934 1.15233 6.21726 1.3171 6.32859C1.48186 6.43992 1.67608 6.4996 1.87493 6.5H21.3749C21.5738 6.4996 21.768 6.43992 21.9328 6.32859C22.0975 6.21726 22.2254 6.05934 22.2999 5.875C22.3613 6.02664 22.3845 6.19101 22.3675 6.35371C22.3505 6.5164 22.2939 6.67245 22.2026 6.80818C22.1113 6.9439 21.9881 7.05516 21.8438 7.13219C21.6995 7.20922 21.5385 7.24967 21.3749 7.25Z" fill="#CBA07A"/>
        <path d="M11.625 20.0002V22.0002C9.055 19.4302 9.15 19.5002 9.125 19.5002C8.81451 19.2673 8.5625 18.9654 8.38893 18.6182C8.21536 18.2711 8.125 17.8883 8.125 17.5002C9.15 17.5002 9.835 17.4052 10.625 18.0002C10.735 18.0002 11.625 18.8277 11.625 20.0002Z" fill="#FBCC88"/>
        <path d="M14.7901 18.75C14.6218 19.0427 14.3955 19.2979 14.1251 19.5C14.1001 19.5 14.1476 19.4775 11.6251 22L10.9451 21.32C11.1008 20.5923 11.5015 19.9401 12.0803 19.4723C12.6591 19.0045 13.3809 18.7496 14.1251 18.75H14.7901Z" fill="#F6B756"/>
        <path d="M11.625 22H12.625C13.288 22 13.9239 21.7366 14.3928 21.2678C14.8616 20.7989 15.125 20.163 15.125 19.5H14.125C13.462 19.5 12.8261 19.7634 12.3572 20.2322C11.8884 20.7011 11.625 21.337 11.625 22Z" fill="#FBCC88"/>
        <path d="M12.305 21.32L11.625 22C9.05496 19.43 9.14996 19.5 9.12496 19.5C8.85456 19.2979 8.62827 19.0427 8.45996 18.75H9.12496C9.86914 18.7496 10.5909 19.0045 11.1697 19.4723C11.7485 19.9401 12.1493 20.5923 12.305 21.32Z" fill="#F6B756"/>
        <path d="M11.625 22H10.625C9.96196 22 9.32607 21.7366 8.85723 21.2678C8.38839 20.7989 8.125 20.163 8.125 19.5H9.125C9.78804 19.5 10.4239 19.7634 10.8928 20.2322C11.3616 20.7011 11.625 21.337 11.625 22Z" fill="#FBCC88"/>
        <path d="M15.125 19.5C15.125 20.163 14.8616 20.7989 14.3928 21.2678C13.9239 21.7366 13.288 22 12.625 22H11.625C11.6278 21.7451 11.67 21.4921 11.75 21.25H12.625C13.1553 21.2479 13.6712 21.0772 14.0981 20.7627C14.5251 20.4481 14.8409 20.0059 15 19.5H15.125ZM11.625 22H10.625C9.96196 22 9.32607 21.7366 8.85723 21.2678C8.38839 20.7989 8.125 20.163 8.125 19.5H8.25C8.40961 20.0075 8.72695 20.4509 9.15589 20.7656C9.58483 21.0803 10.103 21.25 10.635 21.25H11.5C11.58 21.4921 11.6222 21.7451 11.625 22Z" fill="#F6B756"/>
        <path d="M11.875 15.75V24H11.375V15.75C11.375 15.6837 11.4013 15.6201 11.4482 15.5732C11.4951 15.5263 11.5587 15.5 11.625 15.5C11.6913 15.5 11.7549 15.5263 11.8018 15.5732C11.8487 15.6201 11.875 15.6837 11.875 15.75Z" fill="#F6B756"/>
        <path d="M20.875 22C20.875 22.0663 20.8487 22.1299 20.8018 22.1768C20.7549 22.2237 20.6913 22.25 20.625 22.25C20.5587 22.25 20.4951 22.2237 20.4482 22.1768C20.4013 22.1299 20.375 22.0663 20.375 22C20.375 21.9337 20.4013 21.8701 20.4482 21.8232C20.4951 21.7763 20.5587 21.75 20.625 21.75C20.6913 21.75 20.7549 21.7763 20.8018 21.8232C20.8487 21.8701 20.875 21.9337 20.875 22ZM21.375 23C21.375 23.0663 21.3487 23.1299 21.3018 23.1768C21.2549 23.2237 21.1913 23.25 21.125 23.25C21.0587 23.25 20.9951 23.2237 20.9482 23.1768C20.9013 23.1299 20.875 23.0663 20.875 23C20.875 22.9337 20.9013 22.8701 20.9482 22.8232C20.9951 22.7763 21.0587 22.75 21.125 22.75C21.1913 22.75 21.2549 22.7763 21.3018 22.8232C21.3487 22.8701 21.375 22.9337 21.375 23ZM19.875 22.75C19.875 22.8163 19.8487 22.8799 19.8018 22.9268C19.7549 22.9737 19.6913 23 19.625 23C19.5587 23 19.4951 22.9737 19.4482 22.9268C19.4013 22.8799 19.375 22.8163 19.375 22.75C19.375 22.6837 19.4013 22.6201 19.4482 22.5732C19.4951 22.5263 19.5587 22.5 19.625 22.5C19.6913 22.5 19.7549 22.5263 19.8018 22.5732C19.8487 22.6201 19.875 22.6837 19.875 22.75ZM22.625 21.25C22.625 21.3163 22.5987 21.3799 22.5518 21.4268C22.5049 21.4737 22.4413 21.5 22.375 21.5C22.3087 21.5 22.2451 21.4737 22.1982 21.4268C22.1513 21.3799 22.125 21.3163 22.125 21.25C22.125 21.1837 22.1513 21.1201 22.1982 21.0732C22.2451 21.0263 22.3087 21 22.375 21C22.4413 21 22.5049 21.0263 22.5518 21.0732C22.5987 21.1201 22.625 21.1837 22.625 21.25ZM22.125 22.25C22.125 22.3163 22.0987 22.3799 22.0518 22.4268C22.0049 22.4737 21.9413 22.5 21.875 22.5C21.8087 22.5 21.7451 22.4737 21.6982 22.4268C21.6513 22.3799 21.625 22.3163 21.625 22.25C21.625 22.1837 21.6513 22.1201 21.6982 22.0732C21.7451 22.0263 21.8087 22 21.875 22C21.9413 22 22.0049 22.0263 22.0518 22.0732C22.0987 22.1201 22.125 22.1837 22.125 22.25ZM23.125 22.75C23.125 22.8163 23.0987 22.8799 23.0518 22.9268C23.0049 22.9737 22.9413 23 22.875 23C22.8087 23 22.7451 22.9737 22.6982 22.9268C22.6513 22.8799 22.625 22.8163 22.625 22.75C22.625 22.6837 22.6513 22.6201 22.6982 22.5732C22.7451 22.5263 22.8087 22.5 22.875 22.5C22.9413 22.5 23.0049 22.5263 23.0518 22.5732C23.0987 22.6201 23.125 22.6837 23.125 22.75Z" fill="#C7CDD8"/>
        <path d="M13.3479 32.0007H1.65208C0.739688 32.0007 0 31.261 0 30.3486V26.9861C0 26.0737 0.739636 25.334 1.65208 25.334H13.3479C14.2603 25.334 15 26.0736 15 26.9861V30.3486C15 31.261 14.2604 32.0007 13.3479 32.0007Z" fill="#C77F4B"/>
        <path d="M13.348 25.334H12.2212C13.1336 25.334 13.8733 26.0736 13.8733 26.9861V30.3486C13.8733 31.261 13.1336 32.0007 12.2212 32.0007H13.348C14.2604 32.0007 15 31.261 15 30.3486V26.9861C15 26.0736 14.2604 25.334 13.348 25.334Z" fill="#A96535"/>
        <path d="M5.93802 27.0005C5.30548 27.0005 4.79088 27.4453 4.79088 27.992V30.0174C4.79088 30.1922 4.9548 30.3338 5.15699 30.3338C5.35917 30.3338 5.52309 30.1922 5.52309 30.0174V28.9836H6.35294V30.0174C6.35294 30.1922 6.51686 30.3338 6.71905 30.3338C6.92124 30.3338 7.08516 30.1922 7.08516 30.0174V27.992C7.08516 27.4453 6.57056 27.0005 5.93802 27.0005ZM5.52309 28.3507V27.992C5.52309 27.7943 5.70922 27.6334 5.93802 27.6334C6.16681 27.6334 6.35294 27.7943 6.35294 27.992V28.3507H5.52309ZM13.3334 27.992C13.3334 27.4453 12.8188 27.0005 12.1863 27.0005H11.4052C11.3572 27.0005 11.3096 27.0087 11.2651 27.0246C11.2207 27.0405 11.1803 27.0638 11.1463 27.0932C11.1124 27.1226 11.0854 27.1574 11.067 27.1958C11.0486 27.2342 11.0391 27.2754 11.0391 27.3169V30.0174C11.0391 30.1922 11.203 30.3338 11.4052 30.3338H12.1863C12.8188 30.3338 13.3334 29.889 13.3334 29.3423C13.3336 29.0916 13.2237 28.8503 13.0257 28.6672C13.2237 28.484 13.3336 28.2427 13.3334 27.992ZM11.7714 27.6334H12.1863C12.4151 27.6334 12.6012 27.7943 12.6012 27.992C12.6012 28.1898 12.4151 28.3507 12.1863 28.3507H11.7714V27.6334ZM12.1863 29.7009H11.7714V28.9836H12.1863C12.4151 28.9836 12.6012 29.1445 12.6012 29.3423C12.6012 29.54 12.4151 29.7009 12.1863 29.7009ZM9.06215 27.0005H8.28111C8.18402 27.0005 8.09089 27.0338 8.02223 27.0932C7.95358 27.1525 7.915 27.233 7.915 27.3169V30.0174C7.915 30.1922 8.07892 30.3338 8.28111 30.3338C8.4833 30.3338 8.64722 30.1922 8.64722 30.0174V28.9836H9.06215C9.29094 28.9836 9.47707 29.1445 9.47707 29.3423V30.0174C9.47707 30.1922 9.64094 30.3338 9.84318 30.3338C10.0454 30.3338 10.2093 30.1922 10.2093 30.0174V29.3423C10.2095 29.0916 10.0995 28.8503 9.90161 28.6672C10.0995 28.484 10.2095 28.2427 10.2093 27.992C10.2093 27.4453 9.69468 27.0005 9.06215 27.0005ZM8.64722 28.3507V27.6334H9.06215C9.29094 27.6334 9.47707 27.7943 9.47707 27.992C9.47707 28.1898 9.29094 28.3507 9.06215 28.3507H8.64722ZM2.81389 27.6334C3.04268 27.6334 3.22881 27.7943 3.22881 27.992C3.22881 28.1669 3.39273 28.3085 3.59492 28.3085C3.79711 28.3085 3.96103 28.1669 3.96103 27.992C3.96103 27.4453 3.44643 27.0005 2.81389 27.0005C2.18135 27.0005 1.66675 27.4453 1.66675 27.992V29.3423C1.66675 29.889 2.18135 30.3338 2.81389 30.3338C3.44643 30.3338 3.96103 29.889 3.96103 29.3423C3.96103 29.1675 3.79711 29.0258 3.59492 29.0258C3.39273 29.0258 3.22881 29.1675 3.22881 29.3423C3.22881 29.54 3.04268 29.7009 2.81389 29.7009C2.5851 29.7009 2.39897 29.54 2.39897 29.3423V27.992C2.39897 27.7943 2.5851 27.6334 2.81389 27.6334Z" fill="#EAF9FA"/>
    </g>
    <defs>
        <clipPath id="clip0_2_3201">
            <rect width="32" height="32" fill="white"/>
        </clipPath>
    </defs>
</svg>
