<svg width="24" height="24" viewBox="0 0 24 24" fill="none" xmlns="http://www.w3.org/2000/svg">
    <g clip-path="url(#clip0_1_5845)">
        <path d="M17.1562 14.8125C17.1562 15.4781 16.8375 19.9163 16.5938 23.8125H0.84375C0.694566 23.8125 0.551492 23.7532 0.446002 23.6477C0.340513 23.5423 0.28125 23.3992 0.28125 23.25C0.28125 22.6875 1.21875 22.4662 1.21875 21.9375C1.21875 19.0162 -1.09312 17.3363 1.59375 5.4375H15.8438C15.8438 5.4375 17.1562 11.25 17.1562 14.8125Z" fill="#D1A788"/>
        <path d="M14.3438 12.3748C14.3446 13.8347 13.7777 15.2378 12.7631 16.2874C11.7484 17.3371 10.3654 17.9511 8.90625 17.9998H8.53125C7.42746 17.963 6.35893 17.6021 5.4589 16.962C4.55886 16.322 3.86715 15.4312 3.47002 14.4007C3.07288 13.3701 2.98789 12.2455 3.22564 11.167C3.4634 10.0885 4.01338 9.10382 4.80701 8.3358C5.60063 7.56777 6.60279 7.05036 7.68851 6.84808C8.77423 6.64581 9.89547 6.76762 10.9124 7.19832C11.9294 7.62902 12.7971 8.34956 13.4072 9.27009C14.0174 10.1906 14.3431 11.2704 14.3438 12.3748Z" fill="#F3F4F5"/>
        <path d="M9.65625 9.75C9.65373 9.99675 9.60541 10.2409 9.51375 10.47L9.47062 10.5C9.30523 10.6244 9.16143 10.7752 9.045 10.9463C8.84351 11.2409 8.73033 11.587 8.71875 11.9438C8.70951 11.6533 8.63288 11.369 8.49491 11.1132C8.35694 10.8574 8.16141 10.6372 7.92375 10.47C7.83259 10.2407 7.78428 9.9967 7.78125 9.75C7.78125 9.05063 8.25 8.29313 8.71875 7.875C8.71875 7.875 9.65625 8.715 9.65625 9.75Z" fill="#FBCC88"/>
        <path d="M9.65624 9.75C9.65298 9.99607 9.60468 10.2395 9.51374 10.4681C9.27744 10.6357 9.08296 10.8555 8.94541 11.1104C8.80785 11.3654 8.73093 11.6486 8.72062 11.9381C8.70792 11.5836 8.59549 11.2398 8.39624 10.9463C8.65505 10.4063 9.10356 9.98045 9.65624 9.75Z" fill="#F6B756"/>
        <path d="M11.3438 10.1248C11.3438 10.4159 11.276 10.703 11.1458 10.9633C11.0156 11.2237 10.8266 11.4502 10.5938 11.6248C10.575 11.6248 10.6219 11.5967 8.71875 13.4998V11.9998C8.71875 11.7087 8.78652 11.4216 8.9167 11.1613C9.04688 10.9009 9.23588 10.6745 9.46875 10.4998C10.0706 10.0498 10.5863 10.1248 11.3438 10.1248Z" fill="#FBCC88"/>
        <path d="M8.71875 11.9438C8.70951 11.6533 8.63288 11.369 8.49491 11.1132C8.35694 10.8574 8.16141 10.6372 7.92375 10.47C7.83259 10.2407 7.78428 9.9967 7.78125 9.75C8.14713 9.8987 8.46958 10.1373 8.71875 10.4438C8.84819 10.5969 8.9578 10.7657 9.045 10.9463C8.84351 11.2409 8.73033 11.587 8.71875 11.9438Z" fill="#F6B756"/>
        <path d="M8.71692 11.9454V13.4998L6.84192 11.6248C6.6098 11.4494 6.42134 11.2228 6.29124 10.9626C6.16114 10.7024 6.09293 10.4157 6.09192 10.1248C6.85317 10.1248 7.36879 10.0535 7.96692 10.4998C8.19127 10.6688 8.37503 10.8858 8.50478 11.135C8.63454 11.3841 8.70702 11.6591 8.71692 11.9398C8.71692 11.9398 8.72067 11.9417 8.71692 11.9454Z" fill="#FBCC88"/>
        <path d="M11.0925 11.0625C10.9663 11.282 10.7965 11.4734 10.5937 11.625C10.575 11.625 10.6106 11.6081 8.71874 13.5L8.20874 12.99C8.32552 12.4442 8.62607 11.955 9.06016 11.6042C9.49426 11.2534 10.0356 11.0622 10.5937 11.0625H11.0925Z" fill="#F6B756"/>
        <path d="M9.22872 12.99L8.71872 13.5C6.79122 11.5725 6.86247 11.625 6.84372 11.625C6.64092 11.4734 6.4712 11.282 6.34497 11.0625H6.84372C7.40186 11.0622 7.9432 11.2534 8.3773 11.6042C8.81139 11.955 9.11194 12.4442 9.22872 12.99Z" fill="#F6B756"/>
        <path d="M11.3438 11.6248C11.3438 11.9159 11.276 12.203 11.1458 12.4633C11.0156 12.7237 10.8266 12.9501 10.5938 13.1248C10.575 13.1248 10.6219 13.0967 8.71875 14.9998V13.4998C8.71875 13.0025 8.91629 12.5256 9.26792 12.174C9.61956 11.8223 10.0965 11.6248 10.5938 11.6248H11.3438ZM8.71875 13.4998V14.9998C6.79125 13.0723 6.8625 13.1248 6.84375 13.1248C6.61088 12.9501 6.42188 12.7237 6.2917 12.4633C6.16152 12.203 6.09375 11.9159 6.09375 11.6248C6.8625 11.6248 7.37625 11.5535 7.96875 11.9998C8.05125 11.9998 8.71875 12.6204 8.71875 13.4998Z" fill="#FBCC88"/>
        <path d="M11.0925 12.5625C10.9663 12.782 10.7965 12.9734 10.5937 13.125C10.575 13.125 10.6106 13.1081 8.71874 15L8.20874 14.49C8.32552 13.9442 8.62607 13.455 9.06016 13.1042C9.49426 12.7534 10.0356 12.5622 10.5937 12.5625H11.0925Z" fill="#F6B756"/>
        <path d="M9.22872 14.49L8.71872 15C6.79122 13.0725 6.86247 13.125 6.84372 13.125C6.64092 12.9734 6.4712 12.782 6.34497 12.5625H6.84372C7.40186 12.5622 7.9432 12.7534 8.3773 13.1042C8.81139 13.455 9.11194 13.9442 9.22872 14.49Z" fill="#F6B756"/>
        <path d="M11.3438 13.125C11.3438 13.4161 11.276 13.7032 11.1458 13.9635C11.0156 14.2239 10.8266 14.4503 10.5938 14.625C10.575 14.625 10.6219 14.5969 8.71875 16.5V15C8.71875 14.5027 8.91629 14.0258 9.26792 13.6742C9.61956 13.3225 10.0965 13.125 10.5938 13.125H11.3438Z" fill="#FBCC88"/>
        <path d="M16.9481 18.375L16.6088 23.5725C15.3563 23.3954 14.2099 22.7721 13.3803 21.8172C12.5508 20.8622 12.0939 19.6399 12.0938 18.375H16.9481Z" fill="#CBA07A"/>
        <path d="M16.5938 23.8125H0.843764C0.735594 23.8116 0.629987 23.7795 0.539601 23.72C0.449214 23.6606 0.37788 23.5764 0.334148 23.4774C0.290417 23.3785 0.276142 23.269 0.293034 23.1622C0.309926 23.0553 0.357269 22.9556 0.429389 22.875C0.4816 22.9334 0.545426 22.9802 0.616781 23.0125C0.688136 23.0448 0.765447 23.0618 0.843764 23.0625H16.5938V23.8125Z" fill="#CBA07A"/>
        <path d="M18.4687 23.0625H17.3437C15.9513 23.0625 14.616 22.5094 13.6314 21.5248C12.6468 20.5403 12.0937 19.2049 12.0937 17.8125C12.0937 17.7938 11.7937 17.8125 23.7187 17.8125C23.7187 19.2049 23.1656 20.5403 22.181 21.5248C21.1965 22.5094 19.8611 23.0625 18.4687 23.0625Z" fill="#FBCC88"/>
        <path d="M23.5369 19.1851C23.2353 20.2983 22.5756 21.2813 21.6595 21.9822C20.7435 22.683 19.6221 23.0627 18.4688 23.0626H17.3438C16.1913 23.0615 15.0713 22.6812 14.1564 21.9805C13.2414 21.2797 12.5825 20.2974 12.2812 19.1851C12.6686 20.1621 13.3404 21.0004 14.2095 21.5914C15.0787 22.1824 16.1052 22.499 17.1562 22.5001H18.6562C19.7083 22.5001 20.736 22.1841 21.6063 21.593C22.4765 21.0019 23.1491 20.163 23.5369 19.1851Z" fill="#F6B756"/>
        <path d="M20.3438 22.7158V23.8127H15.4688V22.7158" fill="#FBCC88"/>
        <path d="M23.1562 17.8125H12.6562C12.6562 17.8125 15 15.1875 17.9062 15.1875C20.8125 15.1875 23.1562 17.8125 23.1562 17.8125ZM15.4688 3.9375H1.96875C1.96875 3.9375 4.99125 0.1875 8.71875 0.1875C12.4462 0.1875 15.4688 3.9375 15.4688 3.9375Z" fill="#DDEEFF"/>
        <path d="M23.1562 17.8125H12.6562C12.84 17.6149 13.034 17.4272 13.2375 17.25H22.575C22.7785 17.4272 22.9725 17.6149 23.1562 17.8125ZM15.4688 3.9375H1.96875C1.96875 3.9375 2.15625 3.7125 2.47688 3.375H14.9606C15.2887 3.7125 15.4688 3.9375 15.4688 3.9375Z" fill="#D4E1F2"/>
        <path d="M4.96875 2.4375C4.96875 2.48723 4.949 2.53492 4.91383 2.57008C4.87867 2.60525 4.83098 2.625 4.78125 2.625C4.73152 2.625 4.68383 2.60525 4.64867 2.57008C4.6135 2.53492 4.59375 2.48723 4.59375 2.4375C4.59375 2.38777 4.6135 2.34008 4.64867 2.30492C4.68383 2.26975 4.73152 2.25 4.78125 2.25C4.83098 2.25 4.87867 2.26975 4.91383 2.30492C4.949 2.34008 4.96875 2.38777 4.96875 2.4375ZM5.34375 3.1875C5.34375 3.23723 5.324 3.28492 5.28883 3.32008C5.25367 3.35525 5.20598 3.375 5.15625 3.375C5.10652 3.375 5.05883 3.35525 5.02367 3.32008C4.9885 3.28492 4.96875 3.23723 4.96875 3.1875C4.96875 3.13777 4.9885 3.09008 5.02367 3.05492C5.05883 3.01975 5.10652 3 5.15625 3C5.20598 3 5.25367 3.01975 5.28883 3.05492C5.324 3.09008 5.34375 3.13777 5.34375 3.1875ZM4.21875 3C4.21875 3.04973 4.199 3.09742 4.16383 3.13258C4.12867 3.16775 4.08098 3.1875 4.03125 3.1875C3.98152 3.1875 3.93383 3.16775 3.89867 3.13258C3.8635 3.09742 3.84375 3.04973 3.84375 3C3.84375 2.95027 3.8635 2.90258 3.89867 2.86742C3.93383 2.83225 3.98152 2.8125 4.03125 2.8125C4.08098 2.8125 4.12867 2.83225 4.16383 2.86742C4.199 2.90258 4.21875 2.95027 4.21875 3ZM6.28125 1.875C6.28125 1.92473 6.2615 1.97242 6.22633 2.00758C6.19117 2.04275 6.14348 2.0625 6.09375 2.0625C6.04402 2.0625 5.99633 2.04275 5.96117 2.00758C5.926 1.97242 5.90625 1.92473 5.90625 1.875C5.90625 1.82527 5.926 1.77758 5.96117 1.74242C5.99633 1.70725 6.04402 1.6875 6.09375 1.6875C6.14348 1.6875 6.19117 1.70725 6.22633 1.74242C6.2615 1.77758 6.28125 1.82527 6.28125 1.875ZM5.90625 2.625C5.90625 2.67473 5.8865 2.72242 5.85133 2.75758C5.81617 2.79275 5.76848 2.8125 5.71875 2.8125C5.66902 2.8125 5.62133 2.79275 5.58617 2.75758C5.551 2.72242 5.53125 2.67473 5.53125 2.625C5.53125 2.57527 5.551 2.52758 5.58617 2.49242C5.62133 2.45725 5.66902 2.4375 5.71875 2.4375C5.76848 2.4375 5.81617 2.45725 5.85133 2.49242C5.8865 2.52758 5.90625 2.57527 5.90625 2.625ZM6.65625 3C6.65625 3.04973 6.6365 3.09742 6.60133 3.13258C6.56617 3.16775 6.51848 3.1875 6.46875 3.1875C6.41902 3.1875 6.37133 3.16775 6.33617 3.13258C6.301 3.09742 6.28125 3.04973 6.28125 3C6.28125 2.95027 6.301 2.90258 6.33617 2.86742C6.37133 2.83225 6.41902 2.8125 6.46875 2.8125C6.51848 2.8125 6.56617 2.83225 6.60133 2.86742C6.6365 2.90258 6.65625 2.95027 6.65625 3Z" fill="#C7CDD8"/>
        <path d="M16.0312 5.4375H1.40625C1.20734 5.4375 1.01657 5.35848 0.87592 5.21783C0.735268 5.07718 0.65625 4.88641 0.65625 4.6875C0.65625 4.48859 0.735268 4.29782 0.87592 4.15717C1.01657 4.01652 1.20734 3.9375 1.40625 3.9375H16.0312C16.2302 3.9375 16.4209 4.01652 16.5616 4.15717C16.7022 4.29782 16.7812 4.48859 16.7812 4.6875C16.7812 4.88641 16.7022 5.07718 16.5616 5.21783C16.4209 5.35848 16.2302 5.4375 16.0312 5.4375Z" fill="#D1A788"/>
        <path d="M16.0312 5.4375H1.4062C1.28351 5.43725 1.16277 5.40691 1.05454 5.34914C0.946307 5.29137 0.853902 5.20793 0.785423 5.10613C0.716945 5.00434 0.674482 4.8873 0.661759 4.76528C0.649036 4.64326 0.666441 4.51998 0.712447 4.40625C0.768374 4.5445 0.864249 4.66295 0.987823 4.74644C1.1114 4.82994 1.25706 4.8747 1.4062 4.875H16.0312C16.1803 4.8747 16.326 4.82994 16.4496 4.74644C16.5731 4.66295 16.669 4.5445 16.7249 4.40625C16.771 4.51998 16.7884 4.64326 16.7756 4.76528C16.7629 4.8873 16.7204 5.00434 16.652 5.10613C16.5835 5.20793 16.4911 5.29137 16.3829 5.34914C16.2746 5.40691 16.1539 5.43725 16.0312 5.4375Z" fill="#CBA07A"/>
        <path d="M8.71875 14.9998V16.4998C6.79125 14.5723 6.8625 14.6248 6.84375 14.6248C6.61088 14.4501 6.42188 14.2237 6.2917 13.9633C6.16152 13.703 6.09375 13.4159 6.09375 13.1248C6.8625 13.1248 7.37625 13.0535 7.96875 13.4998C8.05125 13.4998 8.71875 14.1204 8.71875 14.9998Z" fill="#FBCC88"/>
        <path d="M11.0925 14.0625C10.9663 14.282 10.7965 14.4734 10.5937 14.625C10.575 14.625 10.6106 14.6081 8.71874 16.5L8.20874 15.99C8.32552 15.4442 8.62607 14.955 9.06016 14.6042C9.49426 14.2534 10.0356 14.0622 10.5937 14.0625H11.0925Z" fill="#F6B756"/>
        <path d="M8.71875 16.5H9.46875C9.96603 16.5 10.4429 16.3025 10.7946 15.9508C11.1462 15.5992 11.3438 15.1223 11.3438 14.625H10.5938C10.0965 14.625 9.61956 14.8225 9.26792 15.1742C8.91629 15.5258 8.71875 16.0027 8.71875 16.5Z" fill="#FBCC88"/>
        <path d="M9.22872 15.99L8.71872 16.5C6.79122 14.5725 6.86247 14.625 6.84372 14.625C6.64092 14.4734 6.4712 14.282 6.34497 14.0625H6.84372C7.40186 14.0622 7.9432 14.2534 8.3773 14.6042C8.81139 14.955 9.11194 15.4442 9.22872 15.99Z" fill="#F6B756"/>
        <path d="M8.71875 16.5H7.96875C7.47147 16.5 6.99456 16.3025 6.64292 15.9508C6.29129 15.5992 6.09375 15.1223 6.09375 14.625H6.84375C7.34103 14.625 7.81794 14.8225 8.16958 15.1742C8.52121 15.5258 8.71875 16.0027 8.71875 16.5Z" fill="#FBCC88"/>
        <path d="M11.3438 14.625C11.3438 15.1223 11.1462 15.5992 10.7946 15.9508C10.4429 16.3025 9.96603 16.5 9.46875 16.5H8.71875C8.72087 16.3088 8.75249 16.1191 8.8125 15.9375H9.46875C9.86648 15.9359 10.2534 15.8079 10.5736 15.572C10.8938 15.3361 11.1307 15.0044 11.25 14.625H11.3438ZM8.71875 16.5H7.96875C7.47147 16.5 6.99456 16.3025 6.64292 15.9508C6.29129 15.5992 6.09375 15.1223 6.09375 14.625H6.1875C6.3072 15.0056 6.54521 15.3382 6.86692 15.5742C7.18862 15.8103 7.57724 15.9375 7.97625 15.9375H8.625C8.68501 16.1191 8.71663 16.3088 8.71875 16.5Z" fill="#F6B756"/>
        <path d="M8.90625 11.8125V18H8.53125V11.8125C8.53125 11.7628 8.551 11.7151 8.58617 11.6799C8.62133 11.6448 8.66902 11.625 8.71875 11.625C8.76848 11.625 8.81617 11.6448 8.85133 11.6799C8.8865 11.7151 8.90625 11.7628 8.90625 11.8125Z" fill="#F6B756"/>
        <path d="M15.6562 16.5C15.6562 16.5497 15.6365 16.5974 15.6013 16.6326C15.5662 16.6677 15.5185 16.6875 15.4688 16.6875C15.419 16.6875 15.3713 16.6677 15.3362 16.6326C15.301 16.5974 15.2812 16.5497 15.2812 16.5C15.2812 16.4503 15.301 16.4026 15.3362 16.3674C15.3713 16.3323 15.419 16.3125 15.4688 16.3125C15.5185 16.3125 15.5662 16.3323 15.6013 16.3674C15.6365 16.4026 15.6562 16.4503 15.6562 16.5ZM16.0312 17.25C16.0312 17.2997 16.0115 17.3474 15.9763 17.3826C15.9412 17.4177 15.8935 17.4375 15.8438 17.4375C15.794 17.4375 15.7463 17.4177 15.7112 17.3826C15.676 17.3474 15.6562 17.2997 15.6562 17.25C15.6562 17.2003 15.676 17.1526 15.7112 17.1174C15.7463 17.0823 15.794 17.0625 15.8438 17.0625C15.8935 17.0625 15.9412 17.0823 15.9763 17.1174C16.0115 17.1526 16.0312 17.2003 16.0312 17.25ZM14.9062 17.0625C14.9062 17.1122 14.8865 17.1599 14.8513 17.1951C14.8162 17.2302 14.7685 17.25 14.7188 17.25C14.669 17.25 14.6213 17.2302 14.5862 17.1951C14.551 17.1599 14.5312 17.1122 14.5312 17.0625C14.5312 17.0128 14.551 16.9651 14.5862 16.9299C14.6213 16.8948 14.669 16.875 14.7188 16.875C14.7685 16.875 14.8162 16.8948 14.8513 16.9299C14.8865 16.9651 14.9062 17.0128 14.9062 17.0625ZM16.9688 15.9375C16.9688 15.9872 16.949 16.0349 16.9138 16.0701C16.8787 16.1052 16.831 16.125 16.7812 16.125C16.7315 16.125 16.6838 16.1052 16.6487 16.0701C16.6135 16.0349 16.5938 15.9872 16.5938 15.9375C16.5938 15.8878 16.6135 15.8401 16.6487 15.8049C16.6838 15.7698 16.7315 15.75 16.7812 15.75C16.831 15.75 16.8787 15.7698 16.9138 15.8049C16.949 15.8401 16.9688 15.8878 16.9688 15.9375ZM16.5938 16.6875C16.5938 16.7372 16.574 16.7849 16.5388 16.8201C16.5037 16.8552 16.456 16.875 16.4062 16.875C16.3565 16.875 16.3088 16.8552 16.2737 16.8201C16.2385 16.7849 16.2188 16.7372 16.2188 16.6875C16.2188 16.6378 16.2385 16.5901 16.2737 16.5549C16.3088 16.5198 16.3565 16.5 16.4062 16.5C16.456 16.5 16.5037 16.5198 16.5388 16.5549C16.574 16.5901 16.5938 16.6378 16.5938 16.6875ZM17.3438 17.0625C17.3438 17.1122 17.324 17.1599 17.2888 17.1951C17.2537 17.2302 17.206 17.25 17.1562 17.25C17.1065 17.25 17.0588 17.2302 17.0237 17.1951C16.9885 17.1599 16.9688 17.1122 16.9688 17.0625C16.9688 17.0128 16.9885 16.9651 17.0237 16.9299C17.0588 16.8948 17.1065 16.875 17.1562 16.875C17.206 16.875 17.2537 16.8948 17.2888 16.9299C17.324 16.9651 17.3438 17.0128 17.3438 17.0625Z" fill="#C7CDD8"/>
    </g>
    <defs>
        <clipPath id="clip0_1_5845">
            <rect width="24" height="24" fill="white"/>
        </clipPath>
    </defs>
</svg>
