<svg width="16" height="17" viewBox="0 0 16 17" fill="none" xmlns="http://www.w3.org/2000/svg">
    <path d="M13.625 3.51221L13.16 11.031C13.0415 12.9517 12.9823 13.9125 12.5 14.6032C12.2619 14.9446 11.9554 15.2327 11.6 15.4492C10.8822 15.8872 9.92 15.8872 7.9955 15.8872C6.068 15.8872 5.10425 15.8872 4.385 15.4485C4.02942 15.2315 3.72291 14.9429 3.485 14.601C3.0035 13.9095 2.945 12.9472 2.8295 11.0235L2.375 3.51221M1.25 3.51221H14.75M11.042 3.51221L10.5298 2.45621C10.19 1.75421 10.0198 1.40396 9.7265 1.18496C9.66136 1.13644 9.59238 1.0933 9.52025 1.05596C9.1955 0.887207 8.8055 0.887207 8.02625 0.887207C7.22675 0.887207 6.827 0.887207 6.49625 1.06271C6.42314 1.10187 6.3534 1.14702 6.28775 1.19771C5.9915 1.42496 5.82575 1.78871 5.49425 2.51546L5.03975 3.51221M6.125 11.7622V7.26221M9.875 11.7622V7.26221" stroke="#575757" stroke-linecap="round" stroke-linejoin="round"/>
</svg>
