<svg width="28" height="29" viewBox="0 0 28 29" fill="none" xmlns="http://www.w3.org/2000/svg">
    <path d="M4.89796 19.4439C4.97014 19.9693 4.17384 20.0911 4.09405 19.5616C3.8945 18.4187 3.16983 17.9713 1.63443 17.5929C1.11889 17.4752 1.29345 16.6838 1.81298 16.8014C3.03968 17.0218 4.73488 17.8272 4.89796 19.4439Z" fill="#663014"/>
    <path d="M6.93953 27.4884C3.53643 27.4899 1.51896 25.5445 1.68739 22.1875L1.69538 22.1837L8.16923 20.0771L8.17328 20.0812C10.4294 22.7641 10.3547 25.6053 6.93953 27.4884Z" fill="#FDB62F"/>
    <path d="M15.1763 16.5962C13.2495 19.4719 9.15424 18.5518 7.36563 16.0016C6.15376 14.4898 6.05237 12.3695 7.11768 10.8022C7.70251 9.94164 8.83684 9.8193 9.62352 10.3849C10.0246 10.6263 10.3396 11.3146 10.5756 11.7157L11.0153 12.4893C11.4309 13.3125 12.3427 13.4428 13.1544 13.5697L13.9565 13.7174C15.2677 13.9569 15.9204 15.5013 15.1763 16.5962Z" fill="#77A226"/>
    <path d="M15.0288 16.7934C13.0562 19.4276 9.11507 18.49 7.36572 16.002C6.02041 14.3614 5.94521 11.4517 7.78375 10.2222C6.87457 11.7605 7.0207 13.7534 8.1775 15.1902C9.70766 17.3698 12.9263 18.3602 15.0288 16.7934Z" fill="#658920"/>
    <path d="M12.96 13.9735C11.4588 15.9338 8.78473 13.3311 10.5756 11.7158C10.9568 12.434 11.4039 13.297 12.297 13.4111L13.1544 13.5701C13.1097 13.7134 13.0442 13.8493 12.96 13.9735Z" fill="#5E801E"/>
    <path d="M13.1536 13.5703C13.1095 13.7133 13.0438 13.8488 12.9588 13.9721C12.1146 15.0761 10.8971 14.7351 10.3206 13.9355C10.9604 14.4395 12.011 14.4186 12.6138 13.4688L13.1536 13.5703Z" fill="#4C6718"/>
    <path d="M6.89476 8.77693C6.81291 8.84239 6.72756 8.90337 6.6391 8.95958C6.41659 9.11081 6.17675 9.23482 5.92472 9.32894C5.92262 9.33125 5.91973 9.3327 5.91662 9.33299C1.60123 10.7826 -0.231674 4.94738 1.91864 2.10828C1.96779 2.03953 2.025 1.97693 2.08905 1.9218V1.91775C2.18694 1.82188 2.29755 1.73992 2.41777 1.67417C4.05495 1.0643 6.60465 2.39982 7.64152 4.28823C8.57498 6.09002 8.13677 7.79064 6.89476 8.77693Z" fill="#8C421C"/>
    <path d="M7.55643 8.07872C7.05647 8.77872 6.3889 9.2014 5.58768 9.43032C1.45899 10.4958 -0.223198 4.72534 2.00395 2.00261C2.07543 1.92633 2.15278 1.85577 2.23528 1.79157C2.2624 1.76765 2.2924 1.7472 2.32458 1.7307C2.32863 1.7266 2.33678 1.72255 2.34099 1.71851C2.35398 1.71332 2.36625 1.7065 2.37752 1.69822C2.39011 1.68863 2.40372 1.68045 2.4181 1.67383V1.68198C2.18507 2.67685 1.46161 7.89748 3.99709 8.67935C4.83851 9.02224 6.5516 8.81027 7.55643 8.07872Z" fill="#733617"/>
    <path d="M3.34735 4.3608C3.39768 4.45514 3.48314 4.52587 3.58524 4.55766C3.68733 4.58945 3.79784 4.57975 3.89283 4.53066C3.98783 4.48157 4.05967 4.39704 4.09279 4.29537C4.12592 4.1937 4.11767 4.08308 4.06982 3.98745C3.89329 3.64795 3.5953 3.07416 3.31776 2.53954C4.04565 2.93772 4.75418 3.47929 5.1901 4.21068C5.24392 4.30433 5.33275 4.37277 5.43703 4.40093C5.54131 4.42909 5.65251 4.41468 5.74616 4.36085C5.83981 4.30703 5.90825 4.2182 5.93641 4.11392C5.96457 4.00964 5.95016 3.89844 5.89633 3.80479C5.20224 2.60746 3.85064 1.85655 3.09163 1.51562C2.60972 1.53684 2.19694 1.7142 1.91864 2.10822C1.78471 2.92 1.64673 4.49073 2.2799 5.75309C2.30389 5.80052 2.33698 5.84277 2.3773 5.87741C2.41761 5.91206 2.46435 5.93842 2.51486 5.955C2.56536 5.97158 2.61863 5.97805 2.67164 5.97404C2.72464 5.97004 2.77633 5.95563 2.82377 5.93164C2.8712 5.90765 2.91345 5.87456 2.9481 5.83425C2.98274 5.79393 3.00911 5.74719 3.02569 5.69669C3.04227 5.64618 3.04874 5.59291 3.04473 5.53991C3.04072 5.4869 3.02631 5.43521 3.00232 5.38777C2.63723 4.62554 2.575 3.77449 2.63433 2.97939L3.34735 4.3608ZM6.57008 5.99661C6.46834 6.03178 6.3845 6.10555 6.33666 6.20198C6.28882 6.29842 6.28081 6.4098 6.31436 6.51209C6.48335 7.04891 6.39902 7.6485 6.23693 8.18323C6.00724 7.73928 5.75666 7.25568 5.61218 6.97464C5.56261 6.87987 5.47762 6.80851 5.37571 6.77608C5.2738 6.74364 5.1632 6.75276 5.06798 6.80144C4.97275 6.85012 4.9006 6.93444 4.86721 7.03604C4.83383 7.13765 4.84191 7.24832 4.8897 7.344C5.03413 7.62291 5.284 8.10678 5.51352 8.55161C4.97616 8.37229 4.43957 8.09125 4.1104 7.64845C4.04612 7.56212 3.95031 7.50471 3.84387 7.48874C3.73743 7.47277 3.62899 7.49953 3.5422 7.56319C2.77914 8.40767 5.23718 9.35891 5.58784 9.43033C6.06502 9.30789 6.51061 9.0851 6.89487 8.77681C7.07775 8.44956 7.67111 5.79908 6.57008 5.99661Z" fill="#663014"/>
    <path d="M2.17441 5.51775C1.66303 4.30418 1.79285 2.87136 1.91869 2.10831C2.02806 1.96782 2.24681 1.73096 2.41793 1.68213C2.41388 1.78363 1.9999 3.69534 2.17441 5.51775ZM7.0288 8.38326C6.9966 8.51527 6.95315 8.64428 6.89892 8.76886C6.89892 8.77291 6.89481 8.77291 6.89481 8.77696C6.84204 8.81759 6.78932 8.85817 6.73655 8.8947C6.65185 8.95638 6.56378 9.01329 6.47274 9.06516C6.45608 9.07744 6.43843 9.0883 6.41996 9.09764C6.15623 9.24 5.87705 9.35167 5.58789 9.43047C5.34032 9.38175 4.55692 9.07331 3.99687 8.67956C4.71956 8.95152 5.97738 8.89448 7.0288 8.38326Z" fill="#4C240F"/>
    <path d="M24.6523 18.3234C24.2505 19.8049 25.3707 20.7709 24.3601 23.4782C23.1769 26.5827 20.8136 27.9839 18.211 27.3259C15.2536 26.4835 12.8964 23.8853 14.2009 20.4097C15.4348 17.118 17.5454 16.6837 18.004 15.7055C18.4627 14.7233 18.0852 13.7978 19.1081 11.6386C20.0377 9.66592 22.2658 8.54165 23.9827 8.89871C26.1921 9.43525 27.5 12.0717 26.7915 14.5364C26.0688 16.8703 25.0541 16.842 24.6523 18.3234Z" fill="#E8A864"/>
    <path d="M24.1003 8.93107C24.0232 8.94748 23.942 8.96761 23.8649 8.99194C22.5985 9.34911 21.3646 10.299 20.7313 11.6383C19.7086 13.7976 20.086 14.723 19.6273 15.7053C19.1687 16.6835 17.058 17.1177 15.8242 20.4094C14.7121 23.3765 16.2666 25.6981 18.5801 26.8468H18.5842C18.9866 27.0414 19.4048 27.2017 19.8343 27.3257C19.9747 27.3619 20.117 27.3904 20.2605 27.411C19.8804 27.4802 19.4931 27.5006 19.1079 27.4717C19.0834 27.471 19.0589 27.4683 19.0348 27.4636H19.0267C18.7514 27.441 18.4785 27.3949 18.211 27.3257C17.4802 27.1205 16.7869 26.7999 16.1573 26.3759C14.2884 25.1181 13.2306 23.0181 14.2009 20.4095C15.4348 17.1178 17.5454 16.6835 18.004 15.7053C18.4627 14.7231 18.0852 13.7977 19.1081 11.6384C20.0635 9.63261 22.3381 8.48236 24.1003 8.93107Z" fill="#E49949"/>
    <path d="M18.211 27.326C18.2245 27.2504 18.2614 27.1808 18.3165 27.1272C18.4992 26.9364 18.6819 26.7456 18.8525 26.5467C18.924 26.4668 19.0241 26.4182 19.1312 26.4114C19.2382 26.4045 19.3437 26.44 19.4248 26.5102C19.7956 26.8535 19.3436 27.2167 19.1041 27.4762L18.211 27.326ZM21.2672 23.734C21.1723 23.6831 21.0612 23.6717 20.958 23.702C20.8547 23.7324 20.7675 23.8022 20.7152 23.8963C20.4597 24.3721 20.1751 24.8316 19.8628 25.2723C19.8319 25.3157 19.8099 25.3648 19.7979 25.4168C19.786 25.4688 19.7844 25.5226 19.7933 25.5752C19.8021 25.6277 19.8213 25.6781 19.8496 25.7233C19.8779 25.7685 19.9148 25.8076 19.9583 25.8385C20.0017 25.8695 20.0508 25.8915 20.1028 25.9035C20.1548 25.9154 20.2086 25.917 20.2612 25.9081C20.3138 25.8992 20.3641 25.8801 20.4093 25.8518C20.4545 25.8235 20.4936 25.7866 20.5245 25.7431C20.8549 25.2758 21.1571 24.7892 21.4297 24.286C21.4802 24.191 21.4915 24.08 21.4612 23.9768C21.4308 23.8736 21.3612 23.7864 21.2672 23.734ZM22.3996 20.6046C22.2958 20.5776 22.1854 20.5927 22.0927 20.6467C21.9999 20.7007 21.9323 20.7892 21.9045 20.8928C21.7686 21.4154 21.6006 21.9292 21.4014 22.4311C21.381 22.4808 21.3708 22.534 21.3711 22.5877C21.3715 22.6413 21.3825 22.6944 21.4035 22.7438C21.4245 22.7932 21.4551 22.8379 21.4935 22.8755C21.5319 22.913 21.5773 22.9425 21.6272 22.9623C21.6771 22.9822 21.7304 22.9919 21.7841 22.9911C21.8378 22.9902 21.8907 22.9787 21.9399 22.9572C21.9891 22.9357 22.0336 22.9047 22.0707 22.866C22.1079 22.8272 22.1369 22.7815 22.1563 22.7314C22.3669 22.199 22.5445 21.6541 22.688 21.0998C22.715 20.9959 22.6999 20.8856 22.6459 20.7928C22.5918 20.7 22.5033 20.6324 22.3996 20.6046ZM22.769 17.2967C22.6615 17.2939 22.5572 17.3338 22.4789 17.4075C22.4006 17.4812 22.3546 17.5829 22.3509 17.6904C22.3385 18.2309 22.2952 18.7703 22.221 19.3058C22.213 19.3587 22.2156 19.4126 22.2287 19.4644C22.2418 19.5162 22.2651 19.5649 22.2972 19.6076C22.3293 19.6503 22.3696 19.6862 22.4158 19.7131C22.462 19.7401 22.513 19.7575 22.566 19.7645C22.6726 19.7793 22.7807 19.7514 22.8666 19.6867C22.9526 19.6221 23.0095 19.526 23.0247 19.4195C23.1036 18.853 23.1496 18.2825 23.1627 17.7107C23.1644 17.6576 23.1555 17.6046 23.1366 17.555C23.1177 17.5053 23.0891 17.4599 23.0524 17.4213C23.0158 17.3828 22.9719 17.352 22.9232 17.3306C22.8746 17.3092 22.8221 17.2976 22.769 17.2967ZM24.3641 14.3621C24.2634 14.3228 24.1513 14.3251 24.0524 14.3685C23.9534 14.4119 23.8757 14.4928 23.8364 14.5935C23.6399 15.093 23.4094 15.5785 23.1465 16.0465C23.1204 16.0929 23.1036 16.144 23.0972 16.1968C23.0909 16.2496 23.0949 16.3032 23.1093 16.3545C23.1236 16.4057 23.1479 16.4536 23.1807 16.4955C23.2135 16.5374 23.2543 16.5724 23.3007 16.5985C23.347 16.6246 23.3981 16.6414 23.4509 16.6478C23.5038 16.6541 23.5573 16.6501 23.6086 16.6357C23.6599 16.6214 23.7078 16.5971 23.7497 16.5643C23.7916 16.5315 23.8265 16.4907 23.8527 16.4443C24.1348 15.9433 24.3829 15.424 24.5955 14.8898C24.6342 14.7891 24.6317 14.6772 24.5883 14.5783C24.545 14.4795 24.4644 14.4018 24.3641 14.3621ZM24.8512 11.0988C24.742 11.1028 24.6386 11.1491 24.5629 11.2278C24.4872 11.3066 24.445 11.4117 24.4454 11.5209C24.4439 12.0388 24.3923 12.5552 24.2912 13.0631C24.2807 13.1153 24.2807 13.1691 24.2911 13.2214C24.3015 13.2736 24.322 13.3233 24.3516 13.3676C24.3812 13.4119 24.4192 13.4499 24.4634 13.4795C24.5077 13.5092 24.5574 13.5298 24.6096 13.5402C24.6619 13.5506 24.7156 13.5506 24.7679 13.5402C24.8201 13.5299 24.8698 13.5093 24.9141 13.4797C24.9584 13.4502 24.9965 13.4122 25.0261 13.3679C25.0557 13.3236 25.0763 13.2739 25.0867 13.2217C25.201 12.6511 25.2581 12.0705 25.2572 11.4885C25.2574 11.4359 25.2469 11.3838 25.2264 11.3353C25.2059 11.2868 25.1757 11.243 25.1378 11.2066C25.0998 11.1701 25.0548 11.1418 25.0055 11.1233C24.9563 11.1048 24.9037 11.0964 24.8512 11.0988ZM24.7578 10.2221C24.4534 10.289 24.2583 10.0193 24.2383 9.74314C24.1896 9.77972 24.149 9.8203 24.1043 9.85683C24.0229 9.92797 23.9166 9.96404 23.8086 9.9572C23.7007 9.95035 23.5998 9.90115 23.528 9.8203C23.2086 9.42748 23.7095 9.12577 23.9826 8.89893C24.3289 8.96627 24.6594 9.09841 24.9567 9.28841C25.0518 9.61287 25.215 10.1128 24.7578 10.2221ZM16.7862 21.9481C16.6824 21.9211 16.572 21.9362 16.4793 21.9902C16.3865 22.0442 16.3189 22.1326 16.2911 22.2363C16.1459 22.7849 16.0347 23.3419 15.9583 23.9042C15.9505 23.957 15.9533 24.0108 15.9665 24.0626C15.9797 24.1143 16.003 24.1628 16.0351 24.2055C16.0672 24.2481 16.1074 24.284 16.1534 24.311C16.1994 24.338 16.2504 24.3556 16.3032 24.3629C16.4103 24.377 16.5186 24.3483 16.6045 24.2829C16.6904 24.2175 16.747 24.1208 16.7619 24.0138C16.8336 23.4856 16.938 22.9624 17.0744 22.4471C17.0885 22.3954 17.0922 22.3414 17.0853 22.2883C17.0784 22.2352 17.061 22.184 17.0342 22.1376C17.0075 22.0912 16.9717 22.0505 16.9292 22.018C16.8866 21.9855 16.838 21.9617 16.7862 21.9481ZM18.1581 18.9486C18.112 18.9215 18.0611 18.9038 18.0081 18.8965C17.9552 18.8892 17.9014 18.8924 17.8497 18.906C17.798 18.9196 17.7495 18.9432 17.707 18.9756C17.6645 19.008 17.6288 19.0485 17.602 19.0948C17.3144 19.5855 17.0608 20.0954 16.8431 20.6209C16.8226 20.6699 16.8119 20.7225 16.8117 20.7757C16.8115 20.8288 16.8218 20.8815 16.842 20.9307C16.8621 20.9798 16.8918 21.0246 16.9293 21.0623C16.9667 21.1 17.0112 21.13 17.0603 21.1505C17.1093 21.171 17.1619 21.1817 17.2151 21.1819C17.2682 21.1821 17.3209 21.1718 17.3701 21.1516C17.4192 21.1315 17.464 21.1018 17.5017 21.0644C17.5394 21.0269 17.5694 20.9824 17.5899 20.9333C17.7953 20.4414 18.034 19.9641 18.3043 19.5046C18.3312 19.4585 18.3489 19.4076 18.3561 19.3547C18.3633 19.3018 18.3601 19.2479 18.3465 19.1963C18.3329 19.1446 18.3093 19.0962 18.277 19.0537C18.2446 19.0112 18.2043 18.9755 18.1581 18.9486ZM19.9643 16.2454C19.8588 16.2229 19.7487 16.2431 19.6581 16.3017C19.5676 16.3603 19.504 16.4525 19.4813 16.558L19.4691 16.6188C19.195 17.0194 18.0907 17.8025 18.633 18.2545C18.6751 18.2871 18.7232 18.3111 18.7745 18.325C18.8259 18.339 18.8795 18.3427 18.9323 18.3359C18.9851 18.3291 19.036 18.312 19.0822 18.2855C19.1283 18.259 19.1688 18.2236 19.2013 18.1815C19.4854 17.8121 19.802 17.4469 20.1348 17.0937C20.346 16.8362 20.3646 16.337 19.9643 16.2454ZM21.0766 13.1364C20.9787 13.0913 20.8668 13.0868 20.7656 13.1241C20.6644 13.1614 20.5821 13.2373 20.5368 13.3352C20.3002 13.8517 20.0942 14.3816 19.9199 14.9223C19.7588 15.4254 20.5276 15.6813 20.691 15.1698C20.8569 14.6611 21.0521 14.1624 21.2754 13.6762C21.3198 13.5781 21.3239 13.4665 21.2867 13.3655C21.2495 13.2645 21.174 13.1822 21.0766 13.1364ZM22.9396 10.4169C22.8991 10.3822 22.8522 10.3558 22.8015 10.3392C22.7508 10.3227 22.6974 10.3163 22.6442 10.3204C22.591 10.3246 22.5392 10.3392 22.4917 10.3634C22.4442 10.3876 22.4019 10.421 22.3673 10.4616C21.9958 10.8957 21.6554 11.3555 21.3486 11.8376C21.2921 11.9288 21.2736 12.0386 21.2971 12.1433C21.3207 12.248 21.3843 12.3393 21.4744 12.3977C21.5192 12.4268 21.5694 12.4466 21.6221 12.4561C21.6747 12.4655 21.7287 12.4643 21.7809 12.4526C21.8331 12.4409 21.8824 12.4189 21.9259 12.3878C21.9695 12.3568 22.0064 12.3174 22.0345 12.2719C22.3206 11.8226 22.6379 11.394 22.9841 10.9892C23.0523 10.9066 23.0858 10.8008 23.0774 10.694C23.0691 10.5873 23.0196 10.4879 22.9394 10.4169H22.9396ZM16.6442 26.4169C16.6478 26.4971 16.6265 26.5765 16.5833 26.6441C16.3205 26.494 16.0683 26.3258 15.8286 26.141C15.8274 25.7849 15.7312 25.2304 16.2426 25.2113C16.8431 25.2671 16.5788 26.0057 16.6442 26.4169Z" fill="#E08A2E"/>
    <path d="M19.3839 27.1799C19.2946 27.2855 19.1891 27.3829 19.1079 27.4722L19.1038 27.4762L19.0349 27.4641H19.0267L18.211 27.326C18.2245 27.2503 18.2614 27.1808 18.3165 27.1271C18.4058 27.0338 18.4952 26.9404 18.5804 26.8471H18.5845C18.8437 26.9747 19.1107 27.0858 19.3839 27.1799ZM24.1003 8.93141C24.0232 8.94782 23.942 8.96794 23.8649 8.99228C23.9054 8.95979 23.946 8.92731 23.9826 8.89893C24.0225 8.90732 24.0618 8.91817 24.1003 8.93141ZM16.6442 26.4169C16.6478 26.4971 16.6265 26.5765 16.5833 26.6441C16.3205 26.494 16.0683 26.3258 15.8286 26.141C15.8274 25.7849 15.7312 25.2304 16.2426 25.2113C16.8431 25.2671 16.5788 26.0057 16.6442 26.4169Z" fill="#D07B1F"/>
    <path d="M19.2494 2.14368C21.5177 4.68118 19.9898 8.55305 17.0554 9.75071C15.3623 10.5677 13.3203 10.126 12.0488 8.66675C11.3505 7.86558 11.4702 6.70746 12.1732 6.07073C12.5153 5.7034 14.6091 5.19393 14.4686 5.22663C15.5746 4.9696 16.2683 2.5785 16.2519 2.61913C16.7532 1.37762 18.361 1.12436 19.2494 2.14368Z" fill="#E8A864"/>
    <path d="M19.1647 8.164C18.6067 8.86289 17.8805 9.40889 17.0541 9.75097C15.3616 10.5668 13.32 10.1244 12.0496 8.66729C11.3515 7.86338 11.4692 6.70685 12.1714 6.06963C12.2404 5.99657 12.3824 5.91536 12.5651 5.83447C12.4134 6.16388 12.3606 6.53027 12.4132 6.88911C12.4658 7.24794 12.6215 7.58377 12.8614 7.85578C14.1319 9.31287 16.1734 9.75529 17.866 8.93946C18.3353 8.74758 18.7732 8.48617 19.1647 8.164Z" fill="#E49949"/>
    <path d="M18.7993 6.67093C18.7388 6.6708 18.6791 6.65718 18.6245 6.63107C18.57 6.60495 18.5219 6.567 18.4839 6.51997C18.4458 6.47295 18.4187 6.41803 18.4046 6.35922C18.3905 6.30041 18.3896 6.23918 18.4021 6.18C18.6003 5.25409 18.4706 4.48906 18.0053 3.84184C17.6978 3.41052 18.3526 2.93758 18.6649 3.36819C19.2626 4.20031 19.4415 5.20356 19.1954 6.35003C19.176 6.44073 19.1261 6.52204 19.054 6.58043C18.9819 6.63882 18.892 6.67076 18.7993 6.67093Z" fill="#ECBE8E"/>
    <path d="M6.42543 26.5497C4.53631 26.2236 3.24153 25.27 2.73403 23.4755C2.62465 23.0965 3.22621 22.8844 3.38639 23.2474C3.87809 24.2318 4.69113 24.6697 5.66265 25.0151C5.83771 25.0767 6.02857 25.0764 6.20346 25.0144C6.37835 24.9524 6.52673 24.8324 6.62389 24.6743C7.18882 23.7511 7.61921 22.8039 7.38985 21.6275C7.89123 21.4636 8.33593 21.161 8.67243 20.7548C8.52226 20.5316 8.35585 20.3083 8.17319 20.0811C7.78354 20.629 7.21129 20.9861 6.27772 20.9821C6.92714 22.0699 6.63899 23.1658 5.93275 24.2579C4.78432 23.8966 3.92359 23.2229 3.81405 21.7251C3.4168 22.1224 2.98543 22.297 2.52632 22.3112C2.51539 22.1842 2.50418 22.0572 2.49898 21.924L1.69775 22.1844L1.6954 22.1837L1.68731 22.1878C1.591 25.6943 3.43315 27.3859 6.93944 27.4886C7.7918 26.9894 8.44526 26.4536 8.90819 25.8773C8.56765 26.1623 8.1693 26.37 7.74066 26.4861C7.31201 26.6022 6.86328 26.6239 6.42543 26.5497Z" fill="#FDAB11"/>
    <path d="M4.89796 19.4437C4.90601 19.5014 4.90166 19.5602 4.88521 19.6161C4.86876 19.672 4.84059 19.7238 4.80257 19.7679C4.76454 19.8121 4.71755 19.8477 4.66471 19.8722C4.61186 19.8968 4.55439 19.9099 4.49612 19.9105C4.03128 19.9135 4.10275 19.339 3.9563 19.046C4.20876 18.9491 4.46784 18.8704 4.73155 18.8105C4.8127 19.014 4.86858 19.2267 4.89796 19.4437Z" fill="#4C240F"/>
    <path d="M8.61177 19.2044C8.1857 20.3651 7.52857 20.9876 6.27793 20.9822C6.92734 22.0699 6.63919 23.1658 5.93296 24.2579C4.78452 23.8967 3.92379 23.2229 3.81425 21.7252C3.00379 22.5357 2.0508 22.4193 1.0177 21.9119C3.04141 19.5271 5.70661 18.8643 8.61177 19.2044Z" fill="#8C421C"/>
    <path d="M6.3459 23.5017C6.23128 23.7656 6.09307 24.0186 5.93296 24.2576C4.78452 23.8963 3.92379 23.2226 3.81425 21.7249C3.00242 22.5366 2.05266 22.4189 1.0177 21.9115C1.22869 21.6686 1.45365 21.4382 1.69145 21.2215C2.62502 21.6193 3.47733 21.6559 4.22009 20.9131C4.32968 22.3905 5.21754 23.1363 6.3459 23.5017Z" fill="#733617"/>
</svg>
