<svg width="33" height="47" viewBox="0 0 33 47" fill="none" xmlns="http://www.w3.org/2000/svg">
    <path fill-rule="evenodd" clip-rule="evenodd" d="M10.4548 0C7.2568 3.95542 3.12121 10.2876 1.14894 16.4297C0.162995 19.5002 -0.304292 22.5897 0.2135 25.337C0.705354 27.9467 2.0818 30.2124 4.64398 31.8148C4.0219 33.923 3.93383 35.7721 4.37141 37.585C4.82843 39.4784 5.84399 41.2675 7.28854 43.2209L5.15332 45.3561L12.1533 46.9715L10.5379 39.9715L8.36158 42.1479C7.0452 40.3421 6.20617 38.7934 5.82954 37.2331C5.47863 35.7793 5.51671 34.2617 6.02222 32.4497C8.18713 33.1672 10.9257 33.428 13.7787 33.3147C16.9943 33.187 20.4246 32.5814 23.4649 31.5573C26.4901 30.5383 29.2055 29.0792 30.914 27.1939C31.7749 26.244 32.3962 25.1676 32.6513 23.9718C32.9079 22.7693 32.7832 21.4962 32.2292 20.1805L32.2134 20.1429L32.1936 20.1073C31.4267 18.7269 29.8572 17.7907 27.9325 17.3657C25.9904 16.937 23.594 17.0027 21.0029 17.7106C15.9476 19.0916 10.1073 22.9254 5.29355 30.4501C3.19642 29.087 2.09583 27.2254 1.68755 25.0592C1.23451 22.6555 1.62972 19.8387 2.57711 16.8883C4.4715 10.9888 8.48591 4.82099 11.6212 0.943083L10.4548 0ZM13.7192 31.8159C11.0421 31.9222 8.57298 31.6795 6.67015 31.0827C11.2859 23.949 16.7829 20.4184 21.3982 19.1575C23.7945 18.5029 25.9418 18.4624 27.6091 18.8305C29.2717 19.1975 30.3702 19.9463 30.863 20.8017C31.2947 21.8456 31.3689 22.7939 31.1844 23.6588C30.9961 24.5411 30.5276 25.3866 29.8025 26.1867C28.3392 27.8014 25.8983 29.1548 22.9861 30.1358C20.0888 31.1117 16.8004 31.6936 13.7192 31.8159Z" fill="black"/>
</svg>
