<svg width="15" height="15" viewBox="0 0 15 15" fill="none" xmlns="http://www.w3.org/2000/svg">
    <path d="M7 2H2.33333C1.97971 2 1.64057 2.14048 1.39052 2.39052C1.14048 2.64057 1 2.97971 1 3.33333V12.6667C1 13.0203 1.14048 13.3594 1.39052 13.6095C1.64057 13.8595 1.97971 14 2.33333 14H11.6667C12.0203 14 12.3594 13.8595 12.6095 13.6095C12.8595 13.3594 13 13.0203 13 12.6667V8" stroke="#111C06" stroke-width="0.8" stroke-linecap="round" stroke-linejoin="round"/>
    <path d="M11.2499 1.75015C11.5151 1.48493 11.8748 1.33594 12.2499 1.33594C12.625 1.33594 12.9847 1.48493 13.2499 1.75015C13.5151 2.01537 13.6641 2.37508 13.6641 2.75015C13.6641 3.12522 13.5151 3.48493 13.2499 3.75015L7.24123 9.75948C7.08293 9.91765 6.88737 10.0334 6.67257 10.0962L4.75723 10.6562C4.69987 10.6729 4.63906 10.6739 4.58117 10.6591C4.52329 10.6442 4.47045 10.6141 4.4282 10.5719C4.38594 10.5296 4.35583 10.4768 4.341 10.4189C4.32617 10.361 4.32717 10.3002 4.3439 10.2428L4.9039 8.32748C4.96692 8.11285 5.08292 7.91752 5.24123 7.75948L11.2499 1.75015Z" stroke="#111C06" stroke-width="0.8" stroke-linecap="round" stroke-linejoin="round"/>
</svg>
