<svg width="28" height="21" viewBox="0 0 28 21" fill="none" xmlns="http://www.w3.org/2000/svg">
    <path fill-rule="evenodd" clip-rule="evenodd" d="M21.0002 9.5C21.0002 5.634 17.8662 2.5 14.0002 2.5C10.1342 2.5 7.00022 5.634 7.00022 9.5C7.00022 9.63261 7.0529 9.75979 7.14667 9.85355C7.24044 9.94732 7.36761 10 7.50022 10H20.5002C20.6328 10 20.76 9.94732 20.8538 9.85355C20.9475 9.75979 21.0002 9.63261 21.0002 9.5ZM8.61622 7C8.93121 6.30395 9.3754 5.67397 9.92522 5.1435L10.6407 5.8595C10.7369 5.95326 10.8659 6.00574 11.0002 6.00574C11.1345 6.00574 11.2635 5.95326 11.3597 5.8595C11.4535 5.76332 11.506 5.63432 11.506 5.5C11.506 5.36568 11.4535 5.23668 11.3597 5.1405L10.7192 4.5005C11.5247 3.956 12.4722 3.607 13.5002 3.521V5.5C13.5002 5.63261 13.5529 5.75979 13.6467 5.85355C13.7404 5.94732 13.8676 6 14.0002 6C14.1328 6 14.26 5.94732 14.3538 5.85355C14.4475 5.75979 14.5002 5.63261 14.5002 5.5V3.521C15.1252 3.57328 15.7204 3.72277 16.272 3.95428C16.6278 4.10359 16.9654 4.28702 17.2812 4.5005L16.6407 5.1405C16.547 5.23668 16.4945 5.36568 16.4945 5.5C16.4945 5.63432 16.547 5.76332 16.6407 5.8595C16.7369 5.95326 16.8659 6.00574 17.0002 6.00574C17.1345 6.00574 17.2635 5.95326 17.3597 5.8595L18.0752 5.1435C18.625 5.67397 19.0692 6.30395 19.3842 7H18.5002C18.3676 7 18.2404 7.05268 18.1467 7.14645C18.0529 7.24021 18.0002 7.36739 18.0002 7.5C18.0002 7.63261 18.0529 7.75979 18.1467 7.85355C18.2404 7.94732 18.3676 8 18.5002 8H19.7362C19.8202 8.32813 19.8772 8.66258 19.9067 9H15.0407L16.3907 7.3125C16.4318 7.26123 16.4623 7.20237 16.4806 7.13928C16.4989 7.0762 16.5046 7.01012 16.4974 6.94484C16.4901 6.87955 16.4701 6.81634 16.4384 6.7588C16.4067 6.70126 16.364 6.65053 16.3127 6.6095C16.2047 6.523 16.0647 6.486 15.9377 6.5C15.8107 6.514 15.6957 6.5795 15.6097 6.6875L14.0002 8.69935L12.3908 6.6875C12.3048 6.5795 12.1898 6.514 12.0628 6.5C11.9358 6.486 11.7958 6.523 11.6878 6.6095C11.6365 6.65053 11.5938 6.70126 11.5621 6.7588C11.5304 6.81634 11.5104 6.87955 11.5031 6.94484C11.4959 7.01012 11.5016 7.0762 11.5199 7.13928C11.5382 7.20237 11.5687 7.26123 11.6098 7.3125L12.9598 9H8.09422C8.12331 8.66256 8.18017 8.32809 8.26422 8H9.50022C9.63283 8 9.76001 7.94732 9.85378 7.85355C9.94755 7.75979 10.0002 7.63261 10.0002 7.5C10.0002 7.36739 9.94755 7.24021 9.85378 7.14645C9.76001 7.05268 9.63283 7 9.50022 7H8.61622Z" fill="#1D1A23"/>
    <path d="M12.0002 16H16.0003C16.1329 16 16.2601 16.0527 16.3538 16.1464C16.4476 16.2402 16.5003 16.3674 16.5003 16.5C16.5003 16.6326 16.4476 16.7598 16.3538 16.8536C16.2601 16.9473 16.1329 17 16.0003 17H12.0002C11.8676 17 11.7404 16.9473 11.6467 16.8536C11.5529 16.7598 11.5002 16.6326 11.5002 16.5C11.5002 16.3674 11.5529 16.2402 11.6467 16.1464C11.7404 16.0527 11.8676 16 12.0002 16Z" fill="#1D1A23"/>
    <path d="M13.0002 14.5H15.0003C15.1329 14.5 15.2601 14.5527 15.3538 14.6464C15.4476 14.7402 15.5003 14.8674 15.5003 15C15.5003 15.1326 15.4476 15.2598 15.3538 15.3536C15.2601 15.4473 15.1329 15.5 15.0003 15.5H13.0002C12.8676 15.5 12.7404 15.4473 12.6467 15.3536C12.5529 15.2598 12.5002 15.1326 12.5002 15C12.5002 14.8674 12.5529 14.7402 12.6467 14.6464C12.7404 14.5527 12.8676 14.5 13.0002 14.5Z" fill="#1D1A23"/>
    <path fill-rule="evenodd" clip-rule="evenodd" d="M10.5002 19C10.3676 19 10.2404 18.9473 10.1467 18.8536C10.0529 18.7598 10.0002 18.6326 10.0002 18.5V13.5C10.0002 13.3674 10.0529 13.2402 10.1467 13.1464C10.2404 13.0527 10.3676 13 10.5002 13H17.5003C17.6329 13 17.76 13.0527 17.8538 13.1464C17.9476 13.2402 18.0003 13.3674 18.0003 13.5V18.5C18.0003 18.6326 17.9476 18.7598 17.8538 18.8536C17.76 18.9473 17.6329 19 17.5003 19H10.5002ZM11.0002 18V14H17.0003V18H11.0002Z" fill="#1D1A23"/>
    <path fill-rule="evenodd" clip-rule="evenodd" d="M24.3597 0.5H3.64072C1.72722 0.5 0.314723 2.0205 0.515723 3.8905L1.95322 17.703C2.15022 19.5345 3.81572 21 5.68772 21H22.3128C24.1848 21 25.8503 19.5345 26.0473 17.703L27.4847 3.8905C27.6857 2.0205 26.2732 0.5 24.3597 0.5ZM3.64072 1.5H24.3597C24.4371 1.5 24.5132 1.50349 24.5879 1.51032C25.7073 1.61271 26.4975 2.46575 26.498 3.55024C26.4981 3.63127 26.4937 3.7136 26.4847 3.797L25.0473 17.6095C24.9053 18.926 23.6788 20 22.3128 20H5.68772C4.32172 20 3.09522 18.926 2.95322 17.6095C2.82642 16.3911 2.68974 15.1725 2.57826 13.953L1.51572 3.797C1.50675 3.7136 1.50239 3.63127 1.50243 3.55024C1.50287 2.39227 2.4019 1.5 3.64072 1.5Z" fill="#1D1A23"/>
</svg>
