<svg width="26" height="24" viewBox="0 0 26 24" fill="none" xmlns="http://www.w3.org/2000/svg">
    <path d="M10.751 13.0829C9.76956 12.5361 8.64087 12.224 7.44224 12.224H6.11821V10.3601L1.38135 13.88L6.11821 17.3999V15.5361H7.44224C8.40846 15.5361 9.28814 15.9326 9.92688 16.5714C10.4539 17.0983 10.816 17.7893 10.9266 18.5575" stroke="black" stroke-width="1.2" stroke-miterlimit="2.6131" stroke-linecap="round" stroke-linejoin="round"/>
    <path d="M10.962 19.6157V8.61553H9.09814L12.6181 3.87866L16.138 8.61553H14.2742V13.1157" stroke="black" stroke-width="1.2" stroke-miterlimit="2.6131" stroke-linecap="round" stroke-linejoin="round"/>
    <path fill-rule="evenodd" clip-rule="evenodd" d="M24.6185 13.9397L19.8816 17.4596V15.5958H17.7945C16.8282 15.5958 15.9486 15.9922 15.3098 16.631C14.671 17.2698 14.2745 18.1495 14.2745 19.1157V20.1212H10.9624L10.9624 19.1157C10.9624 17.2352 11.7305 15.5267 12.968 14.2893C14.2055 13.0518 15.9139 12.2837 17.7945 12.2837H19.8816V10.4197L24.6185 13.9397Z" stroke="black" stroke-width="1.2" stroke-miterlimit="2.6131" stroke-linecap="round" stroke-linejoin="round"/>
</svg>
