<svg width="20" height="20" viewBox="0 0 20 20" fill="none" xmlns="http://www.w3.org/2000/svg">
    <g clip-path="url(#clip0_1_5899)">
        <path d="M12.1016 2.72209L7.50606 10.6817C5.46642 14.2145 8.01598 18.6304 12.0952 18.6304H12.649C16.7282 18.6304 19.2777 14.2145 17.2381 10.6817L12.6426 2.72209C12.5224 2.51386 12.2218 2.51386 12.1016 2.72209Z" fill="#FFE177"/>
        <path d="M17.4896 15.4894C17.0636 16.1157 16.6498 16.6404 16.3081 16.9969C15.5276 17.8114 14.4895 18.3951 13.2834 18.5942C12.9782 18.6447 12.6693 18.6699 12.36 18.6696C12.189 18.6696 12.0207 18.6618 11.8547 18.6473C11.9098 18.6422 11.9648 18.6368 12.0191 18.6301C13.3337 18.4747 14.4629 17.8676 15.2977 16.9969C16.8907 15.3348 17.4111 12.7114 16.1004 10.4414L11.8727 3.11898L12.1015 2.72229C12.2218 2.51379 12.5224 2.51379 12.6427 2.72229L17.2382 10.6819C18.153 12.2663 18.1448 14.028 17.4896 15.4894Z" fill="#FFD15B"/>
        <path d="M7.31328 0.156138L1.54842 10.1411C-0.981301 14.5228 2.18086 19.9998 7.24031 19.9998H7.92714C12.9866 19.9998 16.1488 14.5228 13.619 10.1411L7.8542 0.156138C7.73398 -0.0520461 7.43346 -0.0520461 7.31328 0.156138Z" fill="#FFE177"/>
        <path d="M7.92732 20H7.30573C8.97136 19.8243 10.4016 19.0641 11.4534 17.9662C13.4279 15.9066 14.0725 12.6565 12.4483 9.84298L7.08435 0.551989L7.31315 0.15608C7.43341 -0.0520266 7.73405 -0.0520266 7.85431 0.15608L13.6192 10.1413C16.1489 14.5228 12.9867 20 7.92732 20Z" fill="#FFD15B"/>
    </g>
    <defs>
        <clipPath id="clip0_1_5899">
            <rect width="20" height="20" fill="white"/>
        </clipPath>
    </defs>
</svg>
