<svg width="32" height="32" viewBox="0 0 32 32" fill="none" xmlns="http://www.w3.org/2000/svg">
    <g clip-path="url(#clip0_2_3191)">
        <path d="M19.3627 4.35534L12.0099 17.0908C8.74647 22.7432 12.8258 29.8086 19.3525 29.8086H20.2386C26.7653 29.8086 30.8446 22.7432 27.5812 17.0908L20.2284 4.35534C20.036 4.02218 19.5551 4.02218 19.3627 4.35534Z" fill="#FFE177"/>
        <path d="M27.9836 24.7826C27.302 25.7846 26.6398 26.6242 26.0932 27.1946C24.8444 28.4977 23.1833 29.4316 21.2536 29.7502C20.7653 29.831 20.2711 29.8713 19.7761 29.8708C19.5025 29.8708 19.2333 29.8583 18.9678 29.8352C19.0559 29.8271 19.1439 29.8183 19.2308 29.8077C21.3342 29.5591 23.1408 28.5877 24.4765 27.1946C27.0253 24.5352 27.858 20.3377 25.7609 16.7057L18.9965 4.98988L19.3626 4.35518C19.555 4.02158 20.036 4.02158 20.2284 4.35518L27.5813 17.0905C29.045 19.6256 29.0318 22.4443 27.9836 24.7826Z" fill="#FFD15B"/>
        <path d="M11.7013 0.249821L2.47752 16.2258C-1.57003 23.2364 3.48943 31.9997 11.5845 31.9997H12.6835C20.7786 31.9997 25.8381 23.2364 21.7905 16.2258L12.5668 0.249821C12.3744 -0.0832738 11.8936 -0.0832738 11.7013 0.249821Z" fill="#FFE177"/>
        <path d="M12.6837 32H11.6892C14.3542 31.7188 16.6425 30.5025 18.3255 28.7459C21.4846 25.4505 22.516 20.2504 19.9172 15.7488L11.335 0.883183L11.701 0.249728C11.8935 -0.0832426 12.3745 -0.0832426 12.5669 0.249728L21.7907 16.2261C25.8382 23.2365 20.7787 32 12.6837 32Z" fill="#FFD15B"/>
        <path d="M13 24.6048V30.3952C13 30.724 12.7434 30.9914 12.4242 30.9996C12.4192 31 12.4141 31 12.4091 31H0.590948C0.26466 31 0 30.7292 0 30.3952V24.6048C0 24.2704 0.26466 24 0.590948 24H12.4091C12.7353 24 13 24.2704 13 24.6048Z" fill="#D7AB11"/>
        <path d="M13 24.6048V30.3956C13 30.7244 12.6896 30.9918 12.3037 31H11C11.4063 31 11.7361 30.7209 11.7361 30.3771V24.6229C11.7361 24.2791 11.4063 24 11 24H12.2853C12.6799 24 13 24.2704 13 24.6048Z" fill="#C69A00"/>
        <path d="M7.87711 29.6092L6.59038 26.2337C6.56381 26.1648 6.5167 26.1056 6.45532 26.0638C6.39393 26.0221 6.32118 25.9998 6.24671 26H6.24636C6.17328 25.9999 6.10183 26.0214 6.04116 26.0618C5.9805 26.1021 5.93339 26.1595 5.90586 26.2265C5.90497 26.2287 5.90408 26.2308 5.90327 26.2331L4.60476 29.6084C4.5908 29.6437 4.58405 29.6814 4.58489 29.7193C4.58572 29.7572 4.59414 29.7946 4.60964 29.8292C4.62515 29.8639 4.64744 29.8952 4.67522 29.9212C4.703 29.9473 4.73573 29.9677 4.77151 29.9812C4.80729 29.9947 4.84542 30.001 4.88369 29.9999C4.92196 29.9987 4.95962 29.99 4.99448 29.9743C5.02935 29.9587 5.06074 29.9363 5.08683 29.9086C5.11292 29.8808 5.13321 29.8483 5.14651 29.8127L5.39881 29.1569H7.08502L7.3347 29.8119C7.36187 29.8831 7.41648 29.9407 7.48652 29.972C7.55657 30.0034 7.63632 30.0059 7.70825 29.979C7.74387 29.9657 7.77649 29.9456 7.80425 29.9198C7.83201 29.8941 7.85437 29.8631 7.87006 29.8288C7.88574 29.7944 7.89443 29.7574 7.89564 29.7197C7.89685 29.682 7.89055 29.6445 7.87711 29.6092ZM5.61966 28.5829L6.24582 26.9553L6.86626 28.5829H5.61966ZM3.68118 26.599C3.84127 26.599 3.97106 26.4706 3.97106 26.312C3.97106 26.1535 3.84127 26.0251 3.68118 26.0251H2.28987C2.21299 26.0251 2.13926 26.0553 2.0849 26.1091C2.03054 26.1629 2 26.2359 2 26.312V29.7105C2 29.8691 2.12979 29.9975 2.28987 29.9975C2.44996 29.9975 2.57974 29.8691 2.57974 29.7105V28.2661H3.57064C3.73073 28.2661 3.86052 28.1376 3.86052 27.9791C3.86052 27.8206 3.73073 27.6921 3.57064 27.6921H2.57974V26.599H3.68118ZM10.7101 26H8.80037C8.64028 26 8.5105 26.1285 8.5105 26.287C8.5105 26.4455 8.64028 26.574 8.80037 26.574H9.46151V29.7106C9.46151 29.8691 9.5913 29.9976 9.75138 29.9976C9.91147 29.9976 10.0413 29.8691 10.0413 29.7106V26.574H10.7101C10.8702 26.574 11 26.4455 11 26.287C11 26.1285 10.8702 26 10.7101 26Z" fill="#DFF6FD"/>
    </g>
    <defs>
        <clipPath id="clip0_2_3191">
            <rect width="32" height="32" fill="white"/>
        </clipPath>
    </defs>
</svg>
