<svg width="20" height="20" viewBox="0 0 18 18" fill="none" xmlns="http://www.w3.org/2000/svg">
    <path fill-rule="evenodd" clip-rule="evenodd" d="M8.46967 0.46967C8.76256 0.176777 9.23744 0.176777 9.53033 0.46967L17.5303 8.46967C17.8232 8.76256 17.8232 9.23744 17.5303 9.53033C17.2374 9.82322 16.7626 9.82322 16.4697 9.53033L15.75 8.81066V16C15.75 16.4641 15.5656 16.9092 15.2374 17.2374C14.9092 17.5656 14.4641 17.75 14 17.75H11C10.5858 17.75 10.25 17.4142 10.25 17V14C10.25 13.9337 10.2237 13.8701 10.1768 13.8232C10.1299 13.7763 10.0663 13.75 10 13.75H8C7.93369 13.75 7.87011 13.7763 7.82322 13.8232C7.77634 13.8701 7.75 13.9337 7.75 14V17C7.75 17.4142 7.41421 17.75 7 17.75H4C3.53587 17.75 3.09075 17.5656 2.76256 17.2374C2.43437 16.9092 2.25 16.4641 2.25 16V8.81066L1.53033 9.53033C1.23744 9.82322 0.762563 9.82322 0.46967 9.53033C0.176777 9.23744 0.176777 8.76256 0.46967 8.46967L8.46967 0.46967ZM3.73065 7.33001C3.74331 7.38463 3.75 7.44153 3.75 7.5V16C3.75 16.0663 3.77634 16.1299 3.82322 16.1768C3.87011 16.2237 3.93369 16.25 4 16.25H6.25V14C6.25 13.5359 6.43437 13.0908 6.76256 12.7626C7.09075 12.4344 7.53587 12.25 8 12.25H10C10.4641 12.25 10.9092 12.4344 11.2374 12.7626C11.5656 13.0908 11.75 13.5359 11.75 14V16.25H14C14.0663 16.25 14.1299 16.2237 14.1768 16.1768C14.2237 16.1299 14.25 16.0663 14.25 16V7.5C14.25 7.44153 14.2567 7.38463 14.2693 7.33001L9 2.06066L3.73065 7.33001Z" fill="#999999"/>
</svg>
