<svg width="32" height="32" viewBox="0 0 32 32" fill="none" xmlns="http://www.w3.org/2000/svg">
    <path fill-rule="evenodd" clip-rule="evenodd" d="M22.5002 15.5C26.3662 15.5 29.5002 18.634 29.5002 22.5C29.5002 26.366 26.3662 29.5 22.5002 29.5C18.6342 29.5 15.5002 26.366 15.5002 22.5C15.5002 18.634 18.6342 15.5 22.5002 15.5ZM22.5002 16.5C19.1867 16.5 16.5002 19.1865 16.5002 22.5C16.5002 25.8135 19.1867 28.5 22.5002 28.5C25.8137 28.5 28.5002 25.8135 28.5002 22.5C28.5002 19.1865 25.8137 16.5 22.5002 16.5ZM16.0002 4.5C19.8662 4.5 23.0002 7.634 23.0002 11.5C23.0002 11.6326 22.9475 11.7598 22.8538 11.8536C22.76 11.9473 22.6328 12 22.5002 12H9.50022C9.36762 12 9.24044 11.9473 9.14667 11.8536C9.0529 11.7598 9.00022 11.6326 9.00022 11.5C9.00022 7.634 12.1342 4.5 16.0002 4.5ZM11.9252 7.1435C11.3754 7.67398 10.9312 8.30395 10.6162 9H11.5002C11.6328 9 11.76 9.05268 11.8538 9.14645C11.9475 9.24021 12.0002 9.36739 12.0002 9.5C12.0002 9.63261 11.9475 9.75979 11.8538 9.85355C11.76 9.94732 11.6328 10 11.5002 10H10.2642C10.1802 10.3281 10.1233 10.6626 10.0942 11H15.7597L17.6097 8.6875C17.6957 8.5795 17.8107 8.514 17.9377 8.5C18.0647 8.486 18.2047 8.523 18.3127 8.6095C18.364 8.65053 18.4067 8.70126 18.4384 8.7588C18.4701 8.81634 18.4901 8.87955 18.4974 8.94484C18.5046 9.01012 18.4989 9.0762 18.4806 9.13928C18.4623 9.20237 18.4318 9.26123 18.3907 9.3125L17.0407 11H21.9067C21.8772 10.6626 21.8202 10.3281 21.7362 10H20.5002C20.3676 10 20.2404 9.94732 20.1467 9.85355C20.0529 9.75979 20.0002 9.63261 20.0002 9.5C20.0002 9.36739 20.0529 9.24021 20.1467 9.14645C20.2404 9.05268 20.3676 9 20.5002 9H21.3842C21.0692 8.30395 20.625 7.67398 20.0752 7.1435L19.3597 7.8595C19.2635 7.95326 19.1345 8.00574 19.0002 8.00574C18.8659 8.00574 18.7369 7.95326 18.6407 7.8595C18.547 7.76332 18.4945 7.63432 18.4945 7.5C18.4945 7.36568 18.547 7.23668 18.6407 7.1405L19.2812 6.5005C18.4537 5.94057 17.496 5.60323 16.5002 5.521V7.5C16.5002 7.63261 16.4475 7.75979 16.3538 7.85355C16.26 7.94732 16.1328 8 16.0002 8C15.8676 8 15.7404 7.94732 15.6467 7.85355C15.5529 7.75979 15.5002 7.63261 15.5002 7.5V5.521C14.4722 5.607 13.5247 5.956 12.7192 6.5005L13.3597 7.1405C13.4535 7.23668 13.506 7.36568 13.506 7.5C13.506 7.63432 13.4535 7.76332 13.3597 7.8595C13.2635 7.95326 13.1345 8.00574 13.0002 8.00574C12.8659 8.00574 12.7369 7.95326 12.6407 7.8595L11.9252 7.1435ZM15.0002 16.5H16.0002C16.1328 16.5 16.26 16.5527 16.3538 16.6464C16.4475 16.7402 16.5002 16.8674 16.5002 17C16.5002 17.1326 16.4475 17.2598 16.3538 17.3536C16.26 17.4473 16.1328 17.5 16.0002 17.5H15.0002C14.8676 17.5 14.7404 17.4473 14.6467 17.3536C14.5529 17.2598 14.5002 17.1326 14.5002 17C14.5002 16.8674 14.5529 16.7402 14.6467 16.6464C14.7404 16.5527 14.8676 16.5 15.0002 16.5ZM14.0002 18H15.0002C15.1328 18 15.26 18.0527 15.3538 18.1464C15.4475 18.2402 15.5002 18.3674 15.5002 18.5C15.5002 18.6326 15.4475 18.7598 15.3538 18.8536C15.26 18.9473 15.1328 19 15.0002 19H14.0002C13.8676 19 13.7404 18.9473 13.6467 18.8536C13.5529 18.7598 13.5002 18.6326 13.5002 18.5C13.5002 18.3674 13.5529 18.2402 13.6467 18.1464C13.7404 18.0527 13.8676 18 14.0002 18ZM12.5002 15H17.6877C17.8203 15 17.9475 15.0527 18.0413 15.1464C18.135 15.2402 18.1877 15.3674 18.1877 15.5C18.1877 15.6326 18.135 15.7598 18.0413 15.8536C17.9475 15.9473 17.8203 16 17.6877 16H13.0002V20H14.2657C14.3983 20 14.5255 20.0527 14.6193 20.1464C14.713 20.2402 14.7657 20.3674 14.7657 20.5C14.7657 20.6326 14.713 20.7598 14.6193 20.8536C14.5255 20.9473 14.3983 21 14.2657 21H12.5002C12.3676 21 12.2404 20.9473 12.1467 20.8536C12.0529 20.7598 12.0002 20.6326 12.0002 20.5V15.5C12.0002 15.3674 12.0529 15.2402 12.1467 15.1464C12.2404 15.0527 12.3676 15 12.5002 15ZM5.64072 2.5H26.3597C28.2732 2.5 29.6857 4.0205 29.4847 5.8905L28.4222 16.047C28.3932 16.3215 28.1497 16.529 27.8752 16.5C27.7428 16.4872 27.6207 16.4225 27.5358 16.32C27.451 16.2175 27.4101 16.0855 27.4222 15.953L28.4847 5.797C28.6217 4.523 27.6852 3.5 26.3597 3.5H5.64072C4.31522 3.5 3.37872 4.5215 3.51572 5.797L4.95322 19.6095C5.09522 20.926 6.32172 22 7.68772 22H14.0002C14.1328 22 14.26 22.0527 14.3538 22.1464C14.4475 22.2402 14.5002 22.3674 14.5002 22.5C14.5002 22.6326 14.4475 22.7598 14.3538 22.8536C14.26 22.9473 14.1328 23 14.0002 23H7.68772C5.81572 23 4.15022 21.5345 3.95322 19.703L2.51572 5.8905C2.31422 4.019 3.72722 2.5 5.64072 2.5Z" fill="#1D1A23"/>
    <path fill-rule="evenodd" clip-rule="evenodd" d="M22.8281 26.8796C22.7364 26.9573 22.6202 27 22.5001 27C22.3799 27 22.2637 26.9573 22.1721 26.8796L18.6721 23.8796C18.3196 23.5776 18.5361 23.0046 19.0001 23.0046L20.0001 23.0046L20.0001 18.5046C20.0001 18.372 20.0527 18.2448 20.1465 18.1511C20.2403 18.0573 20.3675 18.0046 20.5001 18.0046L24.5001 18.0046C24.6327 18.0046 24.7598 18.0573 24.8536 18.1511C24.9474 18.2448 25.0001 18.372 25.0001 18.5046L25.0001 23.0046L26.0001 23.0046C26.4641 23.0046 26.6806 23.5776 26.3281 23.8796L22.8281 26.8796ZM24.6561 24.0046L22.5001 25.8481L20.3436 24.0046L20.5001 24.0046C20.6327 24.0046 20.7598 23.9519 20.8536 23.8582C20.9474 23.7644 21.0001 23.6372 21.0001 23.5046L21.0001 19.0046L24.0001 19.0046L24.0001 23.5046C24.0001 23.6372 24.0527 23.7644 24.1465 23.8582C24.2403 23.9519 24.3675 24.0046 24.5001 24.0046L24.6561 24.0046Z" fill="#1D1A23"/>
</svg>
