<svg width="28" height="29" viewBox="0 0 28 29" fill="none" xmlns="http://www.w3.org/2000/svg">
    <g clip-path="url(#clip0_2_1981)">
        <path d="M5.70435 17.8245L5.79562 17.9009L5.7942 17.7819L5.79381 17.7732C5.79365 17.0836 6.35168 16.5255 7.03763 16.5255C7.16341 16.5255 7.2876 16.5443 7.40682 16.5813L7.51746 16.6156L7.4736 16.5084C7.41231 16.3591 7.38082 16.1993 7.3809 16.038C7.3809 15.6544 7.55552 15.3109 7.82928 15.0826C7.45675 14.7686 6.97594 14.5791 6.45067 14.5791C5.26832 14.5791 4.30981 15.5376 4.30981 16.72C4.30981 16.9352 4.34192 17.1429 4.40103 17.3388C4.87822 17.3469 5.33821 17.5183 5.70435 17.8245Z" fill="#FD4755"/>
        <path d="M5.70199 17.7525C5.52741 17.4364 5.43608 17.0811 5.4366 16.72C5.4366 15.7327 6.10515 14.9019 7.01406 14.6546C6.83045 14.6045 6.64098 14.5791 6.45067 14.5791C5.26832 14.5791 4.30981 15.5376 4.30981 16.72C4.30981 16.9152 4.33645 17.1041 4.38539 17.2838C4.88349 17.2881 5.3404 17.4631 5.70199 17.7525Z" fill="#FB2B3A"/>
        <path d="M4.92614 20.5606C4.7859 20.3546 4.71104 20.111 4.71133 19.8618C4.71133 19.1758 5.26941 18.6177 5.95536 18.6177C5.96646 18.6177 5.97734 18.6185 5.98828 18.6193L6.01098 18.6206L6.12932 18.6259L6.05653 18.5324C5.89905 18.3314 5.80805 18.0863 5.79616 17.8312C5.41707 17.4906 4.91591 17.2832 4.36619 17.2832C3.18385 17.2832 2.22534 18.2417 2.22534 19.4241C2.22484 19.8262 2.33818 20.2202 2.55227 20.5606H4.92614Z" fill="#FDB441"/>
        <path d="M3.58597 20.5059C3.48239 20.251 3.42917 19.9784 3.42923 19.7032C3.42923 18.5675 4.31375 17.6388 5.43145 17.5674C5.10745 17.3808 4.74006 17.2828 4.36619 17.2832C3.18385 17.2832 2.22534 18.2417 2.22534 19.4241C2.22491 19.8045 2.32633 20.178 2.51907 20.506H3.58597V20.5059Z" fill="#FE9901"/>
        <path d="M18.4288 14.5479C18.491 14.6951 18.524 14.8529 18.5259 15.0127L18.5272 15.1226L18.6141 15.0552C18.8346 14.8842 19.0977 14.7938 19.375 14.7938C20.0609 14.7938 20.619 15.3519 20.619 16.0378C20.619 16.1766 20.5946 16.3124 20.5492 16.4433C20.5961 16.387 20.6525 16.3394 20.7158 16.3026C20.8126 16.2468 20.9233 16.2184 21.0449 16.2184C21.2202 16.2184 21.4167 16.2782 21.6133 16.3915L21.6849 16.4328L21.6949 16.3507C21.7936 15.5412 22.2175 14.9536 22.7029 14.9536C23.0525 14.9536 23.3757 15.2547 23.5677 15.759L23.6014 15.8478L23.6612 15.774C23.7102 15.7135 23.7622 15.6556 23.8172 15.6005C24.0696 15.348 24.3682 15.1672 24.6767 15.0728C24.6764 15.0136 24.6685 14.9547 24.6533 14.8975C24.5707 14.5895 24.2832 14.3685 23.8881 14.2617C24.42 13.5804 24.5542 12.8021 24.1681 12.416C23.8839 12.1318 23.387 12.1299 22.8728 12.3608C22.8815 12.2781 22.8865 12.194 22.8865 12.1083C22.8865 11.0779 22.2359 10.2427 21.4334 10.2427C20.6309 10.2427 19.9804 11.0779 19.9804 12.1083C19.9804 12.1927 19.9852 12.2756 19.9936 12.3571C19.4795 12.1264 18.9828 12.1284 18.6987 12.4125C18.3121 12.7991 18.4472 13.5791 18.9811 14.2611C18.7562 14.3215 18.5664 14.4188 18.4288 14.5479Z" fill="#68CA44"/>
        <path d="M21.6407 16.3444C21.6741 16.0704 21.7448 15.8191 21.8435 15.6054V12.6108C21.8435 12.3843 21.6599 12.2007 21.4333 12.2007C21.2068 12.2007 21.0232 12.3843 21.0232 12.6108V16.1644C21.2174 16.1593 21.4299 16.2229 21.6407 16.3444Z" fill="#80D261"/>
        <path d="M20.5263 16.5081L20.4824 16.6154L20.5931 16.5811C20.7127 16.544 20.8371 16.5252 20.9623 16.5253C21.6482 16.5253 22.2063 17.0834 22.2063 17.7693C22.2063 18.0476 22.1154 18.3114 21.9433 18.5323L21.8706 18.6258L21.9889 18.6205L22.0116 18.6192C22.0225 18.6184 22.0334 18.6176 22.0445 18.6176C22.7305 18.6176 23.2885 19.1757 23.2885 19.8617C23.2885 20.1198 23.2096 20.3605 23.0737 20.5605H25.0871C25.2006 20.305 25.1488 19.9869 24.9682 19.6724C25.7909 19.5712 26.4098 19.1343 26.4098 18.6106C26.4098 18.2251 26.0741 17.8868 25.5688 17.6947C25.6317 17.6439 25.692 17.5898 25.7493 17.5327C26.4481 16.8339 26.5734 15.8263 26.0291 15.282C25.4849 14.7378 24.4772 14.863 23.7784 15.5618C23.7221 15.6183 23.6688 15.6776 23.6186 15.7396C23.4265 15.2345 23.0883 14.8989 22.7028 14.8989C22.1784 14.8989 21.7411 15.5195 21.6406 16.3441C21.2995 16.1476 20.9539 16.102 20.6885 16.2552C20.6501 16.2774 20.6149 16.3034 20.5821 16.3323C20.5679 16.3922 20.5492 16.451 20.5263 16.5081Z" fill="#017B4E"/>
        <path d="M24.7013 16.6099C24.6648 16.5733 24.6214 16.5443 24.5737 16.5246C24.5259 16.5048 24.4748 16.4946 24.4231 16.4946C24.3714 16.4946 24.3203 16.5048 24.2725 16.5246C24.2248 16.5443 24.1814 16.5733 24.1449 16.6099L22.1841 18.5707C22.4693 18.6013 22.7362 18.7258 22.9429 18.9246L24.7013 17.1662C24.7751 17.0924 24.8165 16.9924 24.8165 16.888C24.8165 16.7837 24.7751 16.6836 24.7013 16.6099Z" fill="#026841"/>
        <path d="M21.4971 4.02183C21.6225 4.23003 21.6585 4.42362 21.5976 4.58648C21.4918 4.86911 21.1013 5.03114 20.5262 5.03114C20.0573 5.03114 19.5019 4.91996 18.9622 4.71806C18.3495 4.48886 17.8138 4.1679 17.454 3.81446C17.105 3.47173 16.9652 3.14311 17.0603 2.88909C17.1382 2.68062 17.3716 2.53805 17.7192 2.4774C15.635 2.05401 13.8952 2.39296 13.5128 3.41529C13.0319 4.70061 14.8788 6.5794 17.6378 7.61157C20.3968 8.64375 23.0233 8.43856 23.5042 7.15318C23.8469 6.237 23.0069 5.0195 21.4971 4.02183Z" fill="#FFF3DE"/>
        <path d="M15.4818 3.72842C15.6883 3.1763 16.2914 2.82422 17.1303 2.68335C17.2352 2.57736 17.39 2.49987 17.5818 2.45109C15.559 2.06997 13.8867 2.41532 13.5128 3.41501C13.0319 4.70033 14.8788 6.57912 17.6378 7.61129C18.7047 8.0104 19.751 8.22368 20.6618 8.26191C20.3048 8.1668 19.9527 8.05426 19.6068 7.92471C16.8478 6.89253 15.0009 5.0138 15.4818 3.72842Z" fill="#FEF0AE"/>
        <path d="M21.6428 4.59599C21.8558 4.02624 20.9896 3.17618 19.7081 2.69734C18.4267 2.21849 17.2154 2.29218 17.0024 2.86193C16.7895 3.43168 17.6557 4.28174 18.9371 4.76058C20.2186 5.23943 21.4299 5.16573 21.6428 4.59599Z" fill="#FDB441"/>
        <path d="M20.2318 5.05037C18.9506 4.57104 18.0847 3.72065 18.2979 3.15097C18.4309 2.79544 18.9526 2.63335 19.6375 2.67808C18.3852 2.23019 17.2178 2.3114 17.009 2.86965C16.7959 3.43933 17.6618 4.28972 18.943 4.76906C19.4247 4.94926 19.8965 5.0513 20.3092 5.07832C20.2834 5.06908 20.2576 5.06 20.2318 5.05037Z" fill="#FE9901"/>
        <path d="M23.1376 20.5608C23.272 20.3525 23.3434 20.1099 23.3434 19.862C23.3434 19.1447 22.7619 18.5633 22.0447 18.5633C22.0251 18.5633 22.006 18.5654 21.9867 18.5663C22.1581 18.3462 22.2611 18.0702 22.2611 17.7697C22.2611 17.0525 21.6797 16.471 20.9625 16.471C20.8283 16.471 20.6989 16.4914 20.5771 16.5292C20.641 16.3734 20.6739 16.2066 20.6739 16.0382C20.6739 15.3209 20.0925 14.7395 19.3752 14.7395C19.0756 14.7395 18.8005 14.842 18.5808 15.0124C18.5723 14.3025 17.9949 13.7294 17.2829 13.7294C16.8981 13.7294 16.5535 13.8978 16.3157 14.1636C16.1189 13.6966 15.657 13.3687 15.1184 13.3687C14.6416 13.3687 14.226 13.6264 14.0001 14.0094C13.7743 13.6264 13.3586 13.3687 12.8818 13.3687C12.3432 13.3687 11.8813 13.6966 11.6845 14.1636C11.4467 13.8977 11.1021 13.7294 10.7173 13.7294C10.0054 13.7294 9.42796 14.3025 9.41943 15.0124C9.1997 14.842 8.92462 14.7395 8.62499 14.7395C7.90776 14.7395 7.32632 15.3209 7.32632 16.0382C7.32632 16.2121 7.3611 16.3777 7.42312 16.5292C7.29832 16.4905 7.16839 16.4709 7.03773 16.471C6.32051 16.471 5.73907 17.0525 5.73907 17.7697C5.73907 18.0702 5.84216 18.3462 6.01355 18.5663C5.99419 18.5654 5.9751 18.5633 5.95552 18.5633C5.2383 18.5633 4.65686 19.1447 4.65686 19.862C4.65686 20.1198 4.73299 20.3591 4.86265 20.5608H23.1376Z" fill="#EA9B58"/>
        <path d="M19.3751 14.739C19.0755 14.739 18.8004 14.8415 18.5807 15.0119C18.5721 14.302 17.9947 13.7289 17.2828 13.7289C16.898 13.7289 16.5534 13.8973 16.3156 14.1631C16.1188 13.6961 15.6569 13.3682 15.1183 13.3682C14.6415 13.3682 14.2258 13.6259 14 14.0089C13.7741 13.626 13.3585 13.3682 12.8817 13.3682C12.3431 13.3682 11.8812 13.6961 11.6844 14.1631C11.4466 13.8972 11.102 13.7289 10.7172 13.7289C10.0053 13.7289 9.42784 14.302 9.41931 15.0119C9.19957 14.8415 8.9245 14.739 8.62486 14.739C7.90764 14.739 7.3262 15.3205 7.3262 16.0377C7.3262 16.2116 7.36098 16.3772 7.423 16.5287C7.29819 16.49 7.16827 16.4704 7.03761 16.4705C6.32039 16.4705 5.73895 17.052 5.73895 17.7692C5.73895 18.0698 5.84204 18.3457 6.01343 18.5658C5.99407 18.5649 5.97498 18.5628 5.9554 18.5628C5.23818 18.5628 4.65674 19.1443 4.65674 19.8615C4.65674 20.0963 4.71968 20.3159 4.82868 20.5056H6.63845C6.85293 19.3093 7.52012 18.2184 8.50827 17.3292C8.4976 17.2924 8.49215 17.2543 8.49208 17.216C8.49208 16.5114 9.06526 15.9383 9.7698 15.9383C9.98029 15.9383 10.1825 15.9893 10.3625 16.0837C11.7314 15.4036 13.3803 15.0066 15.1549 15.0066C17.2249 15.0066 19.1238 15.5467 20.6071 16.4462C20.6511 16.3145 20.6736 16.1765 20.6737 16.0375C20.6738 15.3205 20.0923 14.739 19.3751 14.739Z" fill="#D88A55"/>
        <path d="M8.90222 17.6267C8.79344 17.6267 8.68912 17.5835 8.6122 17.5066C8.53528 17.4297 8.49207 17.3253 8.49207 17.2166C8.49207 16.512 9.06524 15.9388 9.76978 15.9388C10.1657 15.9388 10.5327 16.1179 10.7768 16.43C10.8438 16.5157 10.874 16.6245 10.8608 16.7325C10.8476 16.8405 10.7921 16.9388 10.7064 17.0058C10.6639 17.039 10.6154 17.0635 10.5635 17.0779C10.5116 17.0923 10.4574 17.0963 10.4039 17.0898C10.3504 17.0832 10.2988 17.0662 10.2519 17.0397C10.205 17.0132 10.1638 16.9777 10.1306 16.9353C10.0879 16.8803 10.0332 16.8358 9.97066 16.8053C9.90811 16.7748 9.83939 16.759 9.76978 16.7591C9.51757 16.7591 9.31238 16.9643 9.31238 17.2166C9.31238 17.3253 9.26916 17.4297 9.19225 17.5066C9.11533 17.5835 9.011 17.6267 8.90222 17.6267ZM14.6582 16.9593C14.5494 16.9593 14.4451 16.9161 14.3682 16.8392C14.2912 16.7623 14.248 16.6579 14.248 16.5491C14.248 16.2969 14.0428 16.0917 13.7906 16.0917C13.721 16.0916 13.6523 16.1074 13.5897 16.1379C13.5272 16.1684 13.4725 16.2129 13.4299 16.2679C13.3967 16.3103 13.3555 16.3458 13.3086 16.3723C13.2617 16.3988 13.2101 16.4159 13.1566 16.4224C13.1031 16.429 13.0489 16.4249 12.997 16.4105C12.9451 16.3961 12.8965 16.3716 12.8541 16.3384C12.8117 16.3053 12.7762 16.2641 12.7497 16.2172C12.7232 16.1703 12.7061 16.1186 12.6996 16.0652C12.693 16.0117 12.6971 15.9575 12.7115 15.9056C12.7259 15.8537 12.7504 15.8051 12.7836 15.7627C13.0276 15.4505 13.3947 15.2715 13.7906 15.2715C14.4952 15.2715 15.0683 15.8447 15.0683 16.5492C15.0683 16.658 15.0251 16.7623 14.9482 16.8392C14.8713 16.9161 14.767 16.9593 14.6582 16.9593ZM17.4573 18.0317C17.3926 18.0317 17.3287 18.0164 17.271 17.987C17.2133 17.9576 17.1634 17.915 17.1253 17.8626C17.0873 17.8102 17.0622 17.7495 17.052 17.6856C17.0419 17.6216 17.0471 17.5562 17.0672 17.4946C17.1897 17.1178 17.4733 16.824 17.8453 16.6885C18.166 16.5716 18.513 16.5868 18.8224 16.731C19.1317 16.8752 19.3664 17.1312 19.4832 17.452C19.5204 17.5542 19.5154 17.667 19.4695 17.7656C19.4235 17.8642 19.3403 17.9405 19.238 17.9777C19.1874 17.9961 19.1337 18.0044 19.0799 18.0021C19.0261 17.9998 18.9732 17.9868 18.9244 17.9641C18.8756 17.9413 18.8317 17.9092 18.7953 17.8694C18.7589 17.8297 18.7307 17.7832 18.7123 17.7326C18.6919 17.6761 18.6605 17.6242 18.6199 17.5799C18.5793 17.5356 18.5303 17.4998 18.4758 17.4745C18.4214 17.449 18.3625 17.4345 18.3025 17.4318C18.2424 17.4292 18.1824 17.4385 18.126 17.4593C18.0606 17.4829 18.0014 17.5213 17.9531 17.5714C17.9048 17.6215 17.8686 17.682 17.8473 17.7482C17.8205 17.8306 17.7684 17.9023 17.6983 17.9533C17.6283 18.0042 17.5439 18.0317 17.4573 18.0317ZM11.5775 19.3642C11.5128 19.3643 11.4489 19.349 11.3912 19.3196C11.3335 19.2902 11.2836 19.2475 11.2455 19.1951C11.2075 19.1427 11.1824 19.0821 11.1723 19.0181C11.1622 18.9541 11.1673 18.8887 11.1874 18.8271C11.3099 18.4502 11.5936 18.1565 11.9655 18.021C12.1231 17.9632 12.2906 17.9371 12.4583 17.9444C12.626 17.9517 12.7906 17.9922 12.9426 18.0636C13.0949 18.1341 13.2318 18.2341 13.3452 18.3579C13.4586 18.4816 13.5464 18.6266 13.6034 18.7846C13.6401 18.8866 13.6348 18.9991 13.5888 19.0974C13.5427 19.1956 13.4596 19.2716 13.3577 19.3087C13.2557 19.3458 13.1433 19.341 13.0448 19.2954C12.9464 19.2497 12.8701 19.1669 12.8326 19.0652C12.8122 19.0086 12.7807 18.9567 12.7401 18.9124C12.6995 18.8681 12.6506 18.8323 12.596 18.8071C12.5416 18.7815 12.4827 18.767 12.4227 18.7644C12.3626 18.7618 12.3027 18.7711 12.2463 18.7918C12.1808 18.8155 12.1216 18.8538 12.0733 18.9039C12.025 18.954 11.9888 19.0145 11.9676 19.0808C11.9408 19.1631 11.8886 19.2349 11.8185 19.2858C11.7485 19.3367 11.6641 19.3642 11.5775 19.3642Z" fill="#C57A44"/>
        <path d="M3.11316 22.3096C4.25197 24.1404 6.09811 25.6429 8.36737 26.5906C8.54047 26.663 8.72622 26.7004 8.91386 26.7005H19.0861C19.2737 26.7005 19.4595 26.6629 19.6326 26.5906C21.9019 25.6429 23.748 24.1404 24.8868 22.3096H3.11316Z" fill="#D8ECFE"/>
        <path d="M6.50444 22.3096H3.11316C4.25192 24.1404 6.09806 25.6429 8.36737 26.5906C8.54047 26.663 8.72622 26.7004 8.91386 26.7005H12.3051C12.1175 26.7004 11.9318 26.663 11.7587 26.5906C9.48934 25.6428 7.6432 24.1404 6.50444 22.3096Z" fill="#C4E2FF"/>
        <path d="M27.1549 22.3643H0.845086C0.378328 22.3643 0 21.9859 0 21.5192V21.3509C0 20.8842 0.378328 20.5059 0.845086 20.5059H27.155C27.6217 20.5059 28.0001 20.8842 28.0001 21.3509V21.5192C28 21.9859 27.6217 22.3643 27.1549 22.3643Z" fill="#EAF6FF"/>
        <path d="M2.39438 21.5192V21.3509C2.39438 20.8842 2.77271 20.5059 3.23947 20.5059H0.845086C0.378328 20.5059 0 20.8842 0 21.3509V21.5192C0 21.9859 0.378328 22.3643 0.845086 22.3643H3.23947C2.77271 22.3643 2.39438 21.9859 2.39438 21.5192Z" fill="#D8ECFE"/>
        <path d="M5.76275 11.4358C6.34107 12.0141 7.23412 12.0859 7.89059 11.6511C8.03923 11.5526 8.06045 11.3425 7.93439 11.2164L5.98216 9.26419C5.8561 9.13813 5.646 9.15935 5.5475 9.30799C5.11268 9.96446 5.18443 10.8575 5.76275 11.4358Z" fill="#FE9901"/>
        <path d="M11.1706 7.55591C11.308 7.5191 11.3991 7.38517 11.3767 7.24468C11.3099 6.82638 11.1155 6.42459 10.7931 6.10215C10.4706 5.77971 10.0689 5.58535 9.65055 5.51853C9.51006 5.4961 9.37613 5.58721 9.33933 5.72464L8.79529 7.75492C8.73919 7.96437 8.93081 8.15605 9.14032 8.09994L11.1706 7.55591Z" fill="#FB2B3A"/>
        <path d="M5.42127 3.24564C5.38446 3.10821 5.25053 3.0171 5.11004 3.03952C4.69173 3.1063 4.28994 3.30071 3.96751 3.62315C3.64507 3.94558 3.45071 4.34737 3.38388 4.76568C3.36146 4.90617 3.45257 5.0401 3.59 5.0769L5.62027 5.62094C5.82973 5.67705 6.02141 5.48542 5.9653 5.27591L5.42127 3.24564Z" fill="#68CA44"/>
    </g>
    <defs>
        <clipPath id="clip0_2_1981">
            <rect width="28" height="28" fill="white" transform="translate(0 0.5)"/>
        </clipPath>
    </defs>
</svg>
