<svg width="25" height="25" viewBox="0 0 25 25" fill="none" xmlns="http://www.w3.org/2000/svg">
    <path fill-rule="evenodd" clip-rule="evenodd" d="M13.8955 3.39258C14.3335 3.83147 14.5834 4.45283 14.5834 5.19076C14.5834 5.86453 14.2994 6.4494 13.9851 6.89499C17.9833 7.6066 21.0999 10.8556 21.5782 14.9119C21.6267 15.3233 21.3326 15.6961 20.9212 15.7446C20.5098 15.7931 20.137 15.499 20.0885 15.0876C19.635 11.2419 16.3388 8.24976 12.3334 8.24976C8.32797 8.24976 5.03172 11.2419 4.57821 15.0876C4.5297 15.499 4.1569 15.7931 3.74554 15.7446C3.33418 15.6961 3.04002 15.3233 3.08854 14.9119C3.56688 10.8556 6.68349 7.6066 10.6816 6.89499C10.3673 6.4494 10.0834 5.86453 10.0834 5.19076C10.0834 4.45283 10.3333 3.83147 10.7712 3.39258C11.2022 2.96065 11.7723 2.74951 12.3334 2.74951C12.8944 2.74951 13.4646 2.96065 13.8955 3.39258ZM12.3334 6.52149C12.3958 6.46099 12.4607 6.39436 12.5252 6.32247C12.8621 5.94702 13.0834 5.54637 13.0834 5.19076C13.0834 4.80119 12.9583 4.57693 12.8337 4.45207C12.7022 4.32025 12.5223 4.24951 12.3334 4.24951C12.1444 4.24951 11.9646 4.32025 11.833 4.45207C11.7085 4.57693 11.5834 4.80119 11.5834 5.19076C11.5834 5.54637 11.8046 5.94702 12.1416 6.32247C12.2061 6.39436 12.271 6.46099 12.3334 6.52149ZM3.31769 16.7498H2.33337C1.91916 16.7498 1.58337 17.0855 1.58337 17.4998C1.58337 17.914 1.91916 18.2498 2.33337 18.2498H2.74773L3.22675 20.1666C3.37546 20.7615 3.71877 21.2897 4.20209 21.6672C4.68541 22.0446 5.28102 22.2497 5.89426 22.2498H18.7714C19.3846 22.2497 19.9803 22.0446 20.4637 21.6672C20.947 21.2897 21.2903 20.7616 21.439 20.1666L21.9188 18.2498H22.3334C22.7476 18.2498 23.0834 17.914 23.0834 17.4998C23.0834 17.0855 22.7476 16.7498 22.3334 16.7498H21.3491C21.3382 16.7495 21.3274 16.7495 21.3165 16.7498H3.35019C3.33939 16.7495 3.32855 16.7495 3.31769 16.7498ZM20.3725 18.2498H4.29386L4.68199 19.8029C4.68199 19.8029 4.68198 19.8029 4.68199 19.8029C4.74959 20.0733 4.90564 20.3134 5.12532 20.4849C5.34498 20.6565 5.61567 20.7497 5.89437 20.7498M20.3725 18.2498L19.9838 19.8027C19.9162 20.0731 19.7601 20.3134 19.5404 20.4849C19.3208 20.6565 19.0501 20.7497 18.7714 20.7498C18.7714 20.7498 18.7713 20.7498 18.7714 20.7498H5.89437" fill="#999999"/>
</svg>
