<svg width="30" height="30" viewBox="0 0 30 30" fill="none" xmlns="http://www.w3.org/2000/svg">
    <path d="M26.0348 12.6208L25.1068 12.9209V12.9248C24.9252 12.9841 24.8146 13.1657 24.8383 13.3553C24.8936 13.7818 24.9212 14.2162 24.9212 14.6584C24.9212 15.1007 24.8936 15.5351 24.8383 15.9616C24.8146 16.1512 24.9252 16.3328 25.1068 16.3921L26.0348 16.6922C26.2402 16.7593 26.3547 16.9805 26.2876 17.1898L25.557 19.4446C25.4899 19.65 25.2687 19.7645 25.0594 19.6974L24.1314 19.3972C23.9498 19.338 23.7523 19.4209 23.6615 19.5868C23.239 20.3568 22.7216 21.0677 22.1253 21.6995C21.995 21.8417 21.9792 22.051 22.0898 22.205L22.6624 22.9948C22.7927 23.1725 22.7532 23.4213 22.5755 23.5476L20.6603 24.9416C20.4826 25.072 20.2338 25.0325 20.1074 24.8548L19.5348 24.065C19.4242 23.907 19.2189 23.8596 19.0451 23.9425C18.2632 24.3137 17.4339 24.5862 16.5612 24.7521C16.3716 24.7876 16.2334 24.9495 16.2334 25.1391V26.1145C16.2334 26.3317 16.0557 26.5094 15.8385 26.5094H13.4691C13.2519 26.5094 13.0742 26.3317 13.0742 26.1145V25.1391C13.0742 24.9456 12.936 24.7876 12.7465 24.7521C11.8737 24.5862 11.0405 24.3137 10.2625 23.9425C10.0927 23.8636 9.88344 23.9109 9.77287 24.065L9.20026 24.8548C9.06994 25.0325 8.82511 25.068 8.6474 24.9416L6.73214 23.5476C6.55443 23.4173 6.51889 23.1725 6.64526 22.9948L7.21786 22.205C7.33239 22.047 7.31264 21.8377 7.18232 21.6995C6.58208 21.0677 6.06871 20.3568 5.64616 19.5868C5.55139 19.4209 5.35789 19.338 5.17623 19.3972L4.24822 19.6974C4.03892 19.7645 3.81778 19.6539 3.75064 19.4446L3.02008 17.1898C2.95295 16.9805 3.06352 16.7593 3.27281 16.6922L4.20083 16.3921C4.38248 16.3328 4.49305 16.1512 4.46936 15.9616C4.41407 15.5351 4.38643 15.1007 4.38643 14.6584C4.38643 14.2162 4.41407 13.7818 4.46936 13.3553C4.49305 13.1657 4.38248 12.9841 4.20083 12.9248L3.27281 12.6247C3.06747 12.5576 2.95295 12.3364 3.02008 12.1271L3.75064 9.87225C3.81778 9.66691 4.03892 9.55239 4.24822 9.61952L5.17623 9.91964C5.35789 9.97888 5.55534 9.89595 5.64616 9.73009C6.06643 8.96348 6.58264 8.25353 7.18232 7.61738C7.31264 7.47521 7.32844 7.26592 7.21786 7.1119L6.64526 6.3221C6.51494 6.1444 6.55443 5.89561 6.73214 5.76924L8.6474 4.37525C8.68927 4.34429 8.73688 4.32196 8.78745 4.30956C8.83803 4.29716 8.89057 4.29494 8.94201 4.30302C8.99345 4.31111 9.04277 4.32934 9.08711 4.35665C9.13144 4.38396 9.1699 4.41982 9.20026 4.46213L9.77287 5.25193C9.88344 5.40989 10.0888 5.45727 10.2625 5.37434C11.0444 5.00314 11.8737 4.73066 12.7465 4.5648C12.936 4.52926 13.0742 4.36735 13.0742 4.1778V3.2024C13.0742 2.9852 13.2519 2.8075 13.4691 2.8075H15.8385C16.0557 2.8075 16.2334 2.9852 16.2334 3.2024V4.17385C16.2337 4.26664 16.2667 4.35635 16.3267 4.42715C16.3867 4.49796 16.4697 4.54531 16.5612 4.56085C17.4339 4.72671 18.2672 4.99919 19.0451 5.3704C19.2149 5.44938 19.4242 5.40199 19.5348 5.24798L20.1074 4.45818C20.2377 4.28047 20.4826 4.24493 20.6603 4.3713L22.5755 5.7653C22.7532 5.89561 22.7888 6.14045 22.6624 6.31816L22.0898 7.10796C22.0354 7.18297 22.0092 7.27473 22.0157 7.36715C22.0222 7.45957 22.061 7.54676 22.1253 7.61343C22.7262 8.24856 23.2426 8.95868 23.6615 9.72614C23.7563 9.892 23.9498 9.97493 24.1314 9.91569L25.0594 9.61557C25.1087 9.59915 25.1607 9.59267 25.2125 9.59652C25.2643 9.60036 25.3148 9.61445 25.361 9.63796C25.4073 9.66147 25.4485 9.69394 25.4821 9.73348C25.5158 9.77302 25.5412 9.81885 25.557 9.86831L26.2876 12.1232C26.3547 12.3325 26.2441 12.5536 26.0348 12.6208Z" stroke="#919894" stroke-width="2" stroke-linejoin="round"/>
    <path d="M9.14941 15.8166L12.0618 18.729C12.419 19.0862 13.0006 19.0862 13.3577 18.729L20 10.9996" stroke="#919894" stroke-width="2" stroke-linecap="round" stroke-linejoin="round"/>
</svg>
