<svg width="23" height="25" viewBox="0 0 23 25" fill="none" xmlns="http://www.w3.org/2000/svg">
    <path d="M11.4541 19.7326H19.6829C20.0033 19.7506 20.323 19.6861 20.6115 19.5455C20.9 19.4048 21.1476 19.1926 21.3308 18.9291C21.514 18.6656 21.6266 18.3595 21.658 18.0401C21.6893 17.7207 21.6383 17.3986 21.5099 17.1045C21.0749 15.7898 19.3409 14.2129 19.3409 12.6614C19.3409 9.21768 19.3409 8.31143 17.6444 6.28626C17.0954 5.6344 16.4147 5.10607 15.647 4.73597L14.7009 4.2768C14.5422 4.18098 14.4052 4.053 14.2989 3.90108C14.1925 3.74917 14.1192 3.57669 14.0835 3.39472C13.9889 2.78138 13.6646 2.22697 13.1763 1.84393C12.688 1.46089 12.0723 1.27791 11.4541 1.33209C10.8471 1.29564 10.2482 1.48678 9.77455 1.86818C9.30087 2.24959 8.98636 2.79386 8.89246 3.39472C8.84987 3.58297 8.76642 3.75955 8.64803 3.91198C8.52964 4.06441 8.37919 4.18895 8.20734 4.2768L7.26121 4.73597C6.49396 5.10622 5.81369 5.63454 5.26505 6.28626C3.56975 8.31143 3.56975 9.21768 3.56975 12.6614C3.56975 14.2129 1.91434 15.6315 1.47934 17.0247C1.21713 17.8669 1.07213 19.7326 3.26767 19.7326H11.4541Z" stroke="#2E3039" stroke-width="1.8125" stroke-linecap="round" stroke-linejoin="round"/>
    <path d="M15.3969 19.7319C15.4072 20.2526 15.3123 20.7699 15.1178 21.2529C14.9234 21.736 14.6333 22.1748 14.2651 22.543C13.8969 22.9112 13.4581 23.2012 12.9751 23.3957C12.492 23.5902 11.9747 23.6851 11.4541 23.6747C10.9333 23.6858 10.4157 23.5913 9.93245 23.3971C9.44916 23.2028 9.01018 22.9128 8.64193 22.5444C8.27368 22.1761 7.98378 21.737 7.78968 21.2536C7.59557 20.7703 7.50129 20.2527 7.51249 19.7319" stroke="#2E3039" stroke-width="1.8125" stroke-linecap="round" stroke-linejoin="round"/>
</svg>
