<svg width="24" height="24" viewBox="0 0 24 24" fill="none" xmlns="http://www.w3.org/2000/svg">
    <path d="M20.1334 13.62C18.4152 14.4219 16.2046 14.3976 14.2292 14.1037C13.569 12.9562 11.7192 9.06379 15.5792 6.97433L15.5876 6.9696C17.6606 7.83192 19.5225 9.7506 20.1334 13.62Z" stroke="black" stroke-width="1.296" stroke-linecap="round" stroke-linejoin="round"/>
    <path d="M9.57016 17.1301C9.57016 17.1301 5.92516 18.7501 4.03516 15.2401C4.76719 18.2229 7.95016 20.1339 7.95016 20.1339C7.95016 20.1339 10.1598 20.1939 9.57016 17.1301Z" stroke="black" stroke-width="1.296" stroke-linecap="round" stroke-linejoin="round"/>
    <path d="M13.8391 6.47666C12.6754 6.28597 11.5349 6.34098 10.593 6.49252C10.3037 5.92957 9.92575 4.67475 7.95947 4.23667C12.051 2.805 13.5606 5.85701 13.8391 6.47666Z" stroke="black" stroke-width="1.296" stroke-linecap="round" stroke-linejoin="round"/>
    <path d="M7.96092 4.23706H7.9585" stroke="black" stroke-width="1.0125" stroke-linecap="round" stroke-linejoin="round"/>
    <path d="M16.8641 10.3801H16.8599" stroke="black" stroke-width="1.296" stroke-linecap="round" stroke-linejoin="round"/>
    <path d="M20.1339 13.6199C16.0839 15.5099 9.30017 12.8099 9.30017 12.8099C5.79017 11.4599 4.03517 15.2399 4.03517 15.2399C3.51745 13.1295 4.02674 9.99146 7.76725 7.52231C8.10171 7.30125 8.44697 7.10314 8.84185 6.94688C10.0498 6.46898 12.0363 6.18176 13.8392 6.47708C16.5335 6.91853 19.3536 8.67859 20.1339 13.6199Z" stroke="black" stroke-width="1.296" stroke-linecap="round" stroke-linejoin="round"/>
</svg>
