<svg width="28" height="28" viewBox="0 0 28 28" fill="none" xmlns="http://www.w3.org/2000/svg">
    <path d="M4.42755 10.3379C4.42755 10.3379 3.2288 11.0926 3.09099 11.8451C2.95318 12.5998 3.2288 13.4901 3.60505 14.072C3.9813 14.6538 4.42755 15.1351 4.97662 15.3407C5.52568 15.5463 6.00474 15.5113 6.00474 15.5113C6.00474 15.5113 7.27349 16.9507 9.53318 18.9041C11.7929 20.8576 14.6738 23.1873 17.9288 25.0029C21.1838 26.8185 22.3497 27.2648 23.2401 27.2648C24.1304 27.2648 24.0976 25.9282 23.9947 25.517C23.8919 25.1057 18.1694 18.7335 18.1694 18.7335L4.42755 10.3379Z" fill="#FF8E00"/>
    <path d="M6.82724 13.6631L5.96974 12.7378C5.96974 12.7378 5.07943 11.0578 4.25693 11.0578C3.43443 11.0578 3.09099 11.8453 3.09099 11.8453C3.09099 11.8453 2.98818 10.9878 4.0163 9.34501C5.04443 7.7022 6.34599 6.39845 7.51193 5.57595C8.67787 4.75345 10.1151 3.79314 11.0754 3.24626C12.0357 2.69939 14.1247 2.01251 15.3257 1.60126C16.5244 1.19001 19.1297 0.675952 20.3285 0.916577C21.5272 1.1572 22.0413 1.9797 22.0413 2.83501C22.0413 3.69033 21.8357 4.27439 21.6651 4.44501C21.4944 4.61564 20.3635 5.57595 20.3635 5.57595L6.82724 13.6631Z" fill="#F5B03E"/>
    <path d="M9.23129 10.0518L7.10723 11.4234L6.21692 13.1712C6.21692 13.1712 6.38754 13.753 6.66317 14.0615C6.93661 14.3699 9.23129 16.5684 10.8741 17.9727C12.156 19.0687 14.8882 21.394 14.8882 21.394C14.8882 21.394 14.9997 22.5621 15.1288 23.3824C15.2316 24.0343 15.2382 25.1215 15.925 25.0909C16.7913 25.0515 16.2925 23.2971 16.9794 23.3146C18.351 23.3496 16.9904 27.0596 18.4647 27.0399C19.6394 27.0246 18.8935 24.9968 19.4819 24.6512C19.8013 24.463 20.4357 25.2615 21.4704 25.7143C22.7479 26.2721 23.5266 26.6943 23.9379 26.5018C24.8063 26.0949 22.9754 16.6077 22.7697 14.9977C22.5641 13.3877 21.5404 5.11898 21.4704 4.84555C21.4004 4.57211 19.996 4.53711 19.996 4.53711L17.8369 5.2918L14.7525 5.70305L11.1213 7.86211L9.23129 10.0518Z" fill="#FFCC8A"/>
    <path d="M8.69537 9.70799C8.02162 10.0886 7.15318 10.3008 6.42037 11.5083C5.81006 12.5146 5.64818 13.5449 6.0835 13.6236C6.51881 13.7024 6.84912 12.1842 7.42881 11.6067C8.3585 10.6771 9.111 10.5786 9.64475 10.0842C10.1785 9.58986 10.7626 8.24674 12.9872 7.05893C15.5794 5.67424 17.1282 6.03955 17.7341 5.81205C18.526 5.51455 18.7404 5.02893 19.7313 4.8233C20.7791 4.60674 21.5076 5.02455 21.5076 5.02455C21.5076 5.02455 21.746 4.47111 21.4288 4.21299C21.1116 3.95486 20.5276 3.75361 19.5519 3.95268C18.4844 4.16924 17.6926 4.88236 17.476 4.90205C17.2594 4.92174 15.0435 4.80361 12.4119 6.30643C9.78037 7.80924 9.28818 9.37111 8.69537 9.70799Z" fill="#CB6C22"/>
    <path d="M11.7207 12.1011L8.18129 12.8733C8.18129 12.8733 8.1266 13.5449 8.1616 13.7439C8.27973 14.4155 9.17004 15.4852 9.70379 15.6624C10.2375 15.8396 11.3247 15.8592 11.6813 15.7017C12.0379 15.5442 13.1054 14.7721 13.2432 14.3564C13.381 13.9408 13.3438 12.2017 13.0682 11.9239C12.7925 11.6483 11.7207 12.1011 11.7207 12.1011Z" fill="#DB0D27"/>
    <path d="M9.22905 10.9943C8.85062 11.2874 8.12218 12.2805 8.18124 12.9914C8.2403 13.7046 9.46749 14.9493 9.80218 15.0674C10.1369 15.1855 11.2262 15.2052 11.5041 15.1264C11.7819 15.0477 12.8494 14.2558 13.0069 13.9802C13.1644 13.7024 13.3044 12.1602 13.0462 11.8846C12.7881 11.6089 12.0181 10.7974 11.4056 10.618C10.7909 10.4408 9.58562 10.7164 9.22905 10.9943Z" fill="#ED6D30"/>
    <path d="M18.2875 14.3171C18.2875 14.3171 15.155 14.0918 15.1156 14.2887C15.0762 14.4856 15.004 15.2468 15.2031 15.8593C15.3431 16.2946 15.6778 17.0471 16.7059 17.4803C17.734 17.9134 18.7228 17.4409 18.9809 17.2418C19.4643 16.8699 19.7728 16.4106 19.8515 16.1349C19.9303 15.8593 18.2875 14.3171 18.2875 14.3171Z" fill="#DB0D27"/>
    <path d="M16.765 12.6745C16.2816 12.8495 15.1244 13.5648 15.1025 14.3567C15.0829 15.1485 15.656 16.1176 15.9535 16.3342C16.251 16.5507 17.2397 17.126 17.9704 17.0867C18.7032 17.0473 19.7116 16.4545 19.8494 16.1373C19.9872 15.8201 20.0463 14.8904 19.9872 14.4157C19.9282 13.941 18.9 12.8735 18.386 12.7139C17.8719 12.5564 17.2004 12.517 16.765 12.6745Z" fill="#ED6D30"/>
    <path d="M16.6468 20.0724C16.6468 20.0724 13.779 19.2805 13.7396 19.3396C13.7003 19.3986 13.3043 19.893 13.4028 20.1314C13.5012 20.3699 14.5096 21.1793 14.9253 21.5358C15.3409 21.8924 16.5965 22.6296 16.7453 22.6033C17.1018 22.5443 17.3774 21.9711 17.3774 21.9711L16.6468 20.0724Z" fill="#DB0D27"/>
    <path d="M16.9028 18.8651C16.2028 18.351 15.1813 18.3904 14.6278 18.6485C14.0744 18.9067 13.7375 19.2414 13.6784 19.4995C13.6194 19.7576 14.0766 20.2542 14.2559 20.392C14.4331 20.5298 14.9713 20.9367 14.9713 20.9367C14.9713 20.9367 15.7697 21.5623 16.065 21.7898C16.4763 22.107 16.9925 22.2864 17.1303 22.306C17.2681 22.3257 17.9113 21.4945 17.7931 20.3854C17.7319 19.8189 17.4913 19.2982 16.9028 18.8651Z" fill="#ED6D30"/>
    <path d="M21.8882 17.2835L20.8207 17.2441C20.8207 17.2441 20.3854 18.0557 20.6829 18.9657C20.9257 19.7095 21.4354 20.1535 22.2841 20.3898C23.135 20.6282 23.6097 20.5429 23.6097 20.5429L23.6229 19.9457L21.8882 17.2835Z" fill="#DB0D27"/>
    <path d="M22.9162 15.9185C22.9162 15.9185 21.5993 15.7632 20.919 16.986C20.3984 17.9244 20.7615 18.7075 21.1772 19.1625C21.5928 19.6175 22.225 19.915 22.6997 19.9544C23.1743 19.9938 23.6337 19.9566 23.6337 19.9566C23.6337 19.9566 23.45 18.7425 23.2706 17.7275C23.1612 17.1194 22.9162 15.9185 22.9162 15.9185Z" fill="#ED6D30"/>
    <path d="M19.0794 7.35449C19.0794 7.35449 16.5287 7.43324 16.3691 7.69137C16.2094 7.94949 16.2116 9.09574 16.2903 9.55074C16.3691 10.0057 17.0625 11.1126 18.4472 11.1323C19.8319 11.152 20.3197 10.8064 20.8578 9.76074C21.3959 8.71512 20.8359 7.54481 20.8359 7.54481L19.0794 7.35449Z" fill="#DB0D27"/>
    <path d="M19.0991 6.18602C18.5457 6.07884 17.7735 6.30415 17.3972 6.56227C17.021 6.8204 16.4085 7.35415 16.3691 7.75009C16.3297 8.14602 16.6863 9.29227 16.8241 9.51102C16.9619 9.72759 17.535 10.316 17.7144 10.4013C18.13 10.5982 19.2763 10.4998 19.6132 10.3816C19.95 10.2635 20.8797 9.51102 20.9782 9.11508C21.0766 8.71915 21.1947 8.04759 20.7397 7.23602C20.2847 6.42446 19.6132 6.28665 19.0991 6.18602Z" fill="#ED6D30"/>
    <path d="M22.7019 22.7874L20.4247 22.689C20.4247 22.689 20.1184 23.3037 20.2103 23.8418C20.2847 24.288 20.6544 24.8962 21.3172 25.1521C21.6934 25.2965 22.6778 25.2024 22.9184 25.0383C23.4041 24.7058 23.5594 24.1021 23.5441 23.7915C23.5375 23.6296 22.7019 22.7874 22.7019 22.7874Z" fill="#DB0D27"/>
    <path d="M22.2053 21.8205C21.6146 21.7308 20.9343 22.0502 20.6412 22.3543C20.3481 22.6583 20.289 23.039 20.4006 23.4983C20.604 24.3383 21.1421 24.5768 21.3915 24.7058C21.7612 24.8962 22.7762 24.859 23.0956 24.6162C23.4128 24.3755 23.6534 23.9643 23.579 23.3321C23.5024 22.6977 23.2224 21.9737 22.2053 21.8205Z" fill="#ED6D30"/>
    <path d="M7.87495 6.78777C7.89464 7.26027 8.72151 7.17933 9.04745 7.14652C9.30777 7.12027 9.95964 7.06558 9.95964 6.64121C9.95964 6.21683 9.39089 6.21902 8.96652 6.23433C8.55745 6.24964 7.85745 6.41371 7.87495 6.78777ZM12.3178 4.00527C12.3178 4.31589 12.659 4.34652 12.8712 4.36402C13.0834 4.37933 13.359 4.29839 13.3765 4.05558C13.3918 3.81058 13.1818 3.66402 12.8712 3.64871C12.5453 3.62902 12.3178 3.74277 12.3178 4.00527ZM14.3521 4.75339C14.665 5.09246 15.1331 4.63964 15.2971 4.42746C15.459 4.21527 15.4918 3.88933 15.3125 3.72746C15.1331 3.56558 14.7918 3.74277 14.5643 3.95496C14.3368 4.16714 14.1575 4.54121 14.3521 4.75339ZM17.885 3.02746C18.2656 3.45839 18.8934 2.73433 19.1537 2.48933C19.414 2.24433 19.6262 1.90308 19.3812 1.62746C19.1362 1.35183 18.5828 1.74121 18.3728 1.98621C18.1606 2.22902 17.64 2.75183 17.885 3.02746ZM5.8887 10.3359C6.25839 10.4234 6.3787 9.98589 6.44214 9.65121C6.50776 9.30996 6.50776 8.98402 6.22995 8.93589C5.91495 8.88121 5.74214 9.19621 5.69183 9.50464C5.65026 9.78246 5.54745 10.255 5.8887 10.3359Z" fill="#FCC12B"/>
</svg>
