<svg width="32" height="32" viewBox="0 0 32 32" fill="none" xmlns="http://www.w3.org/2000/svg">
    <g clip-path="url(#clip0_2_3168)">
        <path d="M2.78662 0V5.33331L8.20767 6.4762L8.92492 3.53171L8.20767 1.14288L2.78662 0Z" fill="#B9E600"/>
        <path d="M13.6287 6.09497V4.13953C13.6287 3.05887 12.872 2.12593 11.8145 1.90298L8.20767 1.14258V6.47589L11.1067 7.08708L13.6287 6.09497ZM4.60085 7.99826C3.54346 8.2212 2.78662 9.15415 2.78662 10.2348C2.78662 12.7043 3.15441 12.9344 3.5726 14.1658L6.4007 12.9521L8.20767 12.5712L8.92492 8.80418L8.20767 7.23779L4.60085 7.99826ZM2.78662 25.9045L8.20767 24.7616L8.92492 20.9498L8.20767 19.4282L4.55145 20.1991C3.52282 20.416 2.78662 21.3236 2.78662 22.3748V25.9045Z" fill="#77CC00"/>
        <path d="M11.8146 24.0014C12.872 23.7785 13.6288 22.8455 13.6288 21.7649V21.6635C13.6288 18.8813 12.1266 19.217 10.8028 18.8813L8.20776 19.4284V24.7617L11.8146 24.0014Z" fill="#2BB300"/>
        <path d="M2.78662 10.3364V15.6697C2.78662 16.7504 3.54346 17.6833 4.60085 17.9063L8.20767 18.6667L8.92492 15.9573L8.20767 13.3334L4.60085 12.573C3.54339 12.3501 2.78662 11.4171 2.78662 10.3364Z" fill="#B9E600"/>
        <path d="M11.8146 19.4272C12.872 19.6502 13.6288 20.5831 13.6288 21.6638V16.3304C13.6288 15.2498 12.872 14.3168 11.8146 14.0939L8.20776 13.3335V18.6668L11.8146 19.4272Z" fill="#77CC00"/>
        <path d="M11.8146 6.47776C12.872 6.25481 13.6288 5.32187 13.6288 4.24121V9.57452C13.6288 10.6552 12.872 11.5881 11.8146 11.8111L8.20776 12.5715V7.23816L11.8146 6.47776Z" fill="#2BB300"/>
        <path d="M4.60085 24.7634C3.54346 24.5405 2.78662 23.6075 2.78662 22.5269V27.8602C2.78662 28.9408 3.54339 29.8738 4.60085 30.0967L8.20767 30.8571L8.83306 28.2755L8.20767 25.5238L4.60085 24.7634Z" fill="#B9E600"/>
        <path d="M13.6288 26.6667L8.20776 25.5239V30.8572L13.6288 32.0001V26.6667Z" fill="#77CC00"/>
        <path d="M18.3711 0V5.33331L23.7921 6.4762L24.5094 3.53171L23.7921 1.14288L18.3711 0Z" fill="#B9E600"/>
        <path d="M29.2133 6.09497V4.13953C29.2133 3.05887 28.4565 2.12593 27.399 1.90298L23.7922 1.14258V6.47589L26.6912 7.08708L29.2133 6.09497ZM20.1853 7.99826C19.1279 8.2212 18.3711 9.15415 18.3711 10.2348C18.3711 12.7043 18.7389 12.9344 19.1571 14.1658L21.9851 12.9521L23.7921 12.5712L24.5093 8.80418L23.7921 7.23779L20.1853 7.99826ZM18.3712 25.9045L23.7922 24.7616L24.5095 20.9498L23.7922 19.4282L20.136 20.199C19.1074 20.4159 18.3712 21.3234 18.3712 22.3747V25.9045Z" fill="#77CC00"/>
        <path d="M27.3991 24.0014C28.4565 23.7785 29.2133 22.8455 29.2133 21.7649V21.6635C29.2133 18.8813 27.7111 19.217 26.3873 18.8813L23.7922 19.4284V24.7617L27.3991 24.0014Z" fill="#2BB300"/>
        <path d="M18.3711 10.3364V15.6697C18.3711 16.7504 19.1279 17.6833 20.1853 17.9063L23.7921 18.6667L24.5094 15.9573L23.7921 13.3334L20.1853 12.573C19.1279 12.3501 18.3711 11.4171 18.3711 10.3364Z" fill="#B9E600"/>
        <path d="M27.3991 19.4272C28.4565 19.6502 29.2133 20.5831 29.2133 21.6638V16.3304C29.2133 15.2498 28.4565 14.3168 27.3991 14.0939L23.7922 13.3335V18.6668L27.3991 19.4272Z" fill="#77CC00"/>
        <path d="M27.3991 6.47776C28.4565 6.25481 29.2133 5.32187 29.2133 4.24121V9.57452C29.2133 10.6552 28.4565 11.5881 27.3991 11.8111L23.7922 12.5715V7.23816L27.3991 6.47776Z" fill="#2BB300"/>
        <path d="M20.1853 24.7634C19.1279 24.5405 18.3711 23.6075 18.3711 22.5269V27.8602C18.3711 28.9408 19.1279 29.8738 20.1853 30.0967L23.7921 30.8571L24.4175 28.2755L23.7921 25.5238L20.1853 24.7634Z" fill="#B9E600"/>
        <path d="M29.2133 26.6667L23.7922 25.5239V30.8572L29.2133 32.0001V26.6667Z" fill="#77CC00"/>
        <path opacity="0.9" d="M5.71966 31.9998H1.24138C0.912145 31.9998 0.596395 31.8734 0.363592 31.6483C0.130788 31.4233 0 31.1181 0 30.7998V25.9998C0 25.6815 0.130788 25.3763 0.363592 25.1513C0.596395 24.9262 0.912145 24.7998 1.24138 24.7998H16.7586C17.0879 24.7998 17.4036 24.9262 17.6364 25.1513C17.8692 25.3763 18 25.6815 18 25.9998V30.7998C18 31.1181 17.8692 31.4233 17.6364 31.6483C17.4036 31.8734 17.0879 31.9998 16.7586 31.9998H5.71966Z" fill="#27820A"/>
        <path d="M13.7055 27.0537C13.7632 26.9992 13.8415 26.9686 13.9231 26.9686C14.0047 26.9686 14.0829 26.9992 14.1406 27.0537C14.1984 27.1082 14.2308 27.1821 14.2308 27.2591V29.5833C14.2308 29.6604 14.1984 29.7343 14.1406 29.7888C14.0829 29.8433 14.0047 29.8739 13.9231 29.8739C13.8415 29.8739 13.7632 29.8433 13.7055 29.7888C13.6478 29.7343 13.6154 29.6604 13.6154 29.5833V27.2591C13.6154 27.1821 13.6478 27.1082 13.7055 27.0537Z" fill="white"/>
        <path d="M8.69231 26.9686H9.92308C10.0047 26.9686 10.0829 26.9992 10.1406 27.0537C10.1984 27.1082 10.2308 27.1821 10.2308 27.2591C10.2308 27.3362 10.1984 27.4101 10.1406 27.4646C10.0829 27.519 10.0047 27.5497 9.92308 27.5497H9.61538V29.5833C9.61538 29.6604 9.58297 29.7343 9.52526 29.7888C9.46756 29.8433 9.3893 29.8739 9.30769 29.8739C9.22609 29.8739 9.14782 29.8433 9.09012 29.7888C9.03242 29.7343 9 29.6604 9 29.5833V27.5497H8.69231C8.6107 27.5497 8.53244 27.519 8.47474 27.4646C8.41703 27.4101 8.38461 27.3362 8.38461 27.2591C8.38461 27.1821 8.41703 27.1082 8.47474 27.0537C8.53244 26.9992 8.6107 26.9686 8.69231 26.9686Z" fill="white"/>
        <path d="M12.6022 27.4646C12.5445 27.519 12.4662 27.5497 12.3846 27.5497H11.4615V28.1307H12.3846C12.4662 28.1307 12.5445 28.1613 12.6022 28.2158C12.6599 28.2703 12.6923 28.3442 12.6923 28.4212C12.6923 28.4983 12.6599 28.5722 12.6022 28.6267C12.5445 28.6812 12.4662 28.7118 12.3846 28.7118H11.4615V29.2928H12.3846C12.4662 29.2928 12.5445 29.3234 12.6022 29.3779C12.6599 29.4324 12.6923 29.5063 12.6923 29.5833C12.6923 29.6604 12.6599 29.7343 12.6022 29.7888C12.5445 29.8433 12.4662 29.8739 12.3846 29.8739H11.1538C11.0722 29.8739 10.994 29.8433 10.9363 29.7888C10.8786 29.7343 10.8462 29.6604 10.8462 29.5833V27.2591C10.8462 27.1821 10.8786 27.1082 10.9363 27.0537C10.994 26.9992 11.0722 26.9686 11.1538 26.9686H12.3846C12.4662 26.9686 12.5445 26.9992 12.6022 27.0537C12.6599 27.1082 12.6923 27.1821 12.6923 27.2591C12.6923 27.3362 12.6599 27.4101 12.6022 27.4646Z" fill="white"/>
        <path d="M16.4747 27.0537C16.5324 26.9992 16.6107 26.9686 16.6923 26.9686C16.7739 26.9686 16.8522 26.9992 16.9099 27.0537C16.9676 27.1082 17 27.1821 17 27.2591V29.5833C17.0001 29.6488 16.9767 29.7124 16.9337 29.7638C16.8907 29.8151 16.8306 29.8513 16.7631 29.8663C16.6953 29.8818 16.624 29.875 16.5609 29.8472C16.4977 29.8194 16.4464 29.7721 16.4154 29.7132L15.7692 28.4898V29.5833C15.7692 29.6604 15.7368 29.7343 15.6791 29.7888C15.6214 29.8433 15.5431 29.8739 15.4615 29.8739C15.3799 29.8739 15.3017 29.8433 15.244 29.7888C15.1863 29.7343 15.1538 29.6604 15.1538 29.5833V27.2591C15.1531 27.1931 15.1761 27.1288 15.2192 27.0768C15.2624 27.0248 15.323 26.9882 15.3911 26.9731C15.4591 26.9579 15.5307 26.9652 15.5938 26.9936C15.657 27.022 15.708 27.0698 15.7385 27.1293L16.3846 28.3527V27.2591C16.3846 27.1821 16.417 27.1082 16.4747 27.0537Z" fill="white"/>
        <path fill-rule="evenodd" clip-rule="evenodd" d="M6.84615 26.9686C6.60134 26.9686 6.36655 27.0604 6.19344 27.2239C6.02033 27.3873 5.92308 27.609 5.92308 27.8402V29.0023C5.92308 29.2334 6.02033 29.4551 6.19344 29.6186C6.36655 29.782 6.60134 29.8739 6.84615 29.8739C7.09097 29.8739 7.32576 29.782 7.49887 29.6186C7.67198 29.4551 7.76923 29.2334 7.76923 29.0023V27.8402C7.76923 27.609 7.67198 27.3873 7.49887 27.2239C7.32576 27.0604 7.09097 26.9686 6.84615 26.9686ZM7.06372 29.2077C7.12143 29.1532 7.15385 29.0793 7.15385 29.0023V27.8402C7.15385 27.7631 7.12143 27.6892 7.06372 27.6347C7.00602 27.5803 6.92776 27.5497 6.84615 27.5497C6.76455 27.5497 6.68629 27.5803 6.62858 27.6347C6.57088 27.6892 6.53846 27.7631 6.53846 27.8402V29.0023C6.53846 29.0793 6.57088 29.1532 6.62858 29.2077C6.68629 29.2622 6.76455 29.2928 6.84615 29.2928C6.92776 29.2928 7.00602 29.2622 7.06372 29.2077Z" fill="white"/>
        <path fill-rule="evenodd" clip-rule="evenodd" d="M5.30769 27.8402C5.30769 27.609 5.21044 27.3873 5.03733 27.2239C4.86422 27.0604 4.62943 26.9686 4.38462 26.9686H3.76923C3.68763 26.9686 3.60936 26.9992 3.55166 27.0537C3.49396 27.1082 3.46154 27.1821 3.46154 27.2591V29.5833C3.46154 29.6604 3.49396 29.7343 3.55166 29.7888C3.60936 29.8433 3.68763 29.8739 3.76923 29.8739C3.85084 29.8739 3.9291 29.8433 3.9868 29.7888C4.04451 29.7343 4.07692 29.6604 4.07692 29.5833V28.7118H4.19446L4.72462 29.7132C4.74268 29.7474 4.76769 29.7778 4.79821 29.8028C4.82874 29.8279 4.86418 29.847 4.90253 29.859C4.94087 29.8711 4.98136 29.876 5.02168 29.8733C5.06201 29.8706 5.10137 29.8604 5.13754 29.8434C5.1737 29.8263 5.20595 29.8027 5.23245 29.7739C5.25895 29.7451 5.27918 29.7116 5.29198 29.6754C5.30478 29.6392 5.3099 29.6009 5.30706 29.5629C5.30421 29.5248 5.29345 29.4876 5.27538 29.4535L4.82431 28.6017C4.96998 28.5275 5.09177 28.4177 5.17685 28.2837C5.26192 28.1496 5.30713 27.9964 5.30769 27.8402ZM4.38462 27.5497H4.07692V28.1307H4.38462C4.46622 28.1307 4.54448 28.1001 4.60219 28.0456C4.65989 27.9911 4.69231 27.9172 4.69231 27.8402C4.69231 27.7631 4.65989 27.6892 4.60219 27.6347C4.54448 27.5803 4.46622 27.5497 4.38462 27.5497Z" fill="white"/>
        <path fill-rule="evenodd" clip-rule="evenodd" d="M1.92308 26.9686H1.30769C1.22609 26.9686 1.14782 26.9992 1.09012 27.0537C1.03242 27.1082 1 27.1821 1 27.2591V29.5833C1 29.6604 1.03242 29.7343 1.09012 29.7888C1.14782 29.8433 1.22609 29.8739 1.30769 29.8739C1.3893 29.8739 1.46756 29.8433 1.52526 29.7888C1.58297 29.7343 1.61538 29.6604 1.61538 29.5833V28.7118H1.92308C2.16789 28.7118 2.40268 28.6199 2.57579 28.4565C2.7489 28.293 2.84615 28.0713 2.84615 27.8402C2.84615 27.609 2.7489 27.3873 2.57579 27.2239C2.40268 27.0604 2.16789 26.9686 1.92308 26.9686ZM1.61538 28.1307H1.92308C2.00468 28.1307 2.08294 28.1001 2.14065 28.0456C2.19835 27.9911 2.23077 27.9172 2.23077 27.8402C2.23077 27.7631 2.19835 27.6892 2.14065 27.6347C2.08294 27.5803 2.00468 27.5497 1.92308 27.5497H1.61538V28.1307Z" fill="white"/>
    </g>
    <defs>
        <clipPath id="clip0_2_3168">
            <rect width="32" height="32" fill="white"/>
        </clipPath>
    </defs>
</svg>
