<svg width="24" height="24" viewBox="0 0 24 24" fill="none" xmlns="http://www.w3.org/2000/svg">
    <g clip-path="url(#clip0_1_5879)">
        <path d="M2.09009 0V3.99998L6.15588 4.85715L6.69382 2.64879L6.15588 0.857163L2.09009 0Z" fill="#B9E600"/>
        <path d="M10.2215 4.57123V3.10465C10.2215 2.29415 9.65397 1.59445 8.86087 1.42723L6.15576 0.856934V4.85692L8.33002 5.31531L10.2215 4.57123ZM3.45064 5.99869C2.65759 6.1659 2.08997 6.86561 2.08997 7.6761C2.08997 9.52823 2.36581 9.70079 2.67945 10.6243L4.80052 9.71411L6.15576 9.42838L6.69369 6.60314L6.15576 5.42834L3.45064 5.99869ZM2.08997 19.4284L6.15576 18.5712L6.69369 15.7123L6.15576 14.5712L3.41358 15.1493C2.64211 15.312 2.08997 15.9927 2.08997 16.7811V19.4284Z" fill="#77CC00"/>
        <path d="M8.86088 18.0012C9.65392 17.834 10.2216 17.1343 10.2216 16.3238V16.2477C10.2216 14.1611 9.09488 14.4129 8.10203 14.1611L6.15576 14.5714V18.5714L8.86088 18.0012Z" fill="#2BB300"/>
        <path d="M2.08997 7.75244V11.7524C2.08997 12.5629 2.65759 13.2626 3.45064 13.4298L6.15576 14.0001L6.69369 11.9681L6.15576 10.0002L3.45064 9.42985C2.65755 9.26269 2.08997 8.56294 2.08997 7.75244Z" fill="#B9E600"/>
        <path d="M8.86088 14.5703C9.65392 14.7375 10.2216 15.4372 10.2216 16.2477V12.2477C10.2216 11.4372 9.65397 10.7375 8.86088 10.5703L6.15576 10V14L8.86088 14.5703Z" fill="#77CC00"/>
        <path d="M8.86088 4.85808C9.65392 4.69087 10.2216 3.99116 10.2216 3.18066V7.18065C10.2216 7.99114 9.65397 8.69085 8.86088 8.85806L6.15576 9.42836V5.42838L8.86088 4.85808Z" fill="#2BB300"/>
        <path d="M3.45064 18.5724C2.65759 18.4052 2.08997 17.7055 2.08997 16.895V20.895C2.08997 21.7055 2.65755 22.4052 3.45064 22.5724L6.15576 23.1427L6.62479 21.2065L6.15576 19.1427L3.45064 18.5724Z" fill="#B9E600"/>
        <path d="M10.2216 20.0002L6.15576 19.1431V23.1431L10.2216 24.0002V20.0002Z" fill="#77CC00"/>
        <path d="M13.7784 0V3.99998L17.8442 4.85715L18.3822 2.64879L17.8442 0.857163L13.7784 0Z" fill="#B9E600"/>
        <path d="M21.9099 4.57123V3.10465C21.9099 2.29415 21.3424 1.59445 20.5493 1.42723L17.8442 0.856934V4.85692L20.0184 5.31531L21.9099 4.57123ZM15.139 5.99869C14.3459 6.1659 13.7783 6.86561 13.7783 7.6761C13.7783 9.52823 14.0542 9.70079 14.3678 10.6243L16.4888 9.71411L17.8441 9.42838L18.382 6.60314L17.8441 5.42834L15.139 5.99869ZM13.7784 19.4284L17.8442 18.5712L18.3821 15.7123L17.8442 14.5712L15.102 15.1493C14.3305 15.3119 13.7784 15.9926 13.7784 16.781V19.4284Z" fill="#77CC00"/>
        <path d="M20.5492 18.0012C21.3423 17.834 21.9099 17.1343 21.9099 16.3238V16.2477C21.9099 14.1611 20.7832 14.4129 19.7904 14.1611L17.8441 14.5714V18.5714L20.5492 18.0012Z" fill="#2BB300"/>
        <path d="M13.7784 7.75244V11.7524C13.7784 12.5629 14.3461 13.2626 15.1391 13.4298L17.8442 14.0001L18.3822 11.9681L17.8442 10.0002L15.1391 9.42985C14.346 9.26269 13.7784 8.56294 13.7784 7.75244Z" fill="#B9E600"/>
        <path d="M20.5492 14.5703C21.3423 14.7375 21.9099 15.4372 21.9099 16.2477V12.2477C21.9099 11.4372 21.3423 10.7375 20.5492 10.5703L17.8441 10V14L20.5492 14.5703Z" fill="#77CC00"/>
        <path d="M20.5492 4.85808C21.3423 4.69087 21.9099 3.99116 21.9099 3.18066V7.18065C21.9099 7.99114 21.3423 8.69085 20.5492 8.85806L17.8441 9.42836V5.42838L20.5492 4.85808Z" fill="#2BB300"/>
        <path d="M15.139 18.5724C14.3459 18.4052 13.7783 17.7055 13.7783 16.895V20.895C13.7783 21.7055 14.3459 22.4052 15.139 22.5724L17.8441 23.1427L18.3131 21.2065L17.8441 19.1427L15.139 18.5724Z" fill="#B9E600"/>
        <path d="M21.9099 20.0002L17.8441 19.1431V23.1431L21.9099 24.0002V20.0002Z" fill="#77CC00"/>
    </g>
    <defs>
        <clipPath id="clip0_1_5879">
            <rect width="24" height="24" fill="white"/>
        </clipPath>
    </defs>
</svg>
