<svg width="20" height="22" viewBox="0 0 20 22" fill="none" xmlns="http://www.w3.org/2000/svg">
    <path d="M3.52634 1.7988C4.0378 1.28734 4.73149 1 5.45481 1H16.3639C17.0872 1 17.7809 1.28734 18.2924 1.7988C18.8038 2.31026 19.0912 3.00396 19.0912 3.72727V18.2727C19.0912 18.996 18.8038 19.6897 18.2924 20.2012C17.7809 20.7127 17.0872 21 16.3639 21H5.45481C4.73149 21 4.0378 20.7127 3.52634 20.2012C3.01488 19.6897 2.72754 18.996 2.72754 18.2727V3.72727C2.72754 3.00396 3.01488 2.31026 3.52634 1.7988Z" stroke="#FDFDFE" stroke-width="1.5"/>
    <path d="M2.72736 15V18.2727C2.72736 18.996 3.0147 19.6897 3.52616 20.2012C4.03762 20.7127 4.73131 21 5.45463 21H16.3637C17.087 21 17.7807 20.7127 18.2922 20.2012C18.8037 19.6897 19.091 18.996 19.091 18.2727V3.72727C19.091 3.00396 18.8037 2.31026 18.2922 1.7988C17.7807 1.28734 17.087 1 16.3637 1H5.45463C4.73131 1 4.03762 1.28734 3.52616 1.7988C3.0147 2.31026 2.72736 3.00396 2.72736 3.72727V6.5M2.72736 15H1.81827H0.90918M2.72736 15V11M2.72736 15H3.63645H4.40918M2.72736 11H1.81827H0.90918M2.72736 11H3.63645H4.40918M2.72736 11V6.5M2.72736 6.5H1.81827H0.90918M2.72736 6.5H3.63645H4.40918M14.162 1V7.73295L11.2856 5.81534L8.40918 7.73295V1" stroke="#FDFDFE" stroke-width="1.3" stroke-linecap="round" stroke-linejoin="round"/>
</svg>
