<svg width="22" height="22" viewBox="0 0 22 22" fill="none" xmlns="http://www.w3.org/2000/svg">
    <path d="M10.2641 7.09954V11.9754L14.1648 13.9257M1 4.66162V8.07471H4.90067" stroke="#111C06" stroke-width="1.3" stroke-linecap="round" stroke-linejoin="round"/>
    <path d="M1.48779 7.75291L2.57023 6.67048C3.36179 5.045 4.59431 3.67474 6.12717 2.71606C7.66004 1.75737 9.43151 1.24886 11.2395 1.24854C13.0278 1.24688 14.7822 1.73702 16.3107 2.66535C17.8392 3.59367 19.083 4.92444 19.906 6.51211C20.7291 8.09978 21.0997 9.8832 20.9774 11.6673C20.855 13.4515 20.2444 15.1676 19.2124 16.6281C18.1803 18.0885 16.7665 19.2371 15.1256 19.9481C13.4846 20.6591 11.6798 20.9051 9.90846 20.6594C8.13709 20.4136 6.46742 19.6855 5.08203 18.5547C3.69665 17.4238 2.6489 15.9338 2.05339 14.2475" stroke="#111C06" stroke-width="1.3" stroke-linecap="round" stroke-linejoin="round"/>
</svg>
