<svg width="28" height="29" viewBox="0 0 28 29" fill="none" xmlns="http://www.w3.org/2000/svg">
    <g clip-path="url(#clip0_1_5743)">
        <path d="M16.2657 19.8326L17.6097 17.0381C17.9426 17.2193 19.3651 18.0126 20.2153 18.778C20.7091 19.2229 20.6423 19.5573 20.4953 20.29L20.482 20.3561C20.335 21.0965 18.767 26.0735 18.5609 26.7238L17.5148 26.464C17.5063 26.1171 17.4705 24.3119 17.6517 23.1716C17.7085 22.8115 17.766 22.3744 17.8181 21.9879C17.8572 21.6633 17.9039 21.3396 17.9581 21.0172C18.0079 20.7574 17.9325 20.605 17.696 20.4906C17.2232 20.2629 16.7463 20.0435 16.2657 19.8326ZM9.4827 21.2459C9.90737 21.1938 10.2753 21.1479 10.4611 21.1362C10.7248 21.1199 10.8531 21.0079 10.9045 20.7504C11.0072 20.2356 11.0995 19.7188 11.1814 19.2003L14.224 19.7969C14.1323 20.1648 13.7231 21.7413 13.1958 22.7571C12.8901 23.3459 12.5495 23.3653 11.8036 23.4089L11.7359 23.4128C10.9776 23.4571 5.77114 23.1919 5.08981 23.1569L5.07814 22.0796C5.41259 21.9832 7.14937 21.4948 8.2997 21.3828C8.66137 21.3478 9.0977 21.2933 9.4827 21.2459Z" fill="#FFDC5D"/>
        <path d="M6.37387 23.5861L6.51231 23.331C6.51631 23.3213 6.5183 23.3109 6.51818 23.3004C6.51806 23.29 6.51583 23.2796 6.51162 23.2701C6.5074 23.2605 6.5013 23.2518 6.49367 23.2447C6.48604 23.2375 6.47704 23.2319 6.4672 23.2283C6.3342 23.1824 6.06432 23.0595 5.9702 23.0098C6.05187 23.1964 6.1452 23.4951 6.24943 23.5853C6.28987 23.6188 6.35365 23.6343 6.37387 23.5861Z" fill="#8899A6"/>
        <path d="M4.35711 21.6073C4.46522 21.521 4.71255 21.4782 4.86811 21.4634C5.07497 21.4495 5.28245 21.4474 5.48955 21.4572C5.5824 21.4601 5.67481 21.4713 5.76566 21.4907C5.86595 21.5132 5.95642 21.5671 6.02389 21.6447C6.06822 21.6983 6.07211 21.7567 6.062 21.7854C6.02155 21.9044 5.82555 22.1105 5.74 22.3065C5.71136 22.3653 5.69799 22.4303 5.70111 22.4955C5.72211 22.7102 5.99589 23.0229 6.20122 23.2547C6.32411 23.3939 6.42289 23.5035 6.42677 23.5463C6.43001 23.5893 6.41996 23.6322 6.398 23.6692V23.6708C6.342 23.7734 6.21989 23.88 6.13589 24.16C6.08222 24.3404 5.82866 25.1641 5.82866 25.1641C5.768 25.3741 5.68711 25.4254 5.65289 25.5382C5.58211 25.7692 5.45766 26.3891 5.39544 26.5851C5.33322 26.7811 5.18466 26.8651 5.07033 26.8814C4.956 26.8978 4.88989 26.8705 4.88989 26.8705C4.88989 26.8705 4.62155 26.75 4.44344 25.7435C4.31511 25.0163 4.42866 24.9043 4.52511 23.8123C4.62155 22.7203 4.35711 21.6073 4.35711 21.6073Z" fill="#1C6399"/>
        <path d="M4.58191 23.2311C4.76469 23.1565 5.18158 22.8811 5.29902 22.5848C5.4048 22.3172 5.47713 21.5947 5.49036 21.4578C5.26636 21.4376 4.9218 21.4524 4.81136 21.4632C4.66513 21.4772 4.49713 21.4889 4.39602 21.5745L4.35713 21.6079C4.35713 21.6079 4.53525 22.7536 4.58191 23.2311Z" fill="#3B94D9"/>
        <path d="M6.18487 24.0433C6.21348 24.0436 6.24157 24.0356 6.26573 24.0203C6.28989 24.005 6.30909 23.983 6.32098 23.957C6.32953 23.9391 6.33446 23.9197 6.33549 23.8999C6.33652 23.8802 6.33362 23.8604 6.32697 23.8417C6.32032 23.8231 6.31005 23.8059 6.29674 23.7913C6.28343 23.7766 6.26735 23.7647 6.24943 23.7563L5.98343 23.6303C5.9472 23.6132 5.90569 23.6111 5.86795 23.6246C5.83021 23.638 5.79931 23.6657 5.78198 23.7019C5.77343 23.7197 5.7685 23.7391 5.76747 23.7589C5.76644 23.7786 5.76934 23.7984 5.77599 23.8171C5.78264 23.8357 5.79292 23.8529 5.80623 23.8675C5.81954 23.8822 5.83561 23.8941 5.85354 23.9025L6.11954 24.0285C6.13998 24.0381 6.16228 24.0432 6.18487 24.0433ZM6.01531 24.5294C6.04716 24.5287 6.07804 24.5183 6.10378 24.4995C6.12951 24.4808 6.14886 24.4545 6.1592 24.4244C6.1712 24.3862 6.16763 24.3449 6.14928 24.3093C6.13092 24.2738 6.09926 24.2469 6.0612 24.2346L5.76565 24.1405C5.72749 24.1285 5.68609 24.132 5.65058 24.1505C5.61506 24.1689 5.58833 24.2007 5.57626 24.2389C5.56419 24.2771 5.56778 24.3185 5.58623 24.354C5.60468 24.3895 5.63649 24.4162 5.67465 24.4283L5.9702 24.5224C5.98482 24.5269 6.00001 24.5293 6.01531 24.5294ZM5.8722 25.0249C5.91125 25.0277 5.94987 25.0152 5.97983 24.99C6.00979 24.9648 6.02872 24.9289 6.03257 24.8899C6.03643 24.851 6.02491 24.812 6.00047 24.7814C5.97603 24.7509 5.94061 24.731 5.90176 24.7262L5.62487 24.6702C5.60538 24.6658 5.5852 24.6654 5.56554 24.669C5.54589 24.6726 5.52717 24.6801 5.51052 24.6912C5.49388 24.7022 5.47964 24.7166 5.46868 24.7333C5.45772 24.75 5.45026 24.7687 5.44676 24.7884C5.44279 24.8079 5.4427 24.8279 5.4465 24.8474C5.4503 24.8669 5.4579 24.8855 5.46889 24.902C5.47987 24.9186 5.49401 24.9328 5.5105 24.9438C5.52699 24.9549 5.54551 24.9626 5.56498 24.9665L5.84187 25.0225L5.8722 25.0249ZM3.71309 21.8126C3.71776 21.7909 3.73409 21.7061 3.79165 21.6026C3.81109 21.5676 3.85543 21.5567 3.90054 21.5513C3.95654 21.5443 4.3672 21.4852 4.37498 21.5684C4.37498 21.5684 4.37731 21.6921 4.43487 21.7769C4.4932 21.8616 4.53365 22.0701 4.54843 22.2256C4.5632 22.3812 4.63009 22.9653 4.61454 23.3752C4.59898 23.7859 4.4722 24.5279 4.46676 24.7752C4.46132 25.0225 4.46676 25.4083 4.51965 25.693C4.57254 25.9776 4.62854 26.2312 4.67209 26.3875C4.71493 26.5597 4.78844 26.7228 4.88909 26.869C4.88909 26.869 4.56476 26.8472 4.31665 26.3673C4.12065 25.9885 4.01098 25.6245 3.96976 25.2699C3.96665 25.2426 3.88187 24.2961 3.84143 23.8232C3.81187 23.4771 3.76209 22.9249 3.76209 22.9249C3.69909 22.2707 3.68432 21.9379 3.71309 21.8126Z" fill="#CCD6DD"/>
        <path d="M19.2803 25.609L19.0711 25.4075C19.0628 25.4011 19.0533 25.3964 19.0431 25.3937C19.033 25.391 19.0224 25.3904 19.012 25.3919C19.0016 25.3935 18.9916 25.3971 18.9826 25.4026C18.9737 25.4081 18.9659 25.4153 18.9598 25.4239C18.8805 25.5398 18.6892 25.7669 18.6168 25.8446C18.8191 25.8159 19.131 25.805 19.2461 25.7288C19.2896 25.6992 19.3207 25.6416 19.2803 25.609Z" fill="#8899A6"/>
        <path d="M16.835 27.0252C16.7806 26.8984 16.8055 26.648 16.8327 26.494C16.8746 26.2909 16.9281 26.0905 16.9929 25.8935C17.0205 25.805 17.0559 25.7191 17.0987 25.6369C17.1827 25.5 17.2636 25.4525 17.3165 25.4292C17.3803 25.4012 17.437 25.4121 17.4627 25.43C17.5669 25.5008 17.7132 25.745 17.8788 25.8795C17.9276 25.9227 17.9864 25.9529 18.0499 25.9674C18.2623 26.0048 18.6372 25.8243 18.9148 25.6882C19.0813 25.6065 19.2143 25.5412 19.2555 25.5482C19.2979 25.5565 19.3368 25.5777 19.3667 25.6089L19.3683 25.6096H19.3675C19.4515 25.6905 19.5223 25.8375 19.7688 25.9923C19.929 26.0919 20.6555 26.5554 20.6555 26.5554C20.8422 26.6698 20.8694 26.7615 20.9689 26.8245C21.1727 26.9544 21.7366 27.2399 21.9093 27.3519C21.9558 27.3794 21.9964 27.4159 22.0287 27.4593C22.061 27.5027 22.0843 27.5521 22.0973 27.6046C22.1102 27.6571 22.1126 27.7116 22.1042 27.7651C22.0958 27.8185 22.0769 27.8697 22.0485 27.9158C22.0485 27.9158 21.8603 28.1421 20.8437 28.0449C20.1087 27.9749 20.0309 27.8356 19.0043 27.4514C17.9776 27.068 16.835 27.0252 16.835 27.0252Z" fill="#1C6399"/>
        <path d="M18.4597 27.2417C18.4364 27.0457 18.2824 26.5705 18.028 26.3784C17.7986 26.2057 17.1212 25.9428 16.9928 25.8931C16.9135 26.1038 16.8357 26.4398 16.817 26.5487C16.7914 26.6934 16.7579 26.8583 16.8139 26.9788L16.8357 27.0247C16.8349 27.0255 17.9876 27.1593 18.4597 27.2417Z" fill="#3B94D9"/>
        <path d="M19.3325 26.2468C19.3541 26.2465 19.3754 26.2417 19.3951 26.2328C19.4148 26.2238 19.4324 26.2108 19.4468 26.1947L19.6389 25.9714C19.6611 25.9407 19.671 25.9027 19.6666 25.865C19.6622 25.8273 19.6438 25.7927 19.6151 25.7679C19.5864 25.7431 19.5494 25.7299 19.5115 25.731C19.4736 25.7321 19.4374 25.7474 19.4102 25.7739L19.2181 25.9971C19.1995 26.0191 19.1875 26.0459 19.1836 26.0745C19.1797 26.103 19.184 26.1321 19.196 26.1583C19.208 26.1844 19.2272 26.2067 19.2514 26.2224C19.2755 26.238 19.3037 26.2465 19.3325 26.2468ZM19.7797 26.5773C19.8048 26.577 19.8294 26.5706 19.8515 26.5587C19.8735 26.5467 19.8924 26.5297 19.9065 26.5089L20.076 26.2491C20.0954 26.2155 20.1012 26.1758 20.0922 26.138C20.0832 26.1003 20.0601 26.0675 20.0277 26.0462C19.9952 26.025 19.9558 26.0171 19.9177 26.024C19.8795 26.0309 19.8454 26.0522 19.8225 26.0834L19.6529 26.3432C19.6381 26.3661 19.6297 26.3925 19.6287 26.4197C19.6276 26.4469 19.6339 26.4739 19.6468 26.4979C19.6598 26.5218 19.679 26.5418 19.7024 26.5558C19.7257 26.5698 19.7524 26.5772 19.7797 26.5773ZM20.2596 26.8394C20.2873 26.8389 20.3144 26.831 20.3381 26.8165C20.3617 26.802 20.3811 26.7815 20.3941 26.757L20.5225 26.505C20.5314 26.4873 20.5369 26.4681 20.5384 26.4483C20.54 26.4285 20.5376 26.4086 20.5314 26.3898C20.5253 26.3709 20.5155 26.3535 20.5026 26.3384C20.4897 26.3234 20.474 26.311 20.4564 26.302C20.4387 26.293 20.4194 26.2876 20.3996 26.286C20.3799 26.2845 20.36 26.2869 20.3412 26.293C20.3223 26.2991 20.3049 26.3089 20.2898 26.3218C20.2747 26.3347 20.2623 26.3504 20.2534 26.3681L20.125 26.6201C20.1135 26.6431 20.1081 26.6687 20.1092 26.6944C20.1104 26.7201 20.118 26.7451 20.1315 26.7671C20.1449 26.789 20.1638 26.8072 20.1862 26.8198C20.2086 26.8325 20.2338 26.8392 20.2596 26.8394ZM16.8615 27.7012C16.8412 27.6903 16.7642 27.653 16.6795 27.569C16.6515 27.541 16.6522 27.4951 16.6592 27.45C16.667 27.394 16.7199 26.9825 16.8024 26.9973C16.8024 26.9973 16.9221 27.0284 17.0194 26.995C17.1166 26.9615 17.3289 26.9787 17.4821 27.0051C17.6354 27.0323 18.2164 27.1233 18.6076 27.2478C18.9988 27.3722 19.6801 27.6919 19.9174 27.7642C20.1546 27.8358 20.5271 27.933 20.8165 27.9579C21.1058 27.9828 21.3648 27.9968 21.5266 27.996C21.7039 28.0008 21.8807 27.9737 22.0485 27.9159C22.0485 27.9159 21.9411 28.2223 21.4122 28.3335C21.0345 28.4169 20.6447 28.4309 20.2619 28.3748C20.2355 28.3709 19.2998 28.1998 18.8339 28.1127C18.4925 28.0489 17.9472 27.9493 17.9472 27.9493C17.2994 27.8358 16.975 27.7619 16.8615 27.7012Z" fill="#CCD6DD"/>
        <path d="M18.158 17.0232C17.5739 16.7137 15.6419 15.7376 14.3103 15.6201C14.251 15.6165 14.1921 15.6324 14.1427 15.6654C14.0932 15.6985 14.056 15.7467 14.0365 15.8029L13.0036 18.6301C12.9907 18.6641 12.9848 18.7004 12.9863 18.7367C12.9878 18.7731 12.9967 18.8088 13.0124 18.8416C13.0281 18.8744 13.0503 18.9036 13.0777 18.9276C13.1051 18.9515 13.137 18.9697 13.1716 18.9809C13.7791 19.1754 15.3028 19.6926 16.4539 20.3179C16.5117 20.3504 16.5796 20.3599 16.6442 20.3446C16.7087 20.3294 16.7652 20.2904 16.8023 20.2355C17.157 19.719 18.0794 18.3089 18.298 17.311C18.3093 17.2543 18.3017 17.1955 18.2765 17.1435C18.2512 17.0916 18.2096 17.0493 18.158 17.0232Z" fill="#1C6399"/>
        <path d="M14.378 20.3238C14.5304 19.6806 14.9885 17.565 14.7677 16.2467C14.7561 16.1885 14.7259 16.1356 14.6815 16.0961C14.6371 16.0567 14.5811 16.0328 14.5219 16.0281L11.5251 15.7404C11.4889 15.7364 11.4523 15.7398 11.4175 15.7505C11.3827 15.7611 11.3504 15.7787 11.3226 15.8022C11.2948 15.8257 11.2721 15.8546 11.2558 15.8872C11.2396 15.9197 11.2301 15.9553 11.228 15.9916C11.1922 16.6278 11.0755 18.2331 10.7605 19.5048C10.7437 19.569 10.7516 19.6372 10.7827 19.6959C10.8139 19.7545 10.8659 19.7993 10.9285 19.8214C11.5181 20.0345 13.1149 20.5719 14.1353 20.5323C14.193 20.5288 14.2479 20.5065 14.2917 20.4689C14.3356 20.4312 14.3659 20.3803 14.378 20.3238Z" fill="#357BAA"/>
        <path d="M16.3217 8.7582C16.3878 9.2342 16.2828 9.96065 15.1815 10.1481C14.0802 10.3355 12.9944 10.194 12.5285 10.0641C12.0626 9.9342 12.0859 10.7516 11.9475 11.5201C11.8083 12.2916 11.7134 12.8952 11.7515 13.0546C11.8153 13.3245 12.3807 13.841 12.1536 14.3084C11.9265 14.7759 11.5648 15.2254 11.1176 15.0566C10.6704 14.8879 10.3009 14.6872 10.1819 14.4368C10.0629 14.1863 10.5903 13.4295 10.6113 13.2125C10.6323 12.9963 10.4347 10.1885 10.4604 9.86965C10.4915 9.47998 10.521 8.94642 11.1573 8.72631C11.7935 8.50542 14.3415 8.01076 14.98 7.88709C15.7127 7.7432 16.2338 8.12742 16.3217 8.7582Z" fill="#FFDC5D"/>
        <path d="M15.3868 5.35431C15.1652 5.04631 14.9995 4.68698 14.9287 4.24676C14.6752 2.67487 15.6287 1.21343 17.0583 0.983203C18.4878 0.752981 20.3926 1.86987 20.2954 3.45965C20.1982 5.03776 19.2407 7.33765 17.9309 6.89976C17.5856 6.78387 17.2395 6.65787 16.912 6.50931C16.7643 6.67187 16.6406 7.3112 16.6803 7.8642C16.7822 9.27198 14.8424 9.35209 14.742 7.94198C14.6612 6.82587 15.379 6.14376 15.3868 5.35431Z" fill="#FFDC5D"/>
        <path d="M19.7268 1.43803C17.8368 0.188915 16.5387 0.350693 15.4381 1.18447C14.3453 2.0128 14.2512 3.63292 14.5219 4.6728C14.7925 5.71269 15.0943 5.66447 15.0943 5.66447C15.0943 5.66447 16.513 6.02614 16.6538 4.70547C16.6981 4.2878 16.2384 4.0498 16.7611 3.44936C17.0971 3.0628 17.8173 3.27903 17.8064 3.84914C17.7948 4.41847 18.0888 4.31969 18.0888 4.31969L18.9855 2.83414C18.9855 2.83414 19.7252 2.8108 20.118 3.49992C20.3645 3.93158 21.378 2.52925 19.7268 1.43803Z" fill="#FFAC33"/>
        <path d="M12.8652 8.32216C13.4641 7.04349 14.4083 6.39404 15.4972 6.80004C18.9046 8.07171 17.3328 11.2178 16.1046 16.3294C16.1046 16.3294 13.6865 16.6786 11.1922 16.6094C11.1922 16.6094 11.424 11.3998 12.8652 8.32216Z" fill="#4289C1"/>
        <path d="M14.8244 8.48627C15.2732 8.21794 16.0463 8.01571 16.7012 9.04005C17.3561 10.0644 17.6742 11.2132 17.7418 11.7358C17.8095 12.2585 18.6184 11.8883 19.4483 11.7008C20.2805 11.5126 21.3375 11.1922 21.4814 11.0864C21.7248 10.9083 21.6362 10.4066 22.2008 10.4354C22.7655 10.4642 23.0432 10.3988 23.0642 10.9192C23.0844 11.4395 23.0914 11.9606 22.8915 12.1862C22.6908 12.4117 22.0149 12.2173 21.7124 12.3238C21.4892 12.4024 18.7545 13.7829 18.4239 13.8926C18.0203 14.0264 17.4727 14.2232 16.9819 13.6787C16.4912 13.1343 14.9146 10.79 14.5187 10.202C14.0645 9.52772 14.2286 8.84249 14.8244 8.48627Z" fill="#FFDC5D"/>
    </g>
    <defs>
        <clipPath id="clip0_1_5743">
            <rect width="28" height="28" fill="white" transform="matrix(-1 0 0 1 28 0.5)"/>
        </clipPath>
    </defs>
</svg>
