<svg width="33" height="34" viewBox="0 0 33 34" fill="none" xmlns="http://www.w3.org/2000/svg">
    <path d="M28.8669 11.5037V8.75552C28.8669 7.66224 28.4326 6.61374 27.6596 5.84067C26.8865 5.06761 25.838 4.6333 24.7447 4.6333H20.6225M20.6225 29.3666H24.7447C25.838 29.3666 26.8865 28.9323 27.6596 28.1593C28.4326 27.3862 28.8669 26.3377 28.8669 25.2444V22.4963M4.1336 22.4963V25.2444C4.1336 26.3377 4.5679 27.3862 5.34097 28.1593C6.11403 28.9323 7.16254 29.3666 8.25582 29.3666H12.378M12.378 4.6333H8.25582C7.16254 4.6333 6.11403 5.06761 5.34097 5.84067C4.5679 6.61374 4.1336 7.66224 4.1336 8.75552V11.5037M2.75952 17H30.241" stroke="#F7FFEF" stroke-width="2.12" stroke-linecap="round" stroke-linejoin="round"/>
</svg>
