<svg width="28" height="28" viewBox="0 0 28 28" fill="none" xmlns="http://www.w3.org/2000/svg">
    <g clip-path="url(#clip0_1_5700)">
        <path d="M26.4413 6.9672L16.7347 9.16987L14.3267 13.6732C14.1598 13.9708 14.0768 14.3082 14.0867 14.6493C14.0966 14.9904 14.1989 15.3224 14.3827 15.6099C14.5104 15.8016 14.6785 15.9632 14.8752 16.0833C15.0718 16.2034 15.2924 16.2791 15.5213 16.3052L17.402 19.1705C16.8631 19.261 16.3567 19.4893 15.932 19.8332C15.3898 20.2855 14.7061 20.5332 14 20.5332C13.2939 20.5332 12.6102 20.2855 12.068 19.8332C11.5249 19.3809 10.8404 19.1332 10.1337 19.1332C9.42687 19.1332 8.74243 19.3809 8.19932 19.8332C7.65712 20.2855 6.97341 20.5332 6.26732 20.5332C5.56124 20.5332 4.87753 20.2855 4.33532 19.8332C3.78879 19.3853 3.10526 19.1383 2.39866 19.1332C2.27059 19.1331 2.14268 19.1424 2.01599 19.1612C3.94704 17.3575 6.25294 16.0029 8.76866 15.1945C9.39752 14.9922 9.93575 14.5761 10.29 14.0185L14.6907 7.1772C14.8882 6.86912 15.1978 6.6499 15.554 6.56587L25.8207 4.23253C26.1833 4.15023 26.5638 4.21535 26.8784 4.41358C27.193 4.6118 27.416 4.92689 27.4983 5.28953C27.5806 5.65217 27.5155 6.03266 27.3173 6.34728C27.1191 6.6619 26.804 6.8849 26.4413 6.9672Z" fill="#F9C795"/>
        <path d="M25.0413 15.0125C24.9365 15.9166 24.505 16.7514 23.828 17.3598L21.742 19.2265C21.2895 19.6378 20.7406 19.9283 20.146 20.0711C20.0259 19.9993 19.9105 19.9198 19.8006 19.8331C19.2541 19.3852 18.5706 19.1382 17.864 19.1331C17.5065 19.1339 17.1521 19.2004 16.8186 19.3291L16.786 19.2498C16.675 19.1559 16.5705 19.0546 16.4733 18.9465C15.812 18.2084 15.4705 17.2381 15.5239 16.2486C15.5772 15.259 16.0211 14.3311 16.758 13.6685L18.844 11.8018C19.4079 11.2955 20.1126 10.973 20.8644 10.8771C21.6162 10.7813 22.3793 10.9167 23.0522 11.2653C23.7252 11.6139 24.2759 12.1592 24.6313 12.8286C24.9866 13.498 25.1296 14.2598 25.0413 15.0125Z" fill="#FDD7AD"/>
        <path d="M21.7331 20.9998C20.9209 20.995 20.135 20.7117 19.5066 20.1971C19.0474 19.8098 18.4661 19.5974 17.8653 19.5974C17.2646 19.5974 16.6833 19.8098 16.2241 20.1971C15.5978 20.7145 14.8109 20.9976 13.9985 20.9976C13.1862 20.9976 12.3992 20.7145 11.773 20.1971C11.3138 19.8098 10.7325 19.5974 10.1317 19.5974C9.53103 19.5974 8.94967 19.8098 8.49048 20.1971C7.86432 20.7145 7.07744 20.9975 6.26518 20.9975C5.45291 20.9975 4.66603 20.7145 4.03988 20.1971C3.58069 19.8098 2.99932 19.5974 2.39861 19.5974C1.7979 19.5974 1.21654 19.8098 0.757344 20.1971C0.660313 20.2686 0.539375 20.2998 0.41986 20.2841C0.300345 20.2685 0.191525 20.2072 0.11619 20.1131C0.0408545 20.019 0.00484905 19.8994 0.0157142 19.7794C0.0265793 19.6593 0.0834723 19.5481 0.174477 19.4691C0.800667 18.9516 1.58764 18.6685 2.40001 18.6685C3.21238 18.6685 3.99935 18.9516 4.62554 19.4691C5.08458 19.8565 5.66589 20.0691 6.26658 20.0691C6.86726 20.0691 7.44857 19.8565 7.90761 19.4691C8.5338 18.9516 9.32077 18.6685 10.1331 18.6685C10.9455 18.6685 11.7325 18.9516 12.3587 19.4691C12.8178 19.8565 13.3992 20.069 13.9999 20.069C14.6007 20.069 15.1821 19.8565 15.6412 19.4691C16.2674 18.9516 17.0544 18.6685 17.8667 18.6685C18.6791 18.6685 19.4661 18.9516 20.0923 19.4691C20.5513 19.8565 21.1326 20.0691 21.7333 20.0691C22.334 20.0691 22.9153 19.8565 23.3743 19.4691C24.0005 18.9516 24.7875 18.6685 25.5999 18.6685C26.4122 18.6685 27.1992 18.9516 27.8254 19.4691C27.9219 19.5466 27.9838 19.6592 27.9972 19.7823C28.0107 19.9053 27.9748 20.0287 27.8973 20.1252C27.8198 20.2218 27.7071 20.2836 27.5841 20.2971C27.461 20.3105 27.3377 20.2746 27.2411 20.1971C26.782 19.8098 26.2006 19.5974 25.5999 19.5974C24.9992 19.5974 24.4178 19.8098 23.9586 20.1971C23.3305 20.7115 22.5449 20.9948 21.7331 20.9998ZM4.33294 23.0998C4.22688 23.0997 4.12401 23.0635 4.04128 22.9971C3.58209 22.6098 3.00072 22.3974 2.40001 22.3974C1.7993 22.3974 1.21794 22.6098 0.758744 22.9971C0.710943 23.0355 0.656053 23.064 0.59721 23.0812C0.538366 23.0983 0.476721 23.1037 0.415793 23.0971C0.292744 23.0836 0.180089 23.0218 0.102611 22.9252C0.025132 22.8287 -0.0108234 22.7053 0.00265425 22.5823C0.0161319 22.4592 0.0779384 22.3466 0.174477 22.2691C0.800667 21.7516 1.58764 21.4685 2.40001 21.4685C3.21238 21.4685 3.99935 21.7516 4.62554 22.2691C4.70096 22.3296 4.75573 22.412 4.78226 22.505C4.8088 22.598 4.8058 22.6969 4.77367 22.7881C4.74155 22.8793 4.68188 22.9583 4.60293 23.0141C4.52398 23.07 4.42964 23.0999 4.33294 23.0998ZM13.9999 23.7998C13.1883 23.7953 12.4028 23.5127 11.7744 22.999C11.6779 22.9215 11.6161 22.8088 11.6026 22.6858C11.5891 22.5627 11.6251 22.4394 11.7025 22.3428C11.78 22.2463 11.8927 22.1845 12.0157 22.171C12.1388 22.1575 12.2621 22.1935 12.3587 22.271C12.8178 22.6583 13.3992 22.8708 13.9999 22.8708C14.6007 22.8708 15.1821 22.6583 15.6412 22.271C16.2674 21.7534 17.0544 21.4703 17.8667 21.4703C18.6791 21.4703 19.4661 21.7534 20.0923 22.271C20.1843 22.35 20.2419 22.4617 20.2529 22.5825C20.264 22.7032 20.2276 22.8235 20.1514 22.9179C20.0753 23.0123 19.9654 23.0734 19.8451 23.0881C19.7247 23.1029 19.6033 23.0703 19.5066 22.9971C19.0474 22.6098 18.4661 22.3974 17.8653 22.3974C17.2646 22.3974 16.6833 22.6098 16.2241 22.9971C15.5963 23.5112 14.8113 23.7945 13.9999 23.7998ZM27.5333 23.0998C27.4272 23.0997 27.3243 23.0635 27.2416 22.9971C26.7824 22.6098 26.2011 22.3974 25.6003 22.3974C24.9996 22.3974 24.4183 22.6098 23.9591 22.9971C23.8625 23.0746 23.7392 23.1105 23.6161 23.0971C23.4931 23.0836 23.3804 23.0218 23.3029 22.9252C23.2255 22.8287 23.1895 22.7053 23.203 22.5823C23.2165 22.4592 23.2783 22.3466 23.3748 22.2691C24.001 21.7516 24.788 21.4685 25.6003 21.4685C26.4127 21.4685 27.1997 21.7516 27.8259 22.2691C27.9013 22.3296 27.9561 22.412 27.9826 22.505C28.0091 22.598 28.0061 22.6969 27.974 22.7881C27.9419 22.8793 27.8822 22.9583 27.8033 23.0141C27.7243 23.07 27.63 23.0999 27.5333 23.0998Z" fill="#2FA8CC"/>
        <path d="M18.1574 12.4204L20.0278 14.5036L19.3334 15.1271C19.1493 15.2924 18.9069 15.3778 18.6598 15.3645C18.4127 15.3512 18.1809 15.2403 18.0156 15.0561L17.3921 14.3617C17.2268 14.1776 17.1414 13.9353 17.1547 13.6881C17.168 13.441 17.2789 13.2092 17.463 13.0439L18.1574 12.4204ZM21.2766 15.8947L23.147 17.9784L22.4526 18.6019C22.2684 18.7672 22.0261 18.8526 21.779 18.8393C21.5319 18.826 21.3001 18.7151 21.1348 18.5309L20.5113 17.8365C20.346 17.6524 20.2606 17.4101 20.2739 17.1629C20.2872 16.9158 20.3981 16.684 20.5822 16.5187L21.2766 15.8947Z" fill="#4482C3"/>
        <path d="M18.1999 18.1999C18.0762 18.1999 17.9575 18.1507 17.87 18.0632L17.4033 17.5965C17.3183 17.5085 17.2713 17.3906 17.2724 17.2683C17.2734 17.1459 17.3225 17.0289 17.409 16.9423C17.4955 16.8558 17.6126 16.8067 17.735 16.8057C17.8573 16.8046 17.9752 16.8517 18.0632 16.9367L18.5299 17.4033C18.5951 17.4686 18.6395 17.5517 18.6575 17.6422C18.6755 17.7328 18.6663 17.8266 18.631 17.9118C18.5957 17.9971 18.5359 18.07 18.4592 18.1213C18.3824 18.1725 18.2922 18.1999 18.1999 18.1999Z" fill="#F09372"/>
        <path d="M24.1172 12.0914C23.5651 11.4742 22.8233 11.0585 22.0087 10.9097C21.1941 10.761 20.3531 10.8878 19.6186 11.2701C19.3381 11.4125 19.0776 11.5914 18.8439 11.8021L18.1486 12.4227L23.1326 17.9854L23.8279 17.3601C24.0641 17.1501 24.2698 16.9082 24.4392 16.6414C24.7689 16.1553 24.9755 15.5964 25.0412 15.0127C25.1044 14.4881 25.0546 13.956 24.8952 13.4521C24.7359 12.9483 24.4706 12.4843 24.1172 12.0914Z" fill="#DF4D60"/>
        <path d="M23.1341 18.4493C23.0686 18.4493 23.0038 18.4355 22.944 18.4088C22.8842 18.3821 22.8306 18.3431 22.7869 18.2944L17.8015 12.7359C17.7584 12.6907 17.7248 12.6373 17.7027 12.5788C17.6806 12.5204 17.6705 12.4581 17.673 12.3957C17.6754 12.3333 17.6904 12.272 17.7169 12.2155C17.7435 12.1589 17.7811 12.1083 17.8276 12.0666C17.8741 12.0249 17.9285 11.9929 17.9876 11.9726C18.0467 11.9523 18.1092 11.9441 18.1715 11.9484C18.2339 11.9527 18.2947 11.9695 18.3504 11.9978C18.4061 12.026 18.4556 12.0652 18.4959 12.1129L23.4813 17.6714C23.5413 17.7385 23.5807 17.8215 23.5946 17.9105C23.6085 17.9995 23.5964 18.0906 23.5597 18.1728C23.523 18.2551 23.4633 18.3249 23.3878 18.374C23.3122 18.4231 23.2241 18.4492 23.1341 18.4493Z" fill="#285680"/>
    </g>
    <defs>
        <clipPath id="clip0_1_5700">
            <rect width="28" height="28" fill="white"/>
        </clipPath>
    </defs>
</svg>
