<svg width="24" height="24" viewBox="0 0 24 24" fill="none" xmlns="http://www.w3.org/2000/svg">
    <path d="M14.8062 11.1566C12.4943 13.578 10.1814 19.5216 10.1814 19.5216C10.1814 19.5216 6.87736 11.1566 3.57422 9.22559" stroke="black" stroke-width="1.35" stroke-linecap="round" stroke-linejoin="round"/>
    <path d="M19.9504 6.02137L20.3492 10.1622C20.6075 12.8486 18.5942 15.24 15.9079 15.4993C13.2721 15.752 10.8844 13.8257 10.6307 11.19C10.57 10.5631 10.6335 9.93052 10.8174 9.32825C11.0014 8.72597 11.3023 8.16586 11.7028 7.67993C12.1034 7.19401 12.5958 6.79179 13.1519 6.49628C13.708 6.20077 14.3169 6.01777 14.9438 5.95772L19.358 5.53278C19.429 5.52594 19.5006 5.53315 19.5688 5.554C19.637 5.57486 19.7004 5.60894 19.7554 5.65432C19.8105 5.69969 19.856 5.75546 19.8895 5.81844C19.9229 5.88142 19.9436 5.95038 19.9504 6.02137Z" stroke="black" stroke-width="1.35" stroke-linecap="round" stroke-linejoin="round"/>
</svg>
