<svg width="24" height="24" viewBox="0 0 24 24" fill="none" xmlns="http://www.w3.org/2000/svg">
    <path d="M15.5998 12.8856C15.5998 12.8856 14.9446 12.5544 14.2908 12.5544C13.3088 12.5544 11.9998 13.8828 11.9998 15.8772C11.9998 17.8709 13.7926 19.2 15.5998 19.2C17.407 19.2 19.1998 17.8709 19.1998 15.8772C19.1998 13.8836 17.8908 12.5537 16.9088 12.5537C16.2543 12.5537 15.5998 12.8864 15.5998 12.8864C15.5998 11.8899 16.255 10.5608 17.5632 10.5608M11.0314 6.96005C11.6765 6.96005 12.2 6.47621 12.2 5.88005C12.2 5.28389 11.6758 4.80005 11.0314 4.80005H7.1362C6.49108 4.80005 5.96836 5.28389 5.96836 5.88005C5.96836 6.47621 6.49108 6.96005 7.13692 6.96005M11.4015 6.90461C12.0898 8.17613 12.6543 9.32381 12.9999 10.56C13.0282 10.6608 13.0548 10.7624 13.0798 10.8646M10.868 19.2H7.91596C5.33764 19.2 4.7998 18.7032 4.7998 16.32V13.2795C4.7998 10.8315 5.59036 9.03797 6.7474 6.89885" stroke="black" stroke-width="1.35" stroke-linecap="round" stroke-linejoin="round"/>
</svg>
